<?xml version="1.0" standalone="no"?>
<!DOCTYPE svg PUBLIC "-//W3C//DTD SVG 1.1//EN" "http://www.w3.org/Graphics/SVG/1.1/DTD/svg11.dtd">
<svg width="100%" height="100%" viewBox="0 0 89 105" version="1.1" xmlns="http://www.w3.org/2000/svg" xmlns:xlink="http://www.w3.org/1999/xlink" xml:space="preserve" style="fill-rule:evenodd;clip-rule:evenodd;stroke-linejoin:round;stroke-miterlimit:1.41421;">
    <g transform="matrix(1.37614,0,0,1.37614,-1.4568,0.945092)">
        <g>
            <g>
                <path d="M29.496,2.3C31.649,1.053 35.134,1.049 37.295,2.3L61.824,16.496C63.978,17.743 65.724,20.765 65.724,23.248L65.724,51.679C65.724,54.161 63.986,57.18 61.824,58.431L37.295,72.627C35.141,73.874 31.657,73.878 29.496,72.627L4.966,58.431C2.813,57.184 1.067,54.162 1.067,51.679L1.067,23.248C1.067,20.766 2.805,17.747 4.966,16.496L29.496,2.3Z" style="fill:white;"/>
                <path d="M33.398,73.564L33.266,73.563L33.134,73.56L33.002,73.556L32.87,73.549L32.738,73.541L32.607,73.531L32.476,73.519L32.346,73.506L32.215,73.49L32.086,73.473L31.957,73.454L31.829,73.433L31.701,73.41L31.574,73.385L31.448,73.359L31.323,73.33L31.199,73.3L31.076,73.268L30.954,73.234L30.834,73.199L30.714,73.161L30.596,73.122L30.537,73.101L30.479,73.081L30.421,73.059L30.363,73.037L30.306,73.015L30.249,72.993L30.193,72.97L30.136,72.946L30.081,72.922L30.025,72.897L29.97,72.872L29.916,72.847L29.862,72.821L29.808,72.795L29.755,72.768L29.702,72.741L29.65,72.713L29.598,72.685L29.547,72.656L29.496,72.627L4.966,58.431L4.916,58.401L4.866,58.371L4.816,58.34L4.766,58.309L4.716,58.277L4.666,58.244L4.617,58.211L4.568,58.177L4.519,58.142L4.47,58.107L4.421,58.071L4.373,58.035L4.324,57.998L4.276,57.961L4.228,57.923L4.181,57.885L4.133,57.845L4.086,57.806L3.992,57.725L3.899,57.642L3.807,57.557L3.716,57.471L3.626,57.382L3.537,57.291L3.449,57.199L3.362,57.105L3.276,57.009L3.191,56.912L3.108,56.812L3.025,56.712L2.944,56.61L2.865,56.506L2.786,56.401L2.709,56.295L2.633,56.187L2.559,56.079L2.486,55.969L2.414,55.858L2.344,55.746L2.276,55.632L2.209,55.518L2.144,55.403L2.08,55.288L2.018,55.171L1.957,55.054L1.899,54.935L1.842,54.817L1.786,54.697L1.733,54.578L1.681,54.457L1.631,54.336L1.584,54.215L1.538,54.094L1.493,53.972L1.451,53.85L1.411,53.728L1.373,53.606L1.337,53.484L1.304,53.361L1.272,53.239L1.242,53.117L1.215,52.995L1.19,52.873L1.167,52.752L1.156,52.691L1.146,52.631L1.137,52.57L1.128,52.51L1.12,52.449L1.112,52.389L1.105,52.329L1.098,52.269L1.092,52.21L1.087,52.15L1.082,52.09L1.078,52.031L1.075,51.972L1.072,51.913L1.07,51.854L1.068,51.795L1.067,51.737L1.067,51.679L1.067,23.248L1.067,23.19L1.068,23.131L1.07,23.073L1.072,23.014L1.075,22.955L1.078,22.896L1.082,22.836L1.087,22.777L1.092,22.717L1.098,22.658L1.105,22.598L1.112,22.538L1.119,22.478L1.128,22.417L1.136,22.357L1.146,22.297L1.156,22.236L1.166,22.175L1.189,22.054L1.214,21.932L1.242,21.81L1.271,21.688L1.303,21.566L1.336,21.444L1.372,21.322L1.41,21.2L1.45,21.078L1.492,20.956L1.536,20.834L1.582,20.713L1.63,20.592L1.679,20.471L1.731,20.351L1.784,20.231L1.839,20.112L1.896,19.993L1.955,19.875L2.015,19.758L2.077,19.641L2.141,19.525L2.206,19.41L2.273,19.296L2.341,19.183L2.411,19.071L2.483,18.96L2.556,18.85L2.63,18.741L2.706,18.634L2.783,18.528L2.861,18.423L2.941,18.319L3.022,18.217L3.104,18.116L3.188,18.017L3.272,17.92L3.358,17.824L3.445,17.73L3.533,17.637L3.623,17.547L3.713,17.458L3.804,17.371L3.896,17.286L3.989,17.203L4.083,17.122L4.131,17.083L4.178,17.044L4.226,17.005L4.274,16.967L4.322,16.93L4.371,16.893L4.419,16.856L4.468,16.821L4.517,16.785L4.566,16.751L4.616,16.717L4.665,16.683L4.715,16.651L4.765,16.618L4.815,16.587L4.865,16.556L4.916,16.526L4.966,16.496L29.496,2.3L29.547,2.271L29.598,2.242L29.649,2.214L29.702,2.186L29.754,2.159L29.807,2.132L29.861,2.106L29.915,2.08L29.969,2.055L30.024,2.03L30.079,2.006L30.134,1.982L30.19,1.958L30.247,1.935L30.304,1.913L30.361,1.89L30.418,1.869L30.476,1.847L30.593,1.806L30.711,1.767L30.83,1.729L30.951,1.694L31.072,1.66L31.195,1.628L31.319,1.598L31.444,1.569L31.57,1.543L31.696,1.518L31.824,1.495L31.952,1.474L32.081,1.455L32.21,1.438L32.34,1.422L32.471,1.408L32.601,1.396L32.733,1.386L32.864,1.378L32.996,1.371L33.128,1.367L33.26,1.364L33.392,1.363L33.525,1.364L33.657,1.367L33.789,1.371L33.921,1.377L34.052,1.386L34.184,1.396L34.315,1.407L34.445,1.421L34.575,1.437L34.705,1.454L34.834,1.473L34.962,1.494L35.09,1.517L35.216,1.542L35.342,1.568L35.467,1.596L35.591,1.627L35.714,1.659L35.836,1.693L35.957,1.728L36.077,1.766L36.195,1.805L36.254,1.825L36.312,1.846L36.37,1.867L36.428,1.889L36.485,1.911L36.542,1.934L36.598,1.957L36.654,1.981L36.71,2.005L36.765,2.029L36.82,2.054L36.875,2.08L36.929,2.106L36.983,2.132L37.036,2.159L37.089,2.186L37.141,2.214L37.193,2.242L37.244,2.27L37.295,2.3L61.824,16.496L61.875,16.526L61.925,16.556L61.975,16.587L62.025,16.618L62.075,16.65L62.124,16.683L62.174,16.716L62.223,16.75L62.272,16.785L62.321,16.82L62.37,16.855L62.418,16.892L62.466,16.928L62.515,16.966L62.563,17.004L62.61,17.042L62.658,17.081L62.705,17.121L62.799,17.202L62.892,17.284L62.984,17.369L63.075,17.456L63.165,17.545L63.254,17.635L63.342,17.728L63.429,17.822L63.515,17.918L63.6,18.015L63.683,18.114L63.765,18.215L63.846,18.317L63.926,18.421L64.005,18.525L64.082,18.632L64.157,18.739L64.232,18.848L64.305,18.958L64.376,19.069L64.446,19.181L64.515,19.294L64.582,19.408L64.647,19.523L64.711,19.639L64.773,19.756L64.833,19.873L64.892,19.991L64.949,20.11L65.004,20.229L65.058,20.349L65.11,20.469L65.159,20.59L65.207,20.711L65.253,20.833L65.297,20.955L65.339,21.076L65.379,21.199L65.417,21.321L65.453,21.443L65.487,21.565L65.519,21.688L65.549,21.81L65.576,21.932L65.601,22.053L65.624,22.175L65.635,22.236L65.645,22.296L65.654,22.357L65.663,22.417L65.671,22.477L65.679,22.537L65.686,22.597L65.693,22.657L65.698,22.717L65.704,22.777L65.708,22.836L65.713,22.896L65.716,22.955L65.719,23.014L65.721,23.073L65.723,23.131L65.724,23.19L65.724,23.248L65.724,51.679L65.724,51.737L65.723,51.795L65.721,51.854L65.719,51.913L65.716,51.972L65.713,52.031L65.709,52.09L65.704,52.15L65.699,52.209L65.693,52.269L65.686,52.329L65.679,52.389L65.671,52.449L65.663,52.509L65.654,52.57L65.645,52.63L65.635,52.691L65.624,52.751L65.602,52.873L65.577,52.994L65.549,53.116L65.52,53.238L65.488,53.361L65.454,53.483L65.419,53.605L65.381,53.727L65.341,53.849L65.299,53.971L65.255,54.093L65.209,54.214L65.161,54.335L65.111,54.456L65.06,54.576L65.007,54.696L64.951,54.815L64.895,54.934L64.836,55.052L64.776,55.169L64.714,55.286L64.65,55.402L64.585,55.516L64.518,55.631L64.449,55.744L64.379,55.856L64.308,55.967L64.235,56.077L64.161,56.185L64.085,56.293L64.008,56.399L63.93,56.504L63.85,56.608L63.769,56.71L63.687,56.81L63.603,56.909L63.518,57.007L63.432,57.103L63.345,57.197L63.257,57.289L63.168,57.38L63.078,57.469L62.987,57.556L62.895,57.641L62.801,57.724L62.707,57.804L62.66,57.844L62.612,57.883L62.565,57.922L62.517,57.96L62.468,57.997L62.42,58.034L62.371,58.07L62.323,58.106L62.274,58.141L62.224,58.176L62.175,58.21L62.125,58.243L62.076,58.276L62.026,58.308L61.976,58.34L61.925,58.371L61.875,58.401L61.824,58.431L37.295,72.627L37.244,72.656L37.193,72.685L37.141,72.713L37.089,72.74L37.037,72.768L36.984,72.794L36.93,72.821L36.876,72.846L36.822,72.872L36.767,72.897L36.712,72.921L36.656,72.945L36.6,72.969L36.544,72.992L36.487,73.014L36.43,73.036L36.373,73.058L36.315,73.079L36.198,73.12L36.08,73.16L35.961,73.197L35.84,73.233L35.718,73.267L35.596,73.299L35.472,73.329L35.347,73.357L35.221,73.384L35.095,73.409L34.967,73.431L34.839,73.453L34.71,73.472L34.581,73.489L34.451,73.505L34.32,73.519L34.189,73.531L34.058,73.541L33.927,73.549L33.795,73.555L33.663,73.56L33.531,73.563L33.398,73.564ZM33.398,73.164L33.525,73.163L33.651,73.16L33.778,73.156L33.904,73.15L34.03,73.142L34.156,73.132L34.281,73.121L34.406,73.108L34.53,73.093L34.654,73.076L34.777,73.058L34.899,73.038L35.021,73.016L35.142,72.992L35.261,72.967L35.38,72.94L35.498,72.911L35.614,72.881L35.73,72.849L35.844,72.815L35.957,72.78L36.069,72.742L36.18,72.703L36.233,72.684L36.287,72.663L36.341,72.642L36.394,72.621L36.447,72.599L36.5,72.577L36.552,72.555L36.603,72.532L36.655,72.509L36.705,72.485L36.756,72.461L36.806,72.436L36.855,72.412L36.904,72.386L36.952,72.361L37,72.335L37.048,72.308L37.096,72.281L61.623,58.085L61.671,58.057L61.718,58.029L61.764,58L61.811,57.971L61.857,57.941L61.904,57.911L61.95,57.88L61.996,57.848L62.042,57.816L62.088,57.783L62.134,57.749L62.179,57.715L62.225,57.68L62.27,57.645L62.315,57.61L62.36,57.573L62.405,57.536L62.449,57.5L62.538,57.423L62.626,57.344L62.714,57.264L62.8,57.182L62.886,57.097L62.97,57.011L63.054,56.924L63.137,56.834L63.219,56.743L63.299,56.65L63.379,56.555L63.458,56.459L63.535,56.361L63.611,56.262L63.686,56.162L63.76,56.06L63.832,55.958L63.904,55.853L63.973,55.748L64.042,55.642L64.109,55.534L64.174,55.426L64.238,55.317L64.301,55.207L64.362,55.096L64.421,54.984L64.479,54.871L64.535,54.758L64.59,54.645L64.643,54.531L64.694,54.416L64.743,54.301L64.79,54.186L64.836,54.07L64.88,53.954L64.922,53.838L64.962,53.722L65,53.606L65.036,53.489L65.07,53.373L65.102,53.257L65.132,53.141L65.16,53.026L65.186,52.91L65.209,52.795L65.231,52.68L65.241,52.624L65.25,52.567L65.259,52.51L65.268,52.453L65.275,52.397L65.282,52.34L65.289,52.284L65.295,52.228L65.301,52.172L65.306,52.116L65.31,52.061L65.314,52.006L65.317,51.951L65.32,51.896L65.322,51.841L65.323,51.787L65.324,51.732L65.324,51.677L65.324,23.249L65.324,23.194L65.323,23.14L65.322,23.086L65.32,23.031L65.317,22.976L65.314,22.921L65.31,22.866L65.305,22.81L65.301,22.754L65.295,22.699L65.289,22.643L65.282,22.586L65.275,22.53L65.267,22.473L65.259,22.417L65.25,22.36L65.241,22.303L65.231,22.246L65.209,22.131L65.185,22.016L65.159,21.901L65.131,21.785L65.101,21.669L65.069,21.553L65.035,21.437L64.999,21.32L64.961,21.204L64.92,21.088L64.878,20.972L64.835,20.856L64.789,20.74L64.741,20.624L64.692,20.509L64.641,20.395L64.588,20.28L64.533,20.167L64.477,20.054L64.419,19.941L64.359,19.829L64.298,19.718L64.236,19.608L64.171,19.499L64.106,19.39L64.039,19.283L63.97,19.177L63.9,19.071L63.829,18.967L63.757,18.864L63.683,18.763L63.608,18.662L63.532,18.563L63.454,18.466L63.376,18.37L63.296,18.275L63.215,18.182L63.133,18.091L63.051,18.001L62.967,17.913L62.882,17.827L62.797,17.743L62.711,17.661L62.624,17.581L62.536,17.502L62.446,17.426L62.403,17.389L62.358,17.352L62.313,17.316L62.268,17.28L62.223,17.245L62.177,17.211L62.132,17.177L62.086,17.143L62.041,17.11L61.995,17.078L61.949,17.046L61.903,17.015L61.857,16.985L61.81,16.955L61.764,16.926L61.717,16.897L61.671,16.869L61.623,16.841L37.096,2.646L37.048,2.618L37,2.592L36.952,2.566L36.903,2.54L36.854,2.515L36.805,2.49L36.755,2.465L36.704,2.441L36.653,2.417L36.602,2.394L36.55,2.371L36.498,2.349L36.445,2.326L36.392,2.305L36.339,2.283L36.285,2.263L36.231,2.242L36.176,2.222L36.121,2.202L36.066,2.183L35.954,2.146L35.841,2.111L35.726,2.077L35.611,2.045L35.494,2.014L35.376,1.986L35.257,1.959L35.137,1.933L35.016,1.91L34.895,1.888L34.772,1.868L34.649,1.85L34.525,1.833L34.401,1.818L34.276,1.805L34.151,1.794L34.025,1.784L33.899,1.776L33.772,1.77L33.646,1.766L33.519,1.763L33.393,1.763L33.266,1.764L33.139,1.766L33.013,1.771L32.887,1.777L32.761,1.785L32.635,1.794L32.51,1.806L32.385,1.819L32.261,1.834L32.137,1.851L32.014,1.869L31.891,1.889L31.77,1.911L31.649,1.935L31.529,1.96L31.411,1.987L31.293,2.015L31.176,2.046L31.061,2.078L30.947,2.112L30.834,2.147L30.722,2.184L30.611,2.223L30.558,2.243L30.503,2.264L30.45,2.284L30.396,2.306L30.344,2.327L30.291,2.349L30.239,2.372L30.187,2.395L30.136,2.418L30.085,2.442L30.035,2.466L29.985,2.49L29.936,2.515L29.887,2.54L29.838,2.566L29.79,2.592L29.743,2.619L29.695,2.646L5.168,16.841L5.12,16.869L5.073,16.898L5.026,16.926L4.98,16.956L4.933,16.985L4.887,17.016L4.841,17.047L4.795,17.079L4.749,17.111L4.703,17.144L4.657,17.178L4.612,17.212L4.566,17.246L4.521,17.281L4.476,17.317L4.431,17.353L4.386,17.39L4.342,17.427L4.252,17.504L4.164,17.582L4.077,17.663L3.991,17.745L3.905,17.829L3.821,17.915L3.737,18.003L3.654,18.093L3.572,18.184L3.491,18.277L3.412,18.372L3.333,18.468L3.256,18.565L3.18,18.664L3.105,18.765L3.031,18.866L2.958,18.969L2.887,19.073L2.817,19.179L2.749,19.285L2.682,19.392L2.616,19.501L2.552,19.61L2.49,19.72L2.429,19.831L2.369,19.943L2.312,20.055L2.255,20.168L2.201,20.282L2.148,20.396L2.097,20.511L2.048,20.626L2,20.741L1.955,20.857L1.911,20.973L1.869,21.089L1.829,21.205L1.791,21.321L1.755,21.437L1.721,21.553L1.689,21.669L1.659,21.785L1.631,21.901L1.605,22.016L1.581,22.131L1.56,22.247L1.55,22.303L1.54,22.36L1.532,22.417L1.523,22.473L1.516,22.53L1.508,22.586L1.502,22.643L1.496,22.699L1.49,22.755L1.485,22.81L1.481,22.866L1.477,22.921L1.474,22.976L1.471,23.031L1.469,23.086L1.468,23.14L1.467,23.194L1.467,23.249L1.467,51.677L1.467,51.732L1.468,51.787L1.469,51.841L1.471,51.896L1.474,51.951L1.477,52.006L1.481,52.061L1.485,52.117L1.49,52.172L1.496,52.228L1.502,52.284L1.508,52.34L1.516,52.397L1.523,52.453L1.532,52.51L1.541,52.567L1.55,52.624L1.56,52.68L1.582,52.796L1.606,52.911L1.631,53.026L1.659,53.142L1.69,53.258L1.722,53.374L1.756,53.49L1.792,53.606L1.83,53.723L1.87,53.839L1.912,53.955L1.956,54.071L2.002,54.187L2.05,54.302L2.099,54.417L2.15,54.532L2.203,54.646L2.258,54.76L2.314,54.873L2.372,54.986L2.431,55.097L2.492,55.208L2.555,55.319L2.619,55.428L2.685,55.536L2.752,55.644L2.821,55.75L2.89,55.855L2.962,55.96L3.034,56.063L3.108,56.164L3.183,56.265L3.259,56.364L3.337,56.461L3.415,56.557L3.495,56.652L3.576,56.745L3.657,56.836L3.74,56.926L3.824,57.013L3.908,57.099L3.994,57.184L4.08,57.266L4.167,57.346L4.255,57.424L4.344,57.501L4.388,57.538L4.433,57.575L4.478,57.611L4.523,57.647L4.568,57.682L4.613,57.716L4.659,57.75L4.704,57.784L4.75,57.816L4.796,57.849L4.842,57.88L4.888,57.911L4.934,57.942L4.981,57.972L5.027,58.001L5.073,58.029L5.12,58.057L5.168,58.085L29.695,72.281L29.743,72.308L29.791,72.335L29.839,72.361L29.887,72.387L29.937,72.412L29.986,72.437L30.036,72.462L30.087,72.486L30.138,72.509L30.189,72.533L30.241,72.556L30.293,72.578L30.346,72.6L30.399,72.622L30.452,72.643L30.506,72.664L30.56,72.685L30.615,72.705L30.67,72.724L30.724,72.743L30.837,72.781L30.95,72.816L31.064,72.85L31.18,72.882L31.297,72.912L31.415,72.941L31.534,72.968L31.654,72.993L31.775,73.017L31.896,73.039L32.019,73.059L32.142,73.077L32.266,73.094L32.39,73.108L32.515,73.121L32.64,73.133L32.766,73.142L32.892,73.15L33.018,73.156L33.145,73.161L33.271,73.163L33.398,73.164Z" style="fill:rgb(155,155,155);"/>
            </g>
        </g>
    </g>
</svg>
