<?xml version="1.0" standalone="no"?>
<!DOCTYPE svg PUBLIC "-//W3C//DTD SVG 1.1//EN" "http://www.w3.org/Graphics/SVG/1.1/DTD/svg11.dtd">
<svg width="100%" height="100%" viewBox="0 0 70 70" version="1.1" xmlns="http://www.w3.org/2000/svg" xmlns:xlink="http://www.w3.org/1999/xlink" xml:space="preserve" style="fill-rule:evenodd;clip-rule:evenodd;stroke-linejoin:round;stroke-miterlimit:1.41421;">
    <g transform="matrix(1,0,0,1,3,4)">
        <g id="Layer1">
            <path d="M41.47,40.04L50.05,40.04C50.841,40.04 51.48,39.401 51.48,38.61L51.48,30.03C51.48,29.241 50.841,28.6 50.05,28.6L41.47,28.6C40.68,28.6 40.04,29.241 40.04,30.03L40.04,38.61C40.04,39.401 40.68,40.04 41.47,40.04ZM42.9,31.46L48.62,31.46L48.62,37.18L42.9,37.18L42.9,31.46ZM41.47,25.74L50.05,25.74C50.841,25.74 51.48,25.101 51.48,24.31L51.48,15.731C51.48,14.941 50.841,14.301 50.05,14.301L41.47,14.301C40.68,14.301 40.04,14.941 40.04,15.731L40.04,24.31C40.04,25.101 40.68,25.74 41.47,25.74ZM42.9,17.161L48.62,17.161L48.62,22.881L42.9,22.881L42.9,17.161ZM61.49,5.72L60.06,5.72L60.06,1.43C60.06,0.641 59.421,0 58.63,0L4.29,0C3.5,0 2.86,0.641 2.86,1.43L2.86,5.72L1.43,5.72C0.64,5.72 0,6.361 0,7.15C0,7.941 0.64,8.58 1.43,8.58L2.86,8.58L2.86,61.49C2.86,62.281 3.5,62.92 4.29,62.92L58.63,62.92C59.421,62.92 60.06,62.281 60.06,61.49L60.06,8.58L61.49,8.58C62.281,8.58 62.92,7.941 62.92,7.15C62.92,6.361 62.281,5.72 61.49,5.72ZM28.6,45.761L34.32,45.761L34.32,60.061L28.6,60.061L28.6,45.761ZM57.2,60.06L37.18,60.06L37.18,44.33C37.18,43.541 36.541,42.9 35.75,42.9L27.17,42.9C26.38,42.9 25.74,43.541 25.74,44.33L25.74,60.06L5.72,60.06L5.72,8.58L57.2,8.58L57.2,60.06ZM5.72,2.861L57.2,2.861L57.2,5.721L5.72,5.721L5.72,2.861ZM41.47,54.341L50.05,54.341C50.841,54.341 51.48,53.701 51.48,52.91L51.48,44.33C51.48,43.541 50.841,42.9 50.05,42.9L41.47,42.9C40.68,42.9 40.04,43.541 40.04,44.33L40.04,52.91C40.04,53.701 40.68,54.341 41.47,54.341ZM42.9,45.761L48.62,45.761L48.62,51.482L42.9,51.482L42.9,45.761ZM12.87,40.04L21.45,40.04C22.241,40.04 22.88,39.401 22.88,38.61L22.88,30.03C22.88,29.241 22.241,28.6 21.45,28.6L12.87,28.6C12.08,28.6 11.44,29.241 11.44,30.03L11.44,38.61C11.44,39.401 12.08,40.04 12.87,40.04ZM14.3,31.46L20.02,31.46L20.02,37.18L14.3,37.18L14.3,31.46ZM27.17,40.04L35.75,40.04C36.541,40.04 37.18,39.401 37.18,38.61L37.18,30.03C37.18,29.241 36.541,28.6 35.75,28.6L27.17,28.6C26.38,28.6 25.74,29.241 25.74,30.03L25.74,38.61C25.74,39.401 26.38,40.04 27.17,40.04ZM28.6,31.46L34.32,31.46L34.32,37.18L28.6,37.18L28.6,31.46ZM12.87,25.74L21.45,25.74C22.241,25.74 22.88,25.101 22.88,24.31L22.88,15.731C22.88,14.941 22.241,14.301 21.45,14.301L12.87,14.301C12.08,14.301 11.44,14.941 11.44,15.731L11.44,24.31C11.44,25.101 12.08,25.74 12.87,25.74ZM14.3,17.161L20.02,17.161L20.02,22.881L14.3,22.881L14.3,17.161ZM12.87,54.341L21.45,54.341C22.241,54.341 22.88,53.701 22.88,52.91L22.88,44.33C22.88,43.541 22.241,42.9 21.45,42.9L12.87,42.9C12.08,42.9 11.44,43.541 11.44,44.33L11.44,52.91C11.44,53.701 12.08,54.341 12.87,54.341ZM14.3,45.761L20.02,45.761L20.02,51.482L14.3,51.482L14.3,45.761ZM27.17,25.74L35.75,25.74C36.541,25.74 37.18,25.101 37.18,24.31L37.18,15.731C37.18,14.941 36.541,14.301 35.75,14.301L27.17,14.301C26.38,14.301 25.74,14.941 25.74,15.731L25.74,24.31C25.74,25.101 26.38,25.74 27.17,25.74ZM28.6,17.161L34.32,17.161L34.32,22.881L28.6,22.881L28.6,17.161Z" style="fill:white;"/>
        </g>
    </g>
</svg>
