<?xml version="1.0" standalone="no"?>
<!DOCTYPE svg PUBLIC "-//W3C//DTD SVG 1.1//EN" "http://www.w3.org/Graphics/SVG/1.1/DTD/svg11.dtd">
<svg width="100%" height="100%" viewBox="0 0 70 70" version="1.1" xmlns="http://www.w3.org/2000/svg" xmlns:xlink="http://www.w3.org/1999/xlink" xml:space="preserve" style="fill-rule:evenodd;clip-rule:evenodd;stroke-linejoin:round;stroke-miterlimit:1.41421;">
    <g transform="matrix(1,0,0,1,5,4)">
        <g id="Layer1">
            <path d="M61.876,5.798L61.883,5.775L41.863,0.056L41.856,0.078C41.731,0.041 41.607,0 41.47,0C41.333,0 41.21,0.041 41.084,0.078L41.078,0.056L21.45,5.662L1.823,0.056L1.816,0.078C1.691,0.041 1.567,0 1.43,0C0.64,0 0,0.639 0,1.429L0,55.77C0,56.423 0.446,56.95 1.044,57.121L1.037,57.145L21.057,62.865L21.064,62.841C21.189,62.878 21.313,62.92 21.45,62.92C21.587,62.92 21.711,62.878 21.836,62.841L21.843,62.865L41.47,57.257L61.098,62.865L61.104,62.841C61.23,62.878 61.353,62.92 61.49,62.92C62.28,62.92 62.92,62.28 62.92,61.49L62.92,7.149C62.92,6.497 62.474,5.968 61.876,5.798ZM20.02,59.593L2.86,54.691L2.86,3.326L20.02,8.228L20.02,59.593ZM40.04,54.691L22.88,59.593L22.88,8.228L40.04,3.326L40.04,54.691ZM60.06,59.593L42.9,54.691L42.9,3.326L60.06,8.228L60.06,59.593Z" style="fill:white;"/>
        </g>
    </g>
</svg>
