<?xml version="1.0" standalone="no"?>
<!DOCTYPE svg PUBLIC "-//W3C//DTD SVG 1.1//EN" "http://www.w3.org/Graphics/SVG/1.1/DTD/svg11.dtd">
<svg width="100%" height="100%" viewBox="0 0 70 70" version="1.1" xmlns="http://www.w3.org/2000/svg" xmlns:xlink="http://www.w3.org/1999/xlink" xml:space="preserve" style="fill-rule:evenodd;clip-rule:evenodd;stroke-linejoin:round;stroke-miterlimit:1.41421;">
    <g transform="matrix(1,0,0,1,5.8341,0.909057)">
        <g id="Layer1">
            <path d="M11.551,33.88L30.361,33.88C31.227,33.88 31.929,33.191 31.929,32.34C31.929,31.49 31.227,30.8 30.361,30.8L11.551,30.8C10.686,30.8 9.984,31.49 9.984,32.34C9.984,33.191 10.686,33.88 11.551,33.88ZM53.874,9.24L41.334,9.24L41.334,6.16C41.334,4.458 39.931,3.08 38.199,3.08L31.929,3.08C31.929,1.378 30.526,0 28.794,0C27.063,0 25.659,1.378 25.659,3.08L19.389,3.08C17.658,3.08 16.254,4.458 16.254,6.16L16.254,9.24L3.714,9.24C1.983,9.24 0.579,10.618 0.579,12.32L0.579,64.68C0.579,66.38 1.983,67.76 3.714,67.76L53.874,67.76C55.606,67.76 57.009,66.38 57.009,64.68L57.009,12.32C57.009,10.618 55.606,9.24 53.874,9.24ZM19.389,6.16L38.199,6.16L38.199,12.32L19.389,12.32L19.389,6.16ZM3.714,21.56L53.874,21.56L53.874,64.68L3.714,64.68L3.714,21.56ZM53.874,18.479L3.714,18.479L3.714,12.32L16.254,12.32C16.254,14.02 17.658,15.4 19.389,15.4L38.199,15.4C39.931,15.4 41.334,14.02 41.334,12.32L53.874,12.32L53.874,18.479ZM11.551,52.36L39.766,52.36C40.632,52.36 41.334,51.671 41.334,50.82C41.334,49.97 40.632,49.28 39.766,49.28L11.551,49.28C10.686,49.28 9.984,49.97 9.984,50.82C9.984,51.671 10.686,52.36 11.551,52.36ZM11.551,43.12L46.036,43.12C46.902,43.12 47.604,42.431 47.604,41.579C47.604,40.73 46.902,40.04 46.036,40.04L11.551,40.04C10.686,40.04 9.984,40.73 9.984,41.579C9.984,42.431 10.686,43.12 11.551,43.12Z" style="fill:white;"/>
        </g>
    </g>
</svg>
