<?xml version="1.0" standalone="no"?>
<!DOCTYPE svg PUBLIC "-//W3C//DTD SVG 1.1//EN" "http://www.w3.org/Graphics/SVG/1.1/DTD/svg11.dtd">
<svg width="100%" height="100%" viewBox="0 0 70 70" version="1.1" xmlns="http://www.w3.org/2000/svg" xmlns:xlink="http://www.w3.org/1999/xlink" xml:space="preserve" style="fill-rule:evenodd;clip-rule:evenodd;stroke-linejoin:round;stroke-miterlimit:1.41421;">
    <g transform="matrix(1,0,0,1,7,1)">
        <g id="Layer1">
            <path d="M10.973,33.88L29.782,33.88C30.648,33.88 31.35,33.191 31.35,32.34C31.35,31.49 30.648,30.8 29.782,30.8L10.973,30.8C10.108,30.8 9.405,31.49 9.405,32.34C9.405,33.191 10.108,33.88 10.973,33.88ZM53.295,9.24L40.755,9.24L40.755,6.16C40.755,4.458 39.352,3.08 37.62,3.08L31.35,3.08C31.35,1.378 29.947,0 28.215,0C26.484,0 25.08,1.378 25.08,3.08L18.81,3.08C17.079,3.08 15.675,4.458 15.675,6.16L15.675,9.24L3.135,9.24C1.404,9.24 0,10.618 0,12.32L0,64.68C0,66.38 1.404,67.76 3.135,67.76L53.295,67.76C55.027,67.76 56.43,66.38 56.43,64.68L56.43,12.32C56.43,10.618 55.027,9.24 53.295,9.24ZM18.81,6.16L37.62,6.16L37.62,12.32L18.81,12.32L18.81,6.16ZM3.135,21.56L53.295,21.56L53.295,64.68L3.135,64.68L3.135,21.56ZM53.295,18.479L3.135,18.479L3.135,12.32L15.675,12.32C15.675,14.02 17.079,15.4 18.81,15.4L37.62,15.4C39.352,15.4 40.755,14.02 40.755,12.32L53.295,12.32L53.295,18.479ZM10.973,52.36L39.188,52.36C40.053,52.36 40.755,51.671 40.755,50.82C40.755,49.97 40.053,49.28 39.188,49.28L10.973,49.28C10.108,49.28 9.405,49.97 9.405,50.82C9.405,51.671 10.108,52.36 10.973,52.36ZM10.973,43.12L45.457,43.12C46.323,43.12 47.025,42.431 47.025,41.579C47.025,40.73 46.323,40.04 45.457,40.04L10.973,40.04C10.108,40.04 9.405,40.73 9.405,41.579C9.405,42.431 10.108,43.12 10.973,43.12Z" style="fill:white;"/>
        </g>
    </g>
</svg>
