<?xml version="1.0" standalone="no"?>
<!DOCTYPE svg PUBLIC "-//W3C//DTD SVG 1.1//EN" "http://www.w3.org/Graphics/SVG/1.1/DTD/svg11.dtd">
<svg width="100%" height="100%" viewBox="0 0 70 70" version="1.1" xmlns="http://www.w3.org/2000/svg" xmlns:xlink="http://www.w3.org/1999/xlink" xml:space="preserve" style="fill-rule:evenodd;clip-rule:evenodd;stroke-linejoin:round;stroke-miterlimit:1.41421;">
    <g transform="matrix(1,0,0,1,3,0)">
        <g id="Layer1">
            <path d="M57.2,0L5.72,0C2.561,0 0,2.561 0,5.72L0,64.199C0,67.359 2.561,69.92 5.72,69.92L57.2,69.92C60.359,69.92 62.92,67.359 62.92,64.199L62.92,5.72C62.92,2.561 60.359,0 57.2,0ZM60.06,5.72L60.06,27.076L49.222,27.076C48.768,21.896 46.062,17.818 41.314,15.228C37.463,13.128 33.655,12.762 33.495,12.747C33.143,12.713 32.798,12.832 32.539,13.069C32.279,13.306 32.131,13.641 32.131,13.992L32.131,27.076L23.298,27.076L23.298,2.86L57.2,2.86C58.779,2.86 60.06,4.14 60.06,5.72ZM52.631,49.908L60.06,49.908L60.06,57.075L52.631,57.075L52.631,49.908ZM52.631,40.242L60.06,40.242L60.06,47.408L52.631,47.408L52.631,40.242ZM52.631,29.575L60.06,29.575L60.06,37.742L52.631,37.742L52.631,29.575ZM46.707,27.076L34.631,27.076L34.631,15.456C35.944,15.723 38.033,16.286 40.116,17.423C44.071,19.58 46.274,22.827 46.707,27.076ZM2.86,49.326L14.626,49.326C14.359,50.638 13.796,52.727 12.659,54.81C10.478,58.809 7.179,61.012 2.86,61.409L2.86,49.326ZM2.86,64.199L2.86,63.929C8.11,63.514 12.239,60.801 14.854,56.007C16.954,52.157 17.32,48.349 17.335,48.189C17.367,47.839 17.25,47.492 17.013,47.233C16.776,46.973 16.441,46.825 16.09,46.825L2.86,46.825L2.86,5.72C2.86,4.14 4.141,2.86 5.72,2.86L20.798,2.86L20.798,28.326C20.798,29.016 21.358,29.575 22.048,29.575L50.131,29.575L50.131,67.06L33.715,67.06L33.715,44.283L35.215,44.283C35.905,44.283 36.465,43.724 36.465,43.033C36.465,42.343 35.905,41.784 35.215,41.784L29.715,41.784C29.025,41.784 28.465,42.343 28.465,43.033C28.465,43.724 29.025,44.283 29.715,44.283L31.215,44.283L31.215,67.06L5.72,67.06C4.141,67.06 2.86,65.781 2.86,64.199ZM57.2,67.06L52.631,67.06L52.631,59.575L60.06,59.575L60.06,64.199C60.06,65.781 58.779,67.06 57.2,67.06Z" style="fill:white;"/>
        </g>
    </g>
</svg>
