<?xml version="1.0" standalone="no"?>
<!DOCTYPE svg PUBLIC "-//W3C//DTD SVG 1.1//EN" "http://www.w3.org/Graphics/SVG/1.1/DTD/svg11.dtd">
<svg width="100%" height="100%" viewBox="0 0 70 70" version="1.1" xmlns="http://www.w3.org/2000/svg" xmlns:xlink="http://www.w3.org/1999/xlink" xml:space="preserve" style="fill-rule:evenodd;clip-rule:evenodd;stroke-linejoin:round;stroke-miterlimit:1.41421;">
    <g id="Layer1">
        <g transform="matrix(0.742749,0,0,0.742749,5.51607,-0.110281)">
            <path d="M77.008,58.926L63.576,45.472L63.576,26.991C63.576,26.027 62.796,25.246 61.833,25.246L51.377,25.246C50.414,25.246 49.634,26.027 49.634,26.991L49.634,31.506L40.409,22.266C40.095,21.95 39.658,21.754 39.177,21.754C38.697,21.754 38.26,21.95 37.945,22.266L1.346,58.926C1.03,59.241 0.835,59.677 0.835,60.16C0.835,61.124 1.615,61.906 2.578,61.906C3.059,61.906 3.496,61.712 3.81,61.394L11.292,53.9L11.292,91.937C11.292,92.901 12.072,93.683 13.035,93.683L65.319,93.683C66.282,93.683 67.062,92.901 67.062,91.937L67.062,53.9L74.544,61.394C74.859,61.712 75.295,61.906 75.776,61.906C76.739,61.906 77.519,61.124 77.519,60.16C77.519,59.677 77.324,59.241 77.008,58.926ZM53.119,28.737L60.091,28.737L60.091,41.979L53.119,34.997L53.119,28.737ZM14.778,86.7L28.72,86.7L28.72,90.191L14.778,90.191L14.778,86.7ZM32.206,67.143L46.148,67.143L46.148,90.191L32.206,90.191L32.206,67.143ZM49.634,86.7L63.576,86.7L63.576,90.191L49.634,90.191L49.634,86.7ZM63.576,83.208L49.634,83.208L49.634,65.397C49.634,64.434 48.854,63.651 47.891,63.651L30.463,63.651C29.5,63.651 28.72,64.434 28.72,65.397L28.72,83.208L14.778,83.208L14.778,50.408L39.177,25.968L63.576,50.408L63.576,83.208ZM40.92,80.938C41.883,80.938 42.663,80.156 42.663,79.192C42.663,78.229 41.883,77.446 40.92,77.446C39.957,77.446 39.177,78.229 39.177,79.192C39.177,80.156 39.957,80.938 40.92,80.938Z" style="fill:white;"/>
        </g>
        <g transform="matrix(0.742749,0,0,0.742749,5.51607,-0.110281)">
            <path d="M56.692,21.257C56.596,21.257 56.501,21.248 56.408,21.229C56.23,21.2 56.057,21.139 55.899,21.046C54.193,20.294 44.815,15.761 45.134,7.369C45.324,2.351 48.13,0.564 50.69,0.564C52.978,0.564 55.208,1.889 56.682,3.924C58.155,1.889 60.387,0.564 62.674,0.564C65.235,0.564 68.041,2.351 68.231,7.369C68.548,15.737 59.233,20.264 57.481,21.04C57.24,21.183 56.967,21.257 56.692,21.257ZM50.69,3.616C48.632,3.616 48.232,6.039 48.179,7.485C47.956,13.358 54.648,17.058 56.682,18.046C58.716,17.059 65.408,13.361 65.186,7.485C65.131,6.039 64.732,3.616 62.674,3.616C61.008,3.616 58.809,5.23 58.16,7.836C57.991,8.516 57.381,8.993 56.682,8.993C55.982,8.993 55.373,8.516 55.203,7.836C54.555,5.23 52.356,3.616 50.69,3.616Z" style="fill:white;"/>
        </g>
    </g>
</svg>
