<?xml version="1.0" standalone="no"?>
<!DOCTYPE svg PUBLIC "-//W3C//DTD SVG 1.1//EN" "http://www.w3.org/Graphics/SVG/1.1/DTD/svg11.dtd">
<svg width="100%" height="100%" viewBox="0 0 70 70" version="1.1" xmlns="http://www.w3.org/2000/svg" xmlns:xlink="http://www.w3.org/1999/xlink" xml:space="preserve" style="fill-rule:evenodd;clip-rule:evenodd;stroke-linejoin:round;stroke-miterlimit:1.41421;">
    <g transform="matrix(1,0,0,1,11.21,4)">
        <g id="Layer1">
            <path d="M23.67,0C11.034,0 0.79,10.244 0.79,22.88C0.79,41.47 23.67,62.92 23.67,62.92C23.67,62.92 46.55,41.47 46.55,22.88C46.55,10.244 36.306,0 23.67,0ZM23.67,58.63C23.67,58.63 3.65,40.039 3.65,22.88C3.65,11.822 12.613,2.859 23.67,2.859C34.727,2.859 43.69,11.822 43.69,22.88C43.69,40.039 23.67,58.63 23.67,58.63ZM23.67,11.44C17.352,11.44 12.23,16.562 12.23,22.88C12.23,29.197 17.352,34.32 23.67,34.32C29.989,34.32 35.11,29.197 35.11,22.88C35.11,16.562 29.989,11.44 23.67,11.44ZM23.67,31.459C18.932,31.459 15.09,27.618 15.09,22.88C15.09,18.141 18.932,14.3 23.67,14.3C28.409,14.3 32.25,18.141 32.25,22.88C32.25,27.618 28.409,31.459 23.67,31.459Z" style="fill:white;"/>
        </g>
    </g>
</svg>
