<?xml version="1.0" standalone="no"?>
<!DOCTYPE svg PUBLIC "-//W3C//DTD SVG 1.1//EN" "http://www.w3.org/Graphics/SVG/1.1/DTD/svg11.dtd">
<svg width="100%" height="100%" viewBox="0 0 375 79" version="1.1" xmlns="http://www.w3.org/2000/svg" xmlns:xlink="http://www.w3.org/1999/xlink" xml:space="preserve" style="fill-rule:evenodd;clip-rule:evenodd;stroke-miterlimit:10;">
    <g id="logo_homehapp" transform="matrix(1,0,0,1,2.2793,2.37732)">
        <g transform="matrix(0.980318,0,0,0.980318,-0.887479,0.396682)">
            <path d="M84.349,49.354L88.587,48.626L88.587,16.102L84.349,15.374L84.349,12.073L93.708,12.073L93.708,28.244C94.679,26.892 95.866,25.843 97.27,25.098C98.674,24.353 100.234,23.98 101.95,23.98C104.966,23.98 107.306,24.881 108.969,26.684C110.633,28.486 111.465,31.259 111.465,35.003L111.465,48.626L115.703,49.354L115.703,52.63L102.106,52.63L102.106,49.354L106.344,48.626L106.344,34.951C106.344,32.629 105.845,30.913 104.849,29.804C103.852,28.694 102.366,28.14 100.39,28.14C98.986,28.14 97.708,28.473 96.555,29.141C95.403,29.808 94.454,30.713 93.708,31.857L93.708,48.626L97.946,49.354L97.946,52.63L84.349,52.63L84.349,49.354Z" style="fill:white;fill-rule:nonzero;"/>
            <path d="M122.887,38.305C122.887,34.145 124.013,30.718 126.267,28.023C128.52,25.327 131.579,23.98 135.444,23.98C139.327,23.98 142.399,25.323 144.661,28.01C146.922,30.696 148.053,34.128 148.053,38.305L148.053,38.877C148.053,43.071 146.927,46.503 144.674,49.172C142.42,51.842 139.361,53.176 135.496,53.176C131.596,53.176 128.52,51.837 126.267,49.159C124.013,46.482 122.887,43.054 122.887,38.877L122.887,38.305ZM128.009,38.877C128.009,41.858 128.637,44.319 129.893,46.261C131.15,48.202 133.018,49.172 135.496,49.172C137.923,49.172 139.769,48.202 141.034,46.261C142.299,44.319 142.932,41.858 142.932,38.877L142.932,38.305C142.932,35.359 142.299,32.906 141.034,30.947C139.769,28.989 137.905,28.01 135.444,28.01C132.983,28.01 131.128,28.989 129.88,30.947C128.633,32.906 128.009,35.359 128.009,38.305L128.009,38.877Z" style="fill:white;fill-rule:nonzero;"/>
            <path d="M155.719,49.354L159.957,48.626L159.957,28.53L155.719,27.802L155.719,24.5L164.559,24.5L164.897,28.166C165.798,26.831 166.959,25.8 168.38,25.072C169.802,24.344 171.448,23.98 173.32,23.98C175.192,23.98 176.799,24.413 178.143,25.28C179.486,26.146 180.496,27.446 181.172,29.18C182.055,27.585 183.225,26.32 184.681,25.384C186.137,24.448 187.836,23.98 189.777,23.98C192.654,23.98 194.925,24.964 196.589,26.931C198.252,28.898 199.084,31.857 199.084,35.809L199.084,48.626L203.322,49.354L203.322,52.63L189.699,52.63L189.699,49.354L193.937,48.626L193.937,35.757C193.937,32.984 193.46,31.021 192.507,29.869C191.554,28.716 190.141,28.14 188.269,28.14C186.484,28.14 185.05,28.768 183.966,30.025C182.883,31.281 182.255,32.863 182.081,34.769L182.081,48.626L186.319,49.354L186.319,52.63L172.722,52.63L172.722,49.354L176.96,48.626L176.96,35.757C176.96,33.123 176.47,31.194 175.491,29.973C174.512,28.751 173.095,28.14 171.24,28.14C169.68,28.14 168.398,28.46 167.392,29.102C166.387,29.743 165.616,30.644 165.079,31.805L165.079,48.626L169.316,49.354L169.316,52.63L155.719,52.63L155.719,49.354Z" style="fill:white;fill-rule:nonzero;"/>
            <path d="M223.323,53.176C219.406,53.176 216.291,51.872 213.977,49.263C211.663,46.655 210.506,43.271 210.506,39.111L210.506,37.967C210.506,33.963 211.698,30.631 214.081,27.971C216.464,25.31 219.285,23.98 222.543,23.98C226.322,23.98 229.186,25.124 231.136,27.412C233.086,29.7 234.061,32.75 234.061,36.563L234.061,39.761L215.81,39.761L215.732,39.891C215.784,42.595 216.468,44.818 217.786,46.56C219.103,48.301 220.949,49.172 223.323,49.172C225.056,49.172 226.577,48.925 227.886,48.431C229.194,47.937 230.325,47.257 231.279,46.391L233.281,49.718C232.275,50.689 230.945,51.508 229.29,52.175C227.635,52.842 225.646,53.176 223.323,53.176ZM222.543,28.01C220.827,28.01 219.363,28.733 218.15,30.181C216.936,31.628 216.191,33.443 215.914,35.627L215.966,35.757L228.939,35.757L228.939,35.081C228.939,33.071 228.402,31.389 227.327,30.038C226.252,28.686 224.658,28.01 222.543,28.01Z" style="fill:white;fill-rule:nonzero;"/>
            <path d="M242.402,49.354L246.64,48.626L246.64,16.102L242.402,15.374L242.402,12.073L251.762,12.073L251.762,28.244C252.732,26.892 253.92,25.843 255.323,25.098C256.727,24.353 258.287,23.98 260.003,23.98C263.019,23.98 265.359,24.881 267.023,26.684C268.687,28.486 269.519,31.259 269.519,35.003L269.519,48.626L273.756,49.354L273.756,52.63L260.159,52.63L260.159,49.354L264.397,48.626L264.397,34.951C264.397,32.629 263.899,30.913 262.902,29.804C261.905,28.694 260.419,28.14 258.443,28.14C257.039,28.14 255.761,28.473 254.609,29.141C253.456,29.808 252.507,30.713 251.762,31.857L251.762,48.626L255.999,49.354L255.999,52.63L242.402,52.63L242.402,49.354Z" style="fill:white;fill-rule:nonzero;"/>
            <path d="M299.829,52.63C299.673,51.868 299.552,51.183 299.465,50.576C299.378,49.97 299.318,49.363 299.283,48.756C298.295,50.022 297.06,51.075 295.578,51.915C294.096,52.756 292.515,53.176 290.834,53.176C287.904,53.176 285.677,52.461 284.152,51.031C282.627,49.601 281.864,47.586 281.864,44.987C281.864,42.317 282.943,40.259 285.101,38.812C287.259,37.365 290.218,36.641 293.979,36.641L299.257,36.641L299.257,33.365C299.257,31.719 298.737,30.415 297.697,29.453C296.657,28.491 295.21,28.01 293.355,28.01C292.073,28.01 290.942,28.174 289.963,28.504C288.983,28.833 288.19,29.284 287.584,29.856L287.038,32.819L283.086,32.819L283.086,27.36C284.369,26.337 285.92,25.518 287.74,24.903C289.56,24.288 291.536,23.98 293.667,23.98C296.857,23.98 299.439,24.795 301.415,26.424C303.391,28.053 304.379,30.384 304.379,33.417L304.379,46.962C304.379,47.326 304.383,47.682 304.392,48.028C304.4,48.375 304.422,48.722 304.457,49.068L306.537,49.354L306.537,52.63L299.829,52.63ZM291.588,48.886C293.286,48.886 294.837,48.479 296.241,47.664C297.645,46.85 298.65,45.871 299.257,44.727L299.257,40.099L293.797,40.099C291.7,40.099 290.041,40.584 288.819,41.555C287.597,42.525 286.986,43.704 286.986,45.091C286.986,46.321 287.367,47.261 288.13,47.911C288.892,48.561 290.045,48.886 291.588,48.886Z" style="fill:white;fill-rule:nonzero;"/>
            <path d="M314.176,60.144L318.414,59.416L318.414,28.53L314.176,27.802L314.176,24.5L322.808,24.5L323.276,27.932C324.212,26.649 325.351,25.67 326.695,24.994C328.038,24.318 329.593,23.98 331.361,23.98C334.845,23.98 337.553,25.362 339.486,28.127C341.418,30.891 342.385,34.544 342.385,39.085L342.385,39.631C342.385,43.687 341.414,46.958 339.473,49.445C337.532,51.933 334.854,53.176 331.439,53.176C329.706,53.176 328.185,52.886 326.877,52.305C325.568,51.725 324.454,50.862 323.536,49.718L323.536,59.416L327.774,60.144L327.774,63.445L314.176,63.445L314.176,60.144ZM337.237,39.085C337.237,35.878 336.613,33.253 335.365,31.207C334.117,29.162 332.263,28.14 329.801,28.14C328.345,28.14 327.098,28.469 326.058,29.128C325.018,29.786 324.177,30.687 323.536,31.831L323.536,45.533C324.177,46.694 325.013,47.591 326.045,48.223C327.076,48.856 328.345,49.172 329.853,49.172C332.28,49.172 334.117,48.288 335.365,46.521C336.613,44.753 337.237,42.456 337.237,39.631L337.237,39.085Z" style="fill:white;fill-rule:nonzero;"/>
            <path d="M350.414,60.144L354.652,59.416L354.652,28.53L350.414,27.802L350.414,24.5L359.046,24.5L359.514,27.932C360.45,26.649 361.589,25.67 362.933,24.994C364.276,24.318 365.831,23.98 367.599,23.98C371.083,23.98 373.791,25.362 375.724,28.127C377.656,30.891 378.623,34.544 378.623,39.085L378.623,39.631C378.623,43.687 377.652,46.958 375.711,49.445C373.77,51.933 371.092,53.176 367.677,53.176C365.944,53.176 364.423,52.886 363.115,52.305C361.806,51.725 360.692,50.862 359.774,49.718L359.774,59.416L364.012,60.144L364.012,63.445L350.414,63.445L350.414,60.144ZM373.475,39.085C373.475,35.878 372.851,33.253 371.603,31.207C370.355,29.162 368.501,28.14 366.039,28.14C364.584,28.14 363.336,28.469 362.296,29.128C361.256,29.786 360.415,30.687 359.774,31.831L359.774,45.533C360.415,46.694 361.251,47.591 362.283,48.223C363.314,48.856 364.584,49.172 366.091,49.172C368.518,49.172 370.355,48.288 371.603,46.521C372.851,44.753 373.475,42.456 373.475,39.631L373.475,39.085Z" style="fill:white;fill-rule:nonzero;"/>
        </g>
        <g transform="matrix(0.980318,0,0,0.980318,-0.887479,0.396682)">
            <path d="M29.496,2.3C31.649,1.053 35.134,1.049 37.295,2.3L61.824,16.496C63.978,17.743 65.724,20.765 65.724,23.248L65.724,51.679C65.724,54.161 63.986,57.18 61.824,58.431L37.295,72.627C35.141,73.874 31.657,73.878 29.496,72.627L4.966,58.431C2.813,57.184 1.067,54.162 1.067,51.679L1.067,23.248C1.067,20.766 2.805,17.747 4.966,16.496L29.496,2.3Z" style="fill:white;stroke-width:1.15px;stroke:rgb(43,59,61);"/>
        </g>
        <g transform="matrix(0.980318,0,0,0.980318,-0.887479,0.396682)">
            <path d="M22.956,35.057L13.297,35.444L7.459,42.872L7.459,51.093C7.459,52.755 8.75,54.452 10.356,54.888L18.162,57.005L18.162,43.852L23.027,35.444L29.07,42.872" style="fill:none;stroke-width:1.15px;stroke:rgb(43,59,61);"/>
        </g>
        <g transform="matrix(0.980318,0,0,0.980318,-0.887479,0.396682)">
            <path d="M21.035,58.026L21.035,49.25L26.925,43.955L38.009,41.866L45.087,48.357L45.087,58.059L33.088,61.584L21.035,58.026Z" style="fill:none;stroke-width:1.15px;stroke:rgb(43,59,61);"/>
        </g>
        <g transform="matrix(0.980318,0,0,0.980318,-0.887479,0.396682)">
            <path d="M37.795,42.436L37.795,26.462L47.736,22.882L58.11,26.897L58.11,50.262C58.11,51.918 56.859,53.745 55.316,54.342L47.736,57.275L47.736,22.979" style="fill:none;stroke-width:1.15px;stroke:rgb(43,59,61);"/>
        </g>
        <g transform="matrix(0.980318,0,0,0.980318,-0.887479,0.396682)">
            <path d="M27.301,43.933L33.124,51.358L45.335,48.511" style="fill:none;stroke-width:1.15px;stroke:rgb(43,59,61);"/>
        </g>
        <g transform="matrix(0.980318,0,0,0.980318,-0.887479,0.396682)">
            <path d="M33.27,51.166L33.27,61.584" style="fill:none;stroke-width:1.15px;stroke:rgb(43,59,61);"/>
        </g>
        <g transform="matrix(0.980318,0,0,0.980318,-0.887479,0.396682)">
            <path d="M7.22,42.627L18.248,43.933" style="fill:none;stroke-width:1.15px;stroke:rgb(43,59,61);"/>
        </g>
    </g>
</svg>
