<?xml version="1.0" standalone="no"?>
<!DOCTYPE svg PUBLIC "-//W3C//DTD SVG 1.1//EN" "http://www.w3.org/Graphics/SVG/1.1/DTD/svg11.dtd">
<svg width="100%" height="100%" viewBox="0 0 297 53" version="1.1" xmlns="http://www.w3.org/2000/svg" xmlns:xlink="http://www.w3.org/1999/xlink" xml:space="preserve" style="fill-rule:evenodd;clip-rule:evenodd;stroke-linejoin:round;stroke-miterlimit:1.41421;">
    <g transform="matrix(1.25073,0,0,1.25073,-31.3514,-7.62094)">
        <path d="M209.254,41.398L209.254,48.171L204.586,48.171L204.586,14.547L208.24,14.547L208.664,17.223C208.873,16.879 209.122,16.528 209.411,16.171C209.7,15.814 210.039,15.498 210.426,15.221C210.814,14.944 211.251,14.716 211.737,14.538C212.223,14.36 212.767,14.27 213.37,14.27C213.628,14.27 213.939,14.295 214.302,14.344C214.665,14.394 215.04,14.517 215.427,14.713C215.815,14.91 216.203,15.202 216.59,15.59C216.978,15.978 217.322,16.51 217.624,17.186C217.925,17.863 218.171,18.706 218.362,19.715C218.552,20.723 218.648,21.947 218.648,23.387L218.648,31.082C218.648,32.522 218.552,33.746 218.362,34.755C218.171,35.764 217.922,36.606 217.614,37.283C217.307,37.96 216.956,38.495 216.562,38.889C216.169,39.282 215.769,39.578 215.363,39.774C214.957,39.971 214.563,40.097 214.182,40.153C213.8,40.208 213.468,40.236 213.185,40.236C212.201,40.236 211.38,40.045 210.722,39.664C210.063,39.282 209.525,38.821 209.107,38.28L209.254,41.398ZM209.254,34.773C209.353,35.019 209.473,35.253 209.614,35.475C209.756,35.696 209.922,35.893 210.113,36.065C210.303,36.237 210.519,36.376 210.759,36.48C210.998,36.585 211.278,36.637 211.598,36.637C211.943,36.637 212.256,36.573 212.539,36.443C212.822,36.314 213.068,36.08 213.278,35.742C213.487,35.404 213.65,34.933 213.767,34.33C213.883,33.728 213.942,32.952 213.942,32.005L213.942,22.28C213.942,21.332 213.883,20.56 213.767,19.964C213.65,19.367 213.49,18.896 213.287,18.552C213.084,18.207 212.841,17.974 212.558,17.851C212.275,17.728 211.961,17.666 211.617,17.666C211.026,17.666 210.543,17.841 210.168,18.192C209.793,18.543 209.488,18.952 209.254,19.419L209.254,34.773Z" style="fill:white;fill-rule:nonzero;"/>
        <path d="M190.985,41.398L190.985,48.171L186.316,48.171L186.316,14.547L189.97,14.547L190.394,17.223C190.603,16.879 190.852,16.528 191.142,16.171C191.431,15.814 191.769,15.498 192.157,15.221C192.544,14.944 192.981,14.716 193.467,14.538C193.953,14.36 194.497,14.27 195.1,14.27C195.358,14.27 195.669,14.295 196.032,14.344C196.395,14.394 196.77,14.517 197.158,14.713C197.545,14.91 197.933,15.202 198.32,15.59C198.708,15.978 199.052,16.51 199.354,17.186C199.655,17.863 199.901,18.706 200.092,19.715C200.283,20.723 200.378,21.947 200.378,23.387L200.378,31.082C200.378,32.522 200.283,33.746 200.092,34.755C199.901,35.764 199.652,36.606 199.345,37.283C199.037,37.96 198.686,38.495 198.293,38.889C197.899,39.282 197.499,39.578 197.093,39.774C196.687,39.971 196.293,40.097 195.912,40.153C195.531,40.208 195.198,40.236 194.915,40.236C193.931,40.236 193.11,40.045 192.452,39.664C191.794,39.282 191.255,38.821 190.837,38.28L190.985,41.398ZM190.985,34.773C191.083,35.019 191.203,35.253 191.345,35.475C191.486,35.696 191.652,35.893 191.843,36.065C192.034,36.237 192.249,36.376 192.489,36.48C192.729,36.585 193.009,36.637 193.328,36.637C193.673,36.637 193.987,36.573 194.27,36.443C194.553,36.314 194.799,36.08 195.008,35.742C195.217,35.404 195.38,34.933 195.497,34.33C195.614,33.728 195.672,32.952 195.672,32.005L195.672,22.28C195.672,21.332 195.614,20.56 195.497,19.964C195.38,19.367 195.22,18.896 195.017,18.552C194.814,18.207 194.571,17.974 194.288,17.851C194.005,17.728 193.691,17.666 193.347,17.666C192.756,17.666 192.273,17.841 191.898,18.192C191.523,18.543 191.218,18.952 190.985,19.419L190.985,34.773Z" style="fill:white;fill-rule:nonzero;"/>
        <path d="M172.77,40.236C171.983,40.236 171.285,40.079 170.676,39.765C170.067,39.451 169.553,39.024 169.135,38.483C168.716,37.941 168.4,37.298 168.184,36.554C167.969,35.81 167.861,35.001 167.861,34.127C167.861,33.082 167.991,32.153 168.249,31.341C168.507,30.529 168.886,29.797 169.384,29.145C169.882,28.493 170.5,27.899 171.239,27.364C171.977,26.829 172.832,26.321 173.804,25.841C174.271,25.608 174.797,25.371 175.382,25.131C175.966,24.891 176.486,24.685 176.941,24.513L176.941,21.154C176.941,20.662 176.922,20.204 176.886,19.779C176.849,19.355 176.759,18.986 176.618,18.672C176.477,18.358 176.264,18.112 175.981,17.934C175.698,17.755 175.311,17.666 174.819,17.666C174.487,17.666 174.164,17.728 173.85,17.851C173.536,17.974 173.259,18.183 173.019,18.478C172.779,18.773 172.589,19.167 172.447,19.659C172.306,20.151 172.235,20.76 172.235,21.486L172.235,22.593L168.673,22.593C168.563,22.114 168.48,21.674 168.424,21.274C168.369,20.874 168.341,20.477 168.341,20.084C168.341,19.136 168.504,18.3 168.83,17.574C169.156,16.848 169.611,16.239 170.196,15.747C170.78,15.255 171.478,14.883 172.29,14.63C173.102,14.378 173.994,14.252 174.966,14.252C176.234,14.252 177.285,14.39 178.122,14.667C178.959,14.944 179.626,15.359 180.124,15.913C180.623,16.467 180.973,17.162 181.176,17.998C181.379,18.835 181.481,19.813 181.481,20.932L181.481,39.959L178.011,39.959L177.679,37.781C177.175,38.507 176.501,39.098 175.658,39.553C174.816,40.008 173.853,40.236 172.77,40.236ZM174.837,36.637C175.231,36.637 175.615,36.536 175.991,36.333C176.366,36.13 176.683,35.881 176.941,35.585L176.941,27.631C176.695,27.73 176.418,27.847 176.111,27.982C175.803,28.117 175.471,28.296 175.114,28.517C174.782,28.726 174.456,28.979 174.136,29.274C173.816,29.569 173.53,29.92 173.278,30.326C173.026,30.732 172.823,31.19 172.669,31.701C172.515,32.211 172.438,32.78 172.438,33.408C172.438,34.38 172.629,35.161 173.01,35.751C173.392,36.342 174.001,36.637 174.837,36.637Z" style="fill:white;fill-rule:nonzero;"/>
        <path d="M150.404,6.39L155.073,6.39L155.073,12.37L154.833,16.725C155.177,16.245 155.549,15.848 155.949,15.535C156.349,15.221 156.761,14.969 157.186,14.778C157.61,14.587 158.041,14.452 158.477,14.372C158.914,14.292 159.348,14.252 159.778,14.252C161.267,14.252 162.414,14.772 163.22,15.811C164.026,16.851 164.429,18.41 164.429,20.49L164.429,39.959L159.76,39.959L159.76,20.656C159.76,19.536 159.588,18.758 159.243,18.321C158.899,17.884 158.394,17.666 157.73,17.666C157.262,17.666 156.792,17.823 156.318,18.137C155.845,18.45 155.429,18.884 155.073,19.438L155.073,39.959L150.404,39.959L150.404,6.39Z" style="fill:white;fill-rule:nonzero;"/>
        <path d="M139.516,40.236C138.421,40.236 137.452,40.033 136.609,39.627C135.766,39.221 135.056,38.587 134.478,37.726C133.899,36.865 133.463,35.761 133.167,34.413C132.872,33.066 132.724,31.445 132.724,29.551L132.724,24.753C132.724,23.141 132.844,21.76 133.084,20.61C133.324,19.459 133.638,18.493 134.025,17.712C134.413,16.931 134.862,16.313 135.373,15.858C135.883,15.402 136.409,15.055 136.95,14.815C137.492,14.575 138.03,14.421 138.565,14.354C139.1,14.286 139.596,14.252 140.051,14.252C140.887,14.252 141.693,14.378 142.468,14.63C143.243,14.883 143.926,15.313 144.517,15.922C145.107,16.531 145.578,17.346 145.928,18.367C146.279,19.388 146.454,20.662 146.454,22.187C146.454,22.704 146.439,23.227 146.408,23.756C146.377,24.285 146.337,24.805 146.288,25.315C146.239,25.826 146.174,26.321 146.095,26.801C146.015,27.281 145.932,27.724 145.845,28.13L137.412,28.13L137.412,30.713C137.412,31.821 137.455,32.752 137.541,33.509C137.627,34.266 137.772,34.875 137.975,35.336C138.178,35.797 138.454,36.13 138.805,36.333C139.156,36.536 139.596,36.637 140.125,36.637C140.408,36.637 140.684,36.579 140.955,36.462C141.226,36.345 141.462,36.151 141.665,35.881C141.868,35.61 142.031,35.25 142.155,34.801C142.278,34.352 142.339,33.795 142.339,33.131L142.339,32.337L146.233,32.337L146.233,33.315C146.233,35.727 145.658,37.483 144.507,38.584C143.357,39.685 141.693,40.236 139.516,40.236ZM142.099,24.992C142.111,24.857 142.124,24.676 142.136,24.448C142.148,24.22 142.158,23.984 142.164,23.738C142.17,23.491 142.173,23.249 142.173,23.009C142.173,22.769 142.173,22.563 142.173,22.39C142.173,20.717 141.976,19.512 141.582,18.773C141.189,18.035 140.604,17.666 139.829,17.666C139.423,17.666 139.066,17.761 138.759,17.952C138.451,18.143 138.199,18.463 138.002,18.912C137.805,19.361 137.658,19.954 137.559,20.693C137.461,21.431 137.412,22.347 137.412,23.442L137.412,24.992L142.099,24.992Z" style="fill:white;fill-rule:nonzero;"/>
        <path d="M105.338,14.547L108.955,14.547L109.361,17.26L109.361,17.279C109.73,16.7 110.124,16.217 110.542,15.83C110.961,15.442 111.394,15.132 111.843,14.898C112.292,14.664 112.754,14.498 113.227,14.4C113.701,14.301 114.172,14.252 114.639,14.252C115.636,14.252 116.478,14.492 117.167,14.972C117.856,15.452 118.379,16.171 118.736,17.131C119.105,16.577 119.496,16.116 119.908,15.747C120.32,15.378 120.747,15.082 121.19,14.861C121.633,14.64 122.082,14.483 122.538,14.39C122.993,14.298 123.454,14.252 123.922,14.252C125.398,14.252 126.539,14.772 127.345,15.811C128.151,16.851 128.554,18.41 128.554,20.49L128.554,39.959L123.885,39.959L123.885,20.656C123.885,20.102 123.842,19.635 123.756,19.253C123.669,18.872 123.54,18.564 123.368,18.33C123.196,18.097 122.974,17.928 122.704,17.823C122.433,17.718 122.107,17.666 121.726,17.666C121.295,17.666 120.864,17.823 120.434,18.137C120.003,18.45 119.609,18.884 119.253,19.438C119.265,19.548 119.271,19.659 119.271,19.77L119.271,39.959L114.602,39.959L114.602,20.656C114.602,20.102 114.559,19.635 114.473,19.253C114.387,18.872 114.258,18.564 114.085,18.33C113.913,18.097 113.692,17.928 113.421,17.823C113.15,17.718 112.824,17.666 112.443,17.666C112.025,17.666 111.6,17.82 111.17,18.127C110.739,18.435 110.352,18.859 110.007,19.401L110.007,39.959L105.338,39.959L105.338,14.547Z" style="fill:white;fill-rule:nonzero;"/>
        <path d="M94.21,40.236C93.669,40.236 93.118,40.193 92.558,40.107C91.999,40.02 91.457,39.842 90.934,39.571C90.412,39.301 89.92,38.913 89.458,38.409C88.997,37.904 88.594,37.24 88.249,36.416C87.905,35.591 87.634,34.576 87.437,33.371C87.241,32.165 87.142,30.726 87.142,29.052L87.142,25.066C87.142,23.418 87.244,22.006 87.447,20.831C87.65,19.656 87.926,18.669 88.277,17.869C88.628,17.069 89.037,16.433 89.504,15.959C89.972,15.485 90.467,15.122 90.99,14.87C91.513,14.618 92.051,14.452 92.605,14.372C93.158,14.292 93.7,14.252 94.229,14.252C94.733,14.252 95.256,14.289 95.797,14.363C96.339,14.437 96.868,14.593 97.384,14.833C97.901,15.073 98.39,15.43 98.851,15.904C99.313,16.377 99.719,17.014 100.069,17.814C100.42,18.613 100.697,19.607 100.9,20.794C101.103,21.981 101.204,23.405 101.204,25.066L101.204,29.052C101.204,30.701 101.1,32.122 100.891,33.315C100.681,34.509 100.398,35.518 100.042,36.342C99.685,37.166 99.273,37.834 98.805,38.344C98.338,38.855 97.846,39.252 97.329,39.534C96.812,39.817 96.286,40.005 95.751,40.097C95.216,40.19 94.702,40.236 94.21,40.236ZM94.247,36.637C94.665,36.637 95.019,36.529 95.308,36.314C95.597,36.099 95.831,35.745 96.009,35.253C96.188,34.761 96.317,34.112 96.397,33.306C96.477,32.5 96.517,31.501 96.517,30.307L96.517,24.051C96.517,22.858 96.477,21.855 96.397,21.043C96.317,20.231 96.188,19.576 96.009,19.078C95.831,18.58 95.597,18.22 95.308,17.998C95.019,17.777 94.665,17.666 94.247,17.666C93.804,17.666 93.432,17.777 93.131,17.998C92.829,18.22 92.58,18.58 92.383,19.078C92.186,19.576 92.045,20.231 91.959,21.043C91.873,21.855 91.83,22.858 91.83,24.051L91.83,30.307C91.83,31.501 91.873,32.5 91.959,33.306C92.045,34.112 92.186,34.761 92.383,35.253C92.58,35.745 92.829,36.099 93.131,36.314C93.432,36.529 93.804,36.637 94.247,36.637Z" style="fill:white;fill-rule:nonzero;"/>
        <path d="M68.946,6.39L73.615,6.39L73.615,12.37L73.375,16.725C73.72,16.245 74.092,15.848 74.492,15.535C74.892,15.221 75.304,14.969 75.728,14.778C76.153,14.587 76.583,14.452 77.02,14.372C77.457,14.292 77.89,14.252 78.321,14.252C79.81,14.252 80.957,14.772 81.763,15.811C82.569,16.851 82.971,18.41 82.971,20.49L82.971,39.959L78.302,39.959L78.302,20.656C78.302,19.536 78.13,18.758 77.786,18.321C77.441,17.884 76.937,17.666 76.273,17.666C75.805,17.666 75.334,17.823 74.861,18.137C74.387,18.45 73.972,18.884 73.615,19.438L73.615,39.959L68.946,39.959L68.946,6.39Z" style="fill:white;fill-rule:nonzero;"/>
    </g>
</svg>
