<svg viewBox="0 0 375 79" xmlns="http://www.w3.org/2000/svg" fill-rule="evenodd" clip-rule="evenodd" stroke-linejoin="round" stroke-miterlimit="1.41"><path d="M295.77 58.37v9.57h-6.6V20.42h5.16l.6 3.78c.3-.48.65-.98 1.06-1.48.4-.5.88-.96 1.42-1.35a7.77 7.77 0 0 1 1.86-.96c.68-.24 1.45-.37 2.3-.37.37 0 .8.03 1.32.1s1.05.25 1.6.52c.54.28 1.1.7 1.64 1.24.54.54 1.03 1.3 1.46 2.25.42.96.77 2.15 1.04 3.57.27 1.43.4 3.16.4 5.2v10.87c0 2.03-.13 3.76-.4 5.18a15.84 15.84 0 0 1-1.06 3.58c-.43.95-.93 1.7-1.5 2.26a6.3 6.3 0 0 1-1.68 1.26 5.75 5.75 0 0 1-1.67.53c-.54.1-1 .13-1.4.13a6.84 6.84 0 0 1-5.77-2.77l.2 4.4zm0-9.36a6 6 0 0 0 .5 1c.2.3.44.6.7.83a2.94 2.94 0 0 0 2.1.8c.5 0 .93-.08 1.33-.26s.76-.5 1.05-1c.3-.47.53-1.14.7-2 .16-.84.24-1.94.24-3.27V31.35c0-1.34-.1-2.43-.26-3.27a6.4 6.4 0 0 0-.68-2c-.28-.5-.63-.82-1.03-1-.4-.16-.84-.25-1.33-.25-.83 0-1.5.25-2.04.74a6.1 6.1 0 0 0-1.3 1.74V49zm-25.83 9.37v9.57h-6.6V20.42h5.17l.6 3.78c.3-.48.66-.98 1.07-1.48.4-.5.88-.96 1.43-1.35a7.73 7.73 0 0 1 1.85-.96c.7-.24 1.46-.37 2.3-.37.37 0 .8.03 1.33.1.5.07 1.04.25 1.6.52.53.28 1.08.7 1.63 1.24.56.54 1.05 1.3 1.47 2.25.43.96.78 2.15 1.05 3.57.27 1.43.4 3.16.4 5.2v10.87c0 2.03-.13 3.76-.4 5.18a15.9 15.9 0 0 1-1.06 3.58c-.43.95-.93 1.7-1.5 2.26-.54.56-1.1.98-1.68 1.26a5.75 5.75 0 0 1-1.67.53c-.53.1-1 .13-1.4.13a6.85 6.85 0 0 1-5.77-2.77l.2 4.4zm0-9.36c.14.35.3.7.5 1 .2.3.45.6.72.83.27.25.57.44.9.6.35.14.74.2 1.2.2.48 0 .93-.08 1.33-.26s.74-.5 1.03-1c.3-.47.53-1.14.7-2 .16-.84.24-1.94.24-3.27V31.35c0-1.34-.08-2.43-.25-3.27-.16-.85-.4-1.5-.68-2s-.63-.82-1.03-1a3.3 3.3 0 0 0-1.32-.25c-.83 0-1.52.25-2.05.74a6.07 6.07 0 0 0-1.3 1.74V49zm-25.74 7.73c-1.1 0-2.1-.22-2.96-.67a6.46 6.46 0 0 1-2.18-1.8 8.1 8.1 0 0 1-1.34-2.73 12.3 12.3 0 0 1-.46-3.43c0-1.48.18-2.8.55-3.94.37-1.15.9-2.18 1.6-3.1.72-.93 1.6-1.77 2.63-2.52a25.1 25.1 0 0 1 3.63-2.16c.66-.33 1.4-.66 2.23-1 .82-.34 1.55-.63 2.2-.87v-4.74c0-.7-.03-1.35-.08-1.95a4.8 4.8 0 0 0-.38-1.55c-.2-.44-.5-.8-.9-1.04-.4-.25-.95-.37-1.65-.37-.48 0-.93.1-1.38.26-.44.16-.83.46-1.17.87-.34.42-.6.98-.8 1.67-.2.7-.3 1.56-.3 2.6v1.55h-5.04a22.06 22.06 0 0 1-.34-1.87 12.34 12.34 0 0 1-.12-1.7c0-1.33.23-2.5.7-3.53a7.15 7.15 0 0 1 1.92-2.6c.83-.68 1.8-1.2 2.96-1.56a12.7 12.7 0 0 1 3.78-.54c1.8 0 3.28.2 4.46.6a6.4 6.4 0 0 1 2.83 1.75c.7.78 1.2 1.76 1.48 2.95.3 1.18.43 2.56.43 4.14v26.9h-4.9l-.46-3.08a8.07 8.07 0 0 1-2.86 2.5c-1.2.64-2.55.97-4.08.97zm2.92-5.1c.56 0 1.1-.13 1.63-.42.53-.28.98-.63 1.34-1.05V38.9l-1.18.5a9.47 9.47 0 0 0-2.8 1.83 7.1 7.1 0 0 0-1.2 1.5 8.1 8.1 0 0 0-.86 1.93 8.3 8.3 0 0 0-.33 2.42c0 1.37.27 2.48.8 3.3.55.84 1.4 1.26 2.6 1.26zM212.6 8.9h6.6v8.44l-.35 6.16c.48-.68 1-1.24 1.57-1.68a8.43 8.43 0 0 1 1.75-1.07 7.9 7.9 0 0 1 1.83-.58c.6-.1 1.23-.17 1.84-.17 2.1 0 3.72.74 4.86 2.2 1.14 1.48 1.7 3.68 1.7 6.62v27.52h-6.6v-27.3c0-1.57-.23-2.67-.72-3.3-.5-.6-1.2-.9-2.14-.9a3.6 3.6 0 0 0-2 .65 6.12 6.12 0 0 0-1.75 1.83v29h-6.6V8.9zm-15.4 47.83c-1.55 0-2.92-.3-4.1-.86a7.58 7.58 0 0 1-3.02-2.7 13.53 13.53 0 0 1-1.86-4.67c-.42-1.9-.62-4.2-.62-6.87v-6.78c0-2.28.17-4.24.5-5.86.34-1.64.8-3 1.34-4.1a8.5 8.5 0 0 1 4.13-4.1 8.12 8.12 0 0 1 2.28-.65 16.75 16.75 0 0 1 2.1-.15c1.18 0 2.32.18 3.42.54a7.03 7.03 0 0 1 2.9 1.82c.83.86 1.5 2 2 3.46.48 1.44.73 3.24.73 5.4 0 .73-.02 1.47-.07 2.2a59.36 59.36 0 0 1-.17 2.22 30.65 30.65 0 0 1-.62 3.98h-11.92v3.65c0 1.56.06 2.88.18 3.95.12 1.07.33 1.93.62 2.58.28.65.67 1.12 1.17 1.4a3.7 3.7 0 0 0 3.03.2 2.5 2.5 0 0 0 1-.83c.3-.38.52-.9.7-1.52.17-.64.25-1.43.25-2.36v-1.14h5.5v1.4c0 3.4-.8 5.88-2.43 7.43-1.63 1.55-3.98 2.33-7.06 2.33zm3.65-21.55c0-.2.03-.44.05-.77a35.47 35.47 0 0 0 .05-2.02v-.88c0-2.36-.28-4.06-.83-5.1-.56-1.05-1.4-1.57-2.48-1.57a2.8 2.8 0 0 0-1.52.4c-.43.27-.8.72-1.07 1.36-.27.62-.48 1.46-.62 2.5-.14 1.05-.2 2.34-.2 3.9v2.18h6.6zM148.9 20.42h5.1l.57 3.83v.03a10.4 10.4 0 0 1 1.67-2.05 8.5 8.5 0 0 1 1.84-1.3 7.53 7.53 0 0 1 1.96-.72c.67-.13 1.33-.2 2-.2 1.4 0 2.6.34 3.57 1.02.98.68 1.72 1.7 2.23 3.05a10.2 10.2 0 0 1 1.65-1.95 8.24 8.24 0 0 1 1.8-1.26 7.7 7.7 0 0 1 1.92-.66 9.84 9.84 0 0 1 1.95-.2c2.1 0 3.7.74 4.84 2.2 1.13 1.48 1.7 3.68 1.7 6.62v27.52h-6.6v-27.3a9.1 9.1 0 0 0-.18-1.97 3.5 3.5 0 0 0-.55-1.3 2.08 2.08 0 0 0-.94-.72 3.8 3.8 0 0 0-1.38-.22c-.6 0-1.22.22-1.82.66a6.73 6.73 0 0 0-1.67 1.83l.02.47v28.54h-6.6v-27.3c0-.77-.06-1.43-.18-1.97s-.3-.97-.55-1.3a2.08 2.08 0 0 0-.94-.72 3.8 3.8 0 0 0-1.37-.22c-.6 0-1.2.22-1.8.65a6.43 6.43 0 0 0-1.64 1.8v29.06h-6.6V20.42zm-15.74 36.3c-.77 0-1.54-.05-2.34-.17a7.46 7.46 0 0 1-2.3-.76 7.56 7.56 0 0 1-2.08-1.65 9.7 9.7 0 0 1-1.7-2.82c-.5-1.17-.88-2.6-1.15-4.3-.3-1.7-.43-3.75-.43-6.1v-5.64c0-2.34.14-4.34.43-6 .3-1.66.68-3.05 1.17-4.18a8.9 8.9 0 0 1 1.74-2.7 7.6 7.6 0 0 1 4.4-2.25 16.05 16.05 0 0 1 4.5 0 7.8 7.8 0 0 1 2.24.65c.73.34 1.43.85 2.08 1.52a9 9 0 0 1 1.72 2.7c.5 1.13.9 2.53 1.17 4.2.3 1.7.44 3.7.44 6.05v5.62c0 2.33-.14 4.34-.44 6.03-.3 1.68-.7 3.1-1.2 4.27-.5 1.17-1.1 2.1-1.75 2.83a8.14 8.14 0 0 1-2.08 1.7 7.16 7.16 0 0 1-2.23.78c-.76.13-1.5.2-2.18.2zm.05-5.08c.6 0 1.1-.15 1.5-.46.42-.3.75-.8 1-1.5.26-.7.44-1.6.55-2.75.1-1.14.17-2.55.17-4.24v-8.85c0-1.68-.06-3.1-.17-4.25-.1-1.15-.3-2.07-.55-2.78-.25-.7-.58-1.2-1-1.52-.4-.3-.9-.47-1.5-.47a2.6 2.6 0 0 0-1.57.47c-.42.3-.78.82-1.05 1.52-.28.7-.48 1.63-.6 2.78a41.94 41.94 0 0 0-.18 4.25v8.85c0 1.68.06 3.1.18 4.24.12 1.13.32 2.05.6 2.75.27.68.63 1.18 1.05 1.5.43.3.95.44 1.58.44zM97.46 8.9h6.6v8.44l-.34 6.16c.5-.68 1.02-1.24 1.6-1.68a8.46 8.46 0 0 1 1.74-1.07 7.92 7.92 0 0 1 1.82-.58c.62-.1 1.23-.17 1.84-.17 2.1 0 3.73.74 4.87 2.2 1.14 1.48 1.7 3.68 1.7 6.62v27.52h-6.6v-27.3c0-1.57-.24-2.67-.73-3.3-.48-.6-1.2-.9-2.13-.9a3.6 3.6 0 0 0-2 .65 6.13 6.13 0 0 0-1.75 1.83v29h-6.6V8.9z" fill="#fff" fill-rule="nonzero"/><g transform="translate(0 -.14) scale(1.41343)"><clipPath id="a"><path d="M16.68 23.13l-10 .22a1.14 1.14 0 0 0-.9.46L.4 31.2c-.26.35-.4.78-.4 1.2v13.8c0 .6-.06 1.17.38 1.33.43.17 10.14 3.2 10.78 3.36.65.16 1.06.06 1.06-.8V33.53c0-.4.12-.82.35-1.18L17 25.52l5.54 5.92c.2.22.33.52.33.82v2.18l1.56-.27V31.4c0-.3-.1-.6-.32-.82l-6.36-7a1.38 1.38 0 0 0-1.06-.45zM10.74 32l-8.4-.74 4.55-6.14h8.34l-4.5 6.9z"/></clipPath><g clip-path="url(#a)"><path fill="#fff" fill-rule="nonzero" d="M-5 18.13h34.43v37.8H-5z"/></g></g><g transform="translate(0 -.14) scale(1.41343)"><clipPath id="b"><path d="M43.38 47.2v-8.42c0-.32-.1-.63-.33-.86-1.25-1.38-5.6-6.14-5.9-6.34a2.92 2.92 0 0 0-1.68-.28c-.46.07-11.9 2.93-14.44 3.57-.32.08-.6.25-.82.5l-5.67 6.44a1.1 1.1 0 0 0-.28.74v8.38c0 .58.1.9.76 1.17.7.26 8.93 3.17 9.8 3.48.88.3 1.48.24 2.43-.12.95-.35 15.04-6.4 15.64-6.7.6-.32.52-.83.52-1.57zm-21.2-10.87l13.84-3.6 5.24 5.3-14.84 5.07-4.24-6.77zm19.7 11.1l-15.1 6.52V44.8l15.1-5.26v7.9z"/></clipPath><g clip-path="url(#b)"><path fill="#fff" fill-rule="nonzero" d="M9.25 26.28H48.4v34.5H9.24z"/></g></g><g transform="translate(0 -.14) scale(1.41343)"><clipPath id="c"><path d="M32.7 31.97V7.12c0-.65-.02-.84.78-1.22.8-.37 10.3-4.9 11.08-5.24.76-.34 1.37-.5 2.33 0 .95.5 10.2 5.05 10.9 5.4.72.35.78.9.78 1.42V40.6c0 .64-.2 1.05-.83 1.4a435.5 435.5 0 0 1-11.05 5.33c-.7.25-1.6.4-1.6-1.2V2.35l-10.8 5.1.04 24.12-1.64.4z"/></clipPath><g clip-path="url(#c)"><path fill="#fff" fill-rule="nonzero" d="M27.7-4.66h35.88V52.5H27.7z"/></g></g></svg>