<?xml version="1.0" standalone="no"?>
<!DOCTYPE svg PUBLIC "-//W3C//DTD SVG 1.1//EN" "http://www.w3.org/Graphics/SVG/1.1/DTD/svg11.dtd">
<svg width="100%" height="100%" viewBox="0 0 297 53" version="1.1" xmlns="http://www.w3.org/2000/svg" xmlns:xlink="http://www.w3.org/1999/xlink" xml:space="preserve" style="fill-rule:evenodd;clip-rule:evenodd;stroke-linejoin:round;stroke-miterlimit:1.41421;">
    <g transform="matrix(1,0,0,1,-0.262897,41.6301)">
      <path d="M1.612,-3.276L5.85,-4.004L5.85,-36.528L1.612,-37.256L1.612,-40.558L10.971,-40.558L10.971,-24.387C11.942,-25.738 13.129,-26.787 14.533,-27.532C15.937,-28.278 17.497,-28.65 19.213,-28.65C22.229,-28.65 24.568,-27.749 26.232,-25.946C27.896,-24.144 28.728,-21.371 28.728,-17.627L28.728,-4.004L32.966,-3.276L32.966,0L19.369,0L19.369,-3.276L23.607,-4.004L23.607,-17.679C23.607,-20.001 23.108,-21.717 22.112,-22.827C21.115,-23.936 19.629,-24.49 17.653,-24.49C16.249,-24.49 14.971,-24.157 13.818,-23.49C12.666,-22.822 11.717,-21.917 10.971,-20.773L10.971,-4.004L15.209,-3.276L15.209,0L1.612,0L1.612,-3.276Z" style="fill:#d5d9d9;fill-rule:nonzero;"/>
      <path d="M38.58,-14.325C38.58,-18.485 39.706,-21.912 41.959,-24.607C44.213,-27.303 47.272,-28.65 51.137,-28.65C55.019,-28.65 58.091,-27.307 60.353,-24.62C62.615,-21.934 63.746,-18.502 63.746,-14.325L63.746,-13.753C63.746,-9.559 62.619,-6.127 60.366,-3.458C58.113,-0.789 55.054,0.546 51.189,0.546C47.289,0.546 44.213,-0.793 41.959,-3.471C39.706,-6.149 38.58,-9.576 38.58,-13.753L38.58,-14.325ZM43.701,-13.753C43.701,-10.772 44.33,-8.311 45.586,-6.37C46.843,-4.428 48.71,-3.458 51.189,-3.458C53.615,-3.458 55.461,-4.428 56.726,-6.37C57.992,-8.311 58.624,-10.772 58.624,-13.753L58.624,-14.325C58.624,-17.272 57.992,-19.724 56.726,-21.683C55.461,-23.641 53.598,-24.62 51.137,-24.62C48.676,-24.62 46.821,-23.641 45.573,-21.683C44.325,-19.724 43.701,-17.272 43.701,-14.325L43.701,-13.753Z" style="fill:#d5d9d9;fill-rule:nonzero;"/>
      <path d="M69.542,-3.276L73.779,-4.004L73.779,-24.101L69.542,-24.828L69.542,-28.13L78.381,-28.13L78.719,-24.465C79.62,-25.799 80.782,-26.83 82.203,-27.558C83.624,-28.286 85.271,-28.65 87.142,-28.65C89.014,-28.65 90.622,-28.217 91.965,-27.35C93.308,-26.484 94.318,-25.184 94.994,-23.451C95.878,-25.045 97.048,-26.31 98.504,-27.246C99.96,-28.182 101.658,-28.65 103.599,-28.65C106.477,-28.65 108.747,-27.667 110.411,-25.699C112.075,-23.732 112.907,-20.773 112.907,-16.821L112.907,-4.004L117.145,-3.276L117.145,0L103.521,0L103.521,-3.276L107.759,-4.004L107.759,-16.873C107.759,-19.646 107.283,-21.609 106.329,-22.762C105.376,-23.914 103.963,-24.49 102.092,-24.49C100.306,-24.49 98.872,-23.862 97.789,-22.606C96.706,-21.349 96.077,-19.767 95.904,-17.861L95.904,-4.004L100.142,-3.276L100.142,0L86.545,0L86.545,-3.276L90.782,-4.004L90.782,-16.873C90.782,-19.507 90.293,-21.436 89.313,-22.658C88.334,-23.88 86.917,-24.49 85.063,-24.49C83.503,-24.49 82.22,-24.17 81.215,-23.529C80.21,-22.887 79.438,-21.986 78.901,-20.825L78.901,-4.004L83.139,-3.276L83.139,0L69.542,0L69.542,-3.276Z" style="fill:#d5d9d9;fill-rule:nonzero;"/>
      <path d="M135.575,0.546C131.658,0.546 128.543,-0.758 126.229,-3.367C123.915,-5.975 122.758,-9.359 122.758,-13.519L122.758,-14.663C122.758,-18.667 123.95,-21.999 126.333,-24.659C128.716,-27.32 131.537,-28.65 134.795,-28.65C138.574,-28.65 141.438,-27.506 143.388,-25.218C145.338,-22.931 146.313,-19.88 146.313,-16.067L146.313,-12.869L128.062,-12.869L127.984,-12.739C128.036,-10.035 128.721,-7.813 130.038,-6.071C131.355,-4.329 133.201,-3.458 135.575,-3.458C137.309,-3.458 138.83,-3.705 140.138,-4.199C141.447,-4.693 142.578,-5.373 143.531,-6.24L145.533,-2.912C144.528,-1.941 143.197,-1.122 141.542,-0.455C139.887,0.212 137.898,0.546 135.575,0.546ZM134.795,-24.62C133.08,-24.62 131.615,-23.897 130.402,-22.45C129.189,-21.002 128.443,-19.187 128.166,-17.003L128.218,-16.873L141.191,-16.873L141.191,-17.549C141.191,-19.559 140.654,-21.241 139.579,-22.593C138.505,-23.945 136.91,-24.62 134.795,-24.62Z" style="fill:#d5d9d9;fill-rule:nonzero;"/>
      <path d="M152.784,-3.276L157.022,-4.004L157.022,-36.528L152.784,-37.256L152.784,-40.558L162.144,-40.558L162.144,-24.387C163.114,-25.738 164.302,-26.787 165.706,-27.532C167.109,-28.278 168.669,-28.65 170.385,-28.65C173.401,-28.65 175.741,-27.749 177.405,-25.946C179.069,-24.144 179.901,-21.371 179.901,-17.627L179.901,-4.004L184.138,-3.276L184.138,0L170.541,0L170.541,-3.276L174.779,-4.004L174.779,-17.679C174.779,-20.001 174.281,-21.717 173.284,-22.827C172.287,-23.936 170.801,-24.49 168.825,-24.49C167.421,-24.49 166.143,-24.157 164.991,-23.49C163.838,-22.822 162.889,-21.917 162.144,-20.773L162.144,-4.004L166.381,-3.276L166.381,0L152.784,0L152.784,-3.276Z" style="fill:#d5d9d9;fill-rule:nonzero;"/>
      <path d="M208.341,0C208.185,-0.763 208.064,-1.447 207.977,-2.054C207.89,-2.661 207.83,-3.267 207.795,-3.874C206.807,-2.609 205.572,-1.556 204.09,-0.715C202.608,0.126 201.027,0.546 199.345,0.546C196.416,0.546 194.189,-0.169 192.664,-1.599C191.139,-3.029 190.376,-5.044 190.376,-7.644C190.376,-10.313 191.455,-12.371 193.613,-13.818C195.771,-15.265 198.73,-15.989 202.491,-15.989L207.769,-15.989L207.769,-19.265C207.769,-20.911 207.249,-22.216 206.209,-23.178C205.169,-24.14 203.722,-24.62 201.867,-24.62C200.585,-24.62 199.454,-24.456 198.474,-24.127C197.495,-23.797 196.702,-23.347 196.096,-22.775L195.55,-19.811L191.598,-19.811L191.598,-25.27C192.88,-26.293 194.432,-27.112 196.252,-27.727C198.071,-28.343 200.047,-28.65 202.179,-28.65C205.368,-28.65 207.951,-27.836 209.927,-26.206C211.903,-24.577 212.891,-22.246 212.891,-19.213L212.891,-5.668C212.891,-5.304 212.895,-4.948 212.904,-4.602C212.912,-4.255 212.934,-3.908 212.969,-3.562L215.048,-3.276L215.048,0L208.341,0ZM200.099,-3.744C201.798,-3.744 203.349,-4.151 204.753,-4.966C206.157,-5.78 207.162,-6.76 207.769,-7.904L207.769,-12.531L202.309,-12.531C200.212,-12.531 198.552,-12.046 197.331,-11.075C196.109,-10.105 195.498,-8.926 195.498,-7.54C195.498,-6.309 195.879,-5.369 196.642,-4.719C197.404,-4.069 198.557,-3.744 200.099,-3.744Z" style="fill:#d5d9d9;fill-rule:nonzero;"/>
      <path d="M220.818,7.514L225.056,6.786L225.056,-24.101L220.818,-24.828L220.818,-28.13L229.449,-28.13L229.917,-24.698C230.853,-25.981 231.993,-26.96 233.336,-27.636C234.679,-28.312 236.235,-28.65 238.003,-28.65C241.487,-28.65 244.195,-27.268 246.127,-24.503C248.06,-21.739 249.026,-18.086 249.026,-13.545L249.026,-12.999C249.026,-8.943 248.056,-5.672 246.114,-3.185C244.173,-0.698 241.495,0.546 238.081,0.546C236.348,0.546 234.827,0.256 233.518,-0.325C232.21,-0.906 231.096,-1.768 230.177,-2.912L230.177,6.786L234.415,7.514L234.415,10.815L220.818,10.815L220.818,7.514ZM243.879,-13.545C243.879,-16.752 243.255,-19.377 242.007,-21.423C240.759,-23.468 238.904,-24.49 236.443,-24.49C234.987,-24.49 233.739,-24.161 232.699,-23.503C231.659,-22.844 230.819,-21.943 230.177,-20.799L230.177,-7.098C230.819,-5.936 231.655,-5.039 232.686,-4.407C233.718,-3.774 234.987,-3.458 236.495,-3.458C238.922,-3.458 240.759,-4.342 242.007,-6.11C243.255,-7.878 243.879,-10.174 243.879,-12.999L243.879,-13.545Z" style="fill:#d5d9d9;fill-rule:nonzero;"/>
      <path d="M255.186,7.514L259.424,6.786L259.424,-24.101L255.186,-24.828L255.186,-28.13L263.817,-28.13L264.285,-24.698C265.221,-25.981 266.361,-26.96 267.704,-27.636C269.047,-28.312 270.603,-28.65 272.371,-28.65C275.855,-28.65 278.563,-27.268 280.495,-24.503C282.428,-21.739 283.394,-18.086 283.394,-13.545L283.394,-12.999C283.394,-8.943 282.423,-5.672 280.482,-3.185C278.541,-0.698 275.863,0.546 272.449,0.546C270.716,0.546 269.195,0.256 267.886,-0.325C266.577,-0.906 265.464,-1.768 264.545,-2.912L264.545,6.786L268.783,7.514L268.783,10.815L255.186,10.815L255.186,7.514ZM278.246,-13.545C278.246,-16.752 277.622,-19.377 276.374,-21.423C275.127,-23.468 273.272,-24.49 270.811,-24.49C269.355,-24.49 268.107,-24.161 267.067,-23.503C266.027,-22.844 265.187,-21.943 264.545,-20.799L264.545,-7.098C265.187,-5.936 266.023,-5.039 267.054,-4.407C268.085,-3.774 269.355,-3.458 270.863,-3.458C273.289,-3.458 275.127,-4.342 276.374,-6.11C277.622,-7.878 278.246,-10.174 278.246,-12.999L278.246,-13.545Z" style="fill:#d5d9d9;fill-rule:nonzero;"/>
    </g>
</svg>
