<?xml version="1.0" standalone="no"?>
<!DOCTYPE svg PUBLIC "-//W3C//DTD SVG 1.1//EN" "http://www.w3.org/Graphics/SVG/1.1/DTD/svg11.dtd">
<svg width="100%" height="100%" viewBox="0 0 73 79" version="1.1" xmlns="http://www.w3.org/2000/svg" xmlns:xlink="http://www.w3.org/1999/xlink" xml:space="preserve" style="fill-rule:evenodd;clip-rule:evenodd;stroke-miterlimit:10;">
    <g id="logo_homehapp" transform="matrix(1,0,0,1,0.61406,-0.0320111)">
        <g transform="matrix(1.06328,0,0,1.06328,0.377293,-0.302033)">
            <path d="M29.496,2.3C31.649,1.053 35.134,1.049 37.295,2.3L61.824,16.496C63.978,17.743 65.724,20.765 65.724,23.248L65.724,51.679C65.724,54.161 63.986,57.18 61.824,58.431L37.295,72.627C35.141,73.874 31.657,73.878 29.496,72.627L4.966,58.431C2.813,57.184 1.067,54.162 1.067,51.679L1.067,23.248C1.067,20.766 2.805,17.747 4.966,16.496L29.496,2.3Z" style="fill:white;stroke-width:1.06px;stroke:rgb(43,59,61);"/>
        </g>
        <g transform="matrix(1.06328,0,0,1.06328,0.377293,-0.302033)">
            <path d="M22.956,35.057L13.297,35.444L7.459,42.872L7.459,51.093C7.459,52.755 8.75,54.452 10.356,54.888L18.162,57.005L18.162,43.852L23.027,35.444L29.07,42.872" style="fill:none;stroke-width:1.06px;stroke:rgb(43,59,61);"/>
        </g>
        <g transform="matrix(1.06328,0,0,1.06328,0.377293,-0.302033)">
            <path d="M21.035,58.026L21.035,49.25L26.925,43.955L38.009,41.866L45.087,48.357L45.087,58.059L33.088,61.584L21.035,58.026Z" style="fill:none;stroke-width:1.06px;stroke:rgb(43,59,61);"/>
        </g>
        <g transform="matrix(1.06328,0,0,1.06328,0.377293,-0.302033)">
            <path d="M37.795,42.436L37.795,26.462L47.736,22.882L58.11,26.897L58.11,50.262C58.11,51.918 56.859,53.745 55.316,54.342L47.736,57.275L47.736,22.979" style="fill:none;stroke-width:1.06px;stroke:rgb(43,59,61);"/>
        </g>
        <g transform="matrix(1.06328,0,0,1.06328,0.377293,-0.302033)">
            <path d="M27.301,43.933L33.124,51.358L45.335,48.511" style="fill:none;stroke-width:1.06px;stroke:rgb(43,59,61);"/>
        </g>
        <g transform="matrix(1.06328,0,0,1.06328,0.377293,-0.302033)">
            <path d="M33.27,51.166L33.27,61.584" style="fill:none;stroke-width:1.06px;stroke:rgb(43,59,61);"/>
        </g>
        <g transform="matrix(1.06328,0,0,1.06328,0.377293,-0.302033)">
            <path d="M7.22,42.627L18.248,43.933" style="fill:none;stroke-width:1.06px;stroke:rgb(43,59,61);"/>
        </g>
    </g>
</svg>
