<?xml version="1.0" encoding="UTF-8" standalone="no"?>
<svg width="73px" height="79px" viewBox="0 0 73 79" version="1.1" xmlns="http://www.w3.org/2000/svg" xmlns:xlink="http://www.w3.org/1999/xlink" xmlns:sketch="http://www.bohemiancoding.com/sketch/ns">
    <!-- Generator: Sketch 3.3.2 (12043) - http://www.bohemiancoding.com/sketch -->
    <title>logo_homehapp</title>
    <desc>Created with Sketch.</desc>
    <defs></defs>
    <g id="Page-1" stroke="none" stroke-width="1" fill="none" fill-rule="evenodd" sketch:type="MSPage">
        <g id="Neighborhood" sketch:type="MSArtboardGroup" transform="translate(-32.000000, -33.000000)">
            <g id="homehapp-+-discover-your-city-+-Polygon-1-Copy-+-Imported-Layers-Copy-Copy-+-Imported-Layers-Copy-Copy-Copy-Copy" sketch:type="MSLayerGroup" transform="translate(32.365000, 31.920000)">
                <g id="logo_homehapp" transform="translate(0.543478, 0.710145)" sketch:type="MSShapeGroup">
                    <g id="Polygon-1-Copy-+-Imported-Layers-Copy-Copy" fill="#26C4C0">
                        <polygon id="Polygon-1-Copy" points="35.6778906 -1.3147428 71.2821173 19.2183596 71.2821173 60.2845643 35.6778906 80.8176666 0.0736639173 60.2845643 0.0736639173 19.2183596 "></polygon>
                    </g>
                    <g id="Imported-Layers" transform="translate(19.222222, 16.297101)" fill="#FFFFFF">
                        <path d="M31.9937566,24.6235798 L26.380933,19.0014109 L26.380933,11.2790269 C26.380933,10.8760223 26.0549909,10.5495376 25.6526562,10.5495376 L21.2829959,10.5495376 C20.8806612,10.5495376 20.5547192,10.8760223 20.5547192,11.2790269 L20.5547192,13.1654965 L16.6999454,9.30430447 C16.56855,9.17218019 16.3862262,9.09055901 16.1850589,9.09055901 C15.9844008,9.09055901 15.802077,9.17218019 15.6701723,9.30430447 L0.376361187,24.6235798 C0.244456522,24.755194 0.162971014,24.9373112 0.162971014,25.1393237 C0.162971014,25.5423283 0.488913043,25.868813 0.891247736,25.868813 C1.09241508,25.868813 1.2747389,25.7877019 1.40613428,25.6550675 L4.53263134,22.5233648 L4.53263134,38.4180695 C4.53263134,38.8210741 4.85857337,39.1475588 5.26090806,39.1475588 L27.1092097,39.1475588 C27.5115444,39.1475588 27.8374864,38.8210741 27.8374864,38.4180695 L27.8374864,22.5233648 L30.9639835,25.6550675 C31.0958881,25.7877019 31.2777027,25.868813 31.47887,25.868813 C31.8812047,25.868813 32.2071467,25.5423283 32.2071467,25.1393237 C32.2071467,24.9373112 32.1256612,24.755194 31.9937566,24.6235798 L31.9937566,24.6235798 Z M22.0112726,12.0085162 L24.9243795,12.0085162 L24.9243795,17.5419221 L22.0112726,14.6244751 L22.0112726,12.0085162 L22.0112726,12.0085162 Z M5.98918478,36.2296016 L11.8153986,36.2296016 L11.8153986,37.6885802 L5.98918478,37.6885802 L5.98918478,36.2296016 Z M13.271952,28.0572809 L19.0981658,28.0572809 L19.0981658,37.6885802 L13.271952,37.6885802 L13.271952,28.0572809 Z M20.5547192,36.2296016 L26.380933,36.2296016 L26.380933,37.6885802 L20.5547192,37.6885802 L20.5547192,36.2296016 Z M26.380933,34.770623 L20.5547192,34.770623 L20.5547192,27.3277916 C20.5547192,26.9252971 20.2287772,26.5983023 19.8264425,26.5983023 L12.5436753,26.5983023 C12.1413406,26.5983023 11.8153986,26.9252971 11.8153986,27.3277916 L11.8153986,34.770623 L5.98918478,34.770623 L5.98918478,21.0643862 L16.1850589,10.851536 L26.380933,21.0643862 L26.380933,34.770623 L26.380933,34.770623 Z M16.9133356,33.8217768 C17.3156703,33.8217768 17.6416123,33.4952921 17.6416123,33.0922875 C17.6416123,32.689793 17.3156703,32.3627982 16.9133356,32.3627982 C16.5110009,32.3627982 16.1850589,32.689793 16.1850589,33.0922875 C16.1850589,33.4952921 16.5110009,33.8217768 16.9133356,33.8217768 Z M23.5039853,8.88293513 C23.4642611,8.88293513 23.4245369,8.87885407 23.385322,8.87120208 C23.3109665,8.85895891 23.2386481,8.83345229 23.1729504,8.79468223 C22.4599522,8.48044068 18.5410086,6.58631915 18.6744411,3.07915904 C18.7538895,0.982514963 19.9262622,0.235681159 20.9962688,0.235681159 C21.9521957,0.235681159 22.8841861,0.789174791 23.499911,1.63956547 C24.1156359,0.789174791 25.0481356,0.235681159 26.0040625,0.235681159 C27.0740691,0.235681159 28.2464418,0.982514963 28.3258902,3.07915904 C28.4583041,6.57611651 24.5658433,8.46768737 23.8340016,8.79213156 C23.7331633,8.85181705 23.6190836,8.88293513 23.5039853,8.88293513 Z M20.9962688,1.51101211 C20.1360874,1.51101211 19.9690421,2.52362488 19.9466336,3.12762162 C19.8534346,5.5818685 22.6499153,7.12807974 23.499911,7.54077684 C24.3499067,7.12858987 27.1463875,5.5833989 27.0536977,3.12762162 C27.0307799,2.52362488 26.8637346,1.51101211 26.0040625,1.51101211 C25.3078707,1.51101211 24.3886123,2.18540711 24.117673,3.27453975 C24.0468825,3.55868348 23.7922403,3.75814524 23.499911,3.75814524 C23.2075817,3.75814524 22.9529395,3.55868348 22.882149,3.27453975 C22.6112097,2.18540711 21.6924606,1.51101211 20.9962688,1.51101211 L20.9962688,1.51101211 Z" id="Fill-1"></path>
                    </g>
                </g>
            </g>
        </g>
    </g>
</svg>