<?xml version="1.0" standalone="no"?>
<!DOCTYPE svg PUBLIC "-//W3C//DTD SVG 1.1//EN" "http://www.w3.org/Graphics/SVG/1.1/DTD/svg11.dtd">
<svg width="100%" height="100%" viewBox="0 0 297 53" version="1.1" xmlns="http://www.w3.org/2000/svg" xmlns:xlink="http://www.w3.org/1999/xlink" xml:space="preserve" style="fill-rule:evenodd;clip-rule:evenodd;stroke-linejoin:round;stroke-miterlimit:1.41421;">
    <g id="homehapp-logotype" transform="matrix(1,0,0,1,-1.20829,-0.296882)">
        <g transform="matrix(0.588592,0,0,0.588592,-78.2114,-18.5341)">
            <path d="M176.574,36.571L187.574,36.571L187.574,61.848C190.855,56.618 195.645,53.954 201.766,53.954C210.363,53.954 215.688,58.567 215.688,67.438L215.688,99.364L204.688,99.364L204.688,71.336C204.688,66.02 202.473,63.356 198.039,63.356C192.359,63.356 187.574,69.211 187.574,80.473L187.574,99.364L176.574,99.364L176.574,36.571Z" style="fill:white;fill-rule:nonzero;"/>
        </g>
        <g transform="matrix(0.588592,0,0,0.588592,-78.2114,-18.5341)">
            <path d="M237.441,77.012C237.441,80.825 238.418,84.11 240.457,86.77C242.496,89.34 245.156,90.676 248.617,90.676C252.078,90.676 254.738,89.34 256.777,86.77C258.816,84.11 259.793,80.825 259.793,77.012C259.793,73.2 258.816,69.918 256.777,67.352C254.738,64.684 252.078,63.356 248.617,63.356C245.156,63.356 242.496,64.684 240.457,67.352C238.418,69.918 237.441,73.2 237.441,77.012ZM225.914,77.012C225.914,70.36 227.953,64.864 232.031,60.52C236.113,56.172 241.613,53.954 248.617,53.954C255.625,53.954 261.121,56.172 265.203,60.52C269.281,64.864 271.32,70.36 271.32,77.012C271.32,83.664 269.281,89.254 265.203,93.602C261.121,97.946 255.625,100.079 248.617,100.079C241.613,100.079 236.113,97.946 232.031,93.602C227.953,89.254 225.914,83.664 225.914,77.012Z" style="fill:white;fill-rule:nonzero;"/>
        </g>
        <g transform="matrix(0.588592,0,0,0.588592,-78.2114,-18.5341)">
            <path d="M318.625,99.364L307.625,99.364L307.625,69.567C307.625,65.399 305.762,63.356 302.121,63.356C296.445,63.356 292.461,70.188 292.461,82.957L292.461,99.364L281.461,99.364L281.461,54.668L292.461,54.668L292.461,61.848C295.918,56.618 300.258,53.954 305.316,53.954C311.086,53.954 315.957,57.059 317.82,63.184C321.281,57.059 325.801,53.954 331.477,53.954C339.734,53.954 344.789,59.102 344.789,67.704L344.789,99.364L333.789,99.364L333.789,69.567C333.789,65.399 331.926,63.356 328.285,63.356C322.609,63.356 318.625,69.922 318.625,81.981L318.625,99.364Z" style="fill:white;fill-rule:nonzero;"/>
        </g>
        <g transform="matrix(0.588592,0,0,0.588592,-78.2114,-18.5341)">
            <path d="M366.113,71.872L385.359,71.872C384.117,66.196 380.922,63.356 375.773,63.356C370.547,63.356 366.906,67.168 366.113,71.872ZM396.617,80.567L365.844,80.567C366.113,85.973 370.012,90.676 376.398,90.676C380.922,90.676 384.555,88.364 387.223,83.758L396.09,87.036C392.277,95.731 385.531,100.079 375.773,100.079C360.438,100.079 354.312,87.657 354.312,77.012C354.312,66.375 360.438,53.954 375.773,53.954C382.875,53.954 388.637,56.887 391.828,61.407C395.02,65.754 396.617,70.981 396.617,76.036L396.617,80.567Z" style="fill:white;fill-rule:nonzero;"/>
        </g>
        <g transform="matrix(0.588592,0,0,0.588592,-78.2114,-18.5341)">
            <path d="M406.496,36.571L417.492,36.571L417.492,61.848C420.773,56.618 425.562,53.954 431.684,53.954C440.285,53.954 445.609,58.567 445.609,67.438L445.609,99.364L434.609,99.364L434.609,71.336C434.609,66.02 432.395,63.356 427.957,63.356C422.281,63.356 417.492,69.211 417.492,80.473L417.492,99.364L406.496,99.364L406.496,36.571Z" style="fill:white;fill-rule:nonzero;"/>
        </g>
        <g transform="matrix(0.588592,0,0,0.588592,-78.2114,-18.5341)">
            <path d="M470.91,90.676C473.656,90.676 476.055,89.786 478.09,88.106C480.223,86.414 481.289,84.196 481.289,81.446L481.289,80.567L473.922,80.567C468.867,80.567 466.297,82.516 466.297,86.329C466.297,88.727 467.98,90.676 470.91,90.676ZM456.453,66.375C457.871,58.922 464.52,53.954 473.484,53.954C485.984,53.954 492.281,60.164 492.281,72.672L492.281,99.364L483.238,99.364L482.086,93.688C478.625,97.946 474.012,100.079 468.336,100.079C460.441,100.079 454.766,95.11 454.766,86.5C454.766,77.633 462.484,71.872 473.836,71.872L481.289,71.872L481.289,69.922C481.289,65.575 478.711,63.356 473.484,63.356C469.488,63.356 466.918,65.039 465.762,68.496L456.453,66.375Z" style="fill:white;fill-rule:nonzero;"/>
        </g>
        <g transform="matrix(0.588592,0,0,0.588592,-78.2114,-18.5341)">
            <path d="M533.82,77.012C533.82,72.758 532.836,69.387 530.887,66.996C528.938,64.598 526.453,63.356 523.44,63.356C520.422,63.356 517.938,64.598 515.987,66.996C514.125,69.387 513.151,72.672 513.151,77.012C513.151,81.36 514.125,84.731 515.987,87.122C517.938,89.52 520.422,90.676 523.44,90.676C526.453,90.676 528.938,89.434 530.887,87.036C532.836,84.645 533.82,81.274 533.82,77.012ZM514.125,95.282L514.125,117.461L503.129,117.461L503.129,54.668L514.125,54.668L514.125,59.278C515.547,56.704 519.891,53.954 524.945,53.954C538.07,53.954 545.344,62.914 545.344,77.012C545.344,91.118 538.07,100.079 524.945,100.079C520.602,100.079 516.168,97.852 514.125,95.282Z" style="fill:white;fill-rule:nonzero;"/>
        </g>
        <g transform="matrix(0.588592,0,0,0.588592,-78.2114,-18.5341)">
            <path d="M586.348,77.012C586.348,72.758 585.375,69.387 583.426,66.996C581.473,64.598 578.988,63.356 575.973,63.356C572.961,63.356 570.477,64.598 568.527,66.996C566.664,69.387 565.688,72.672 565.688,77.012C565.688,81.36 566.664,84.731 568.527,87.122C570.477,89.52 572.961,90.676 575.973,90.676C578.988,90.676 581.473,89.434 583.426,87.036C585.375,84.645 586.348,81.274 586.348,77.012ZM566.664,95.282L566.664,117.461L555.664,117.461L555.664,54.668L566.664,54.668L566.664,59.278C568.078,56.704 572.426,53.954 577.48,53.954C590.609,53.954 597.883,62.914 597.883,77.012C597.883,91.118 590.609,100.079 577.48,100.079C573.133,100.079 568.699,97.852 566.664,95.282Z" style="fill:white;fill-rule:nonzero;"/>
        </g>
    </g>
</svg>
