<?xml version="1.0" standalone="no"?>
<!DOCTYPE svg PUBLIC "-//W3C//DTD SVG 1.1//EN" "http://www.w3.org/Graphics/SVG/1.1/DTD/svg11.dtd">
<svg width="100%" height="100%" viewBox="0 0 73 79" version="1.1" xmlns="http://www.w3.org/2000/svg" xmlns:xlink="http://www.w3.org/1999/xlink" xml:space="preserve" style="fill-rule:evenodd;clip-rule:evenodd;stroke-linejoin:round;stroke-miterlimit:1.41421;">
    <g id="logo_homehapp" transform="matrix(1,0,0,1,0.607541,2.62344)">
        <g transform="matrix(0.521654,0,0,0.521654,-0.52592,1.42097)">
            <path d="M25.605,77.512L5.586,75.711L16.43,60.868L36.332,60.868L25.605,77.512ZM39.762,56.039L15.914,56.575C15.062,56.594 14.27,57.008 13.773,57.7L0.957,75.504C0.34,76.364 0.008,77.391 0.008,78.45L0.008,111.801C0.008,113.215 -0.133,114.629 0.895,115.016C1.925,115.399 25.066,122.727 26.609,123.114C28.152,123.5 29.121,123.243 29.121,121.184L29.121,81.204C29.121,80.196 29.406,79.207 29.953,78.356L40.492,61.829L53.727,76.133C54.227,76.676 54.508,77.387 54.508,78.125L54.508,83.387L58.234,82.746L58.234,76.043C58.234,75.309 57.965,74.602 57.473,74.055L42.27,57.125C41.633,56.414 40.715,56.016 39.762,56.039Z" style="fill:rgb(255,255,255);fill-rule:nonzero;"/>
        </g>
        <g transform="matrix(0.521654,0,0,0.521654,-0.52592,1.42097)">
            <path d="M99.84,114.836L63.855,130.582L63.855,108.465L99.84,95.719L99.84,114.836ZM52.859,87.973L85.848,79.227L98.34,92.098L62.98,104.34L52.859,87.973ZM103.406,114.227L103.406,93.895C103.406,93.122 103.125,92.379 102.609,91.805C99.621,88.481 89.246,76.965 88.516,76.477C87.664,75.911 85.766,75.625 84.531,75.813C83.438,75.985 56.141,82.907 50.129,84.434C49.371,84.625 48.691,85.047 48.176,85.637L34.625,101.231C34.199,101.719 33.965,102.344 33.965,102.993L33.965,123.266C33.965,124.661 34.168,125.418 35.781,126.082C37.395,126.746 57.027,133.766 59.113,134.524C61.199,135.286 62.625,135.094 64.898,134.239C67.176,133.387 100.754,118.782 102.176,118.02C103.598,117.262 103.406,116.028 103.406,114.227Z" style="fill:rgb(255,255,255);fill-rule:nonzero;"/>
        </g>
        <g transform="matrix(0.521654,0,0,0.521654,-0.52592,1.42097)">
            <path d="M77.938,77.418L77.938,17.321C77.938,15.758 77.891,15.297 79.797,14.379C81.707,13.465 104.371,2.551 106.203,1.711C108.031,0.875 109.484,0.493 111.773,1.711C114.062,2.934 136.113,13.922 137.793,14.762C139.473,15.602 139.625,16.899 139.625,18.196L139.625,98.321C139.625,99.844 139.168,100.836 137.641,101.676C136.113,102.516 112.992,113.961 111.312,114.571C109.633,115.184 107.5,115.563 107.5,111.672L107.5,5.793L81.781,18.153L81.844,76.45L77.938,77.418Z" style="fill:rgb(255,255,255);fill-rule:nonzero;"/>
        </g>
    </g>
</svg>
