<?xml version="1.0" standalone="no"?>
<!DOCTYPE svg PUBLIC "-//W3C//DTD SVG 1.1//EN" "http://www.w3.org/Graphics/SVG/1.1/DTD/svg11.dtd">
<svg width="100%" height="100%" viewBox="0 0 230 69" version="1.1" xmlns="http://www.w3.org/2000/svg" xmlns:xlink="http://www.w3.org/1999/xlink" xml:space="preserve" style="fill-rule:evenodd;clip-rule:evenodd;stroke-linecap:round;stroke-linejoin:round;stroke-miterlimit:1.41421;">
    <g id="Layer1" transform="matrix(1,0,0,1,0,4.5)">
        <g transform="matrix(0.951028,0,0,0.951028,5.57433,2.58033)">
            <circle cx="29.153" cy="29.287" r="26.437" style="fill:none;stroke-width:2.63px;stroke:black;"/>
        </g>
        <g transform="matrix(1,0,0,1,-0.968229,0.803385)">
            <path d="M72.382,39.321C77.516,39.321 81.549,35.155 81.549,30.055C81.549,25.121 77.416,21.055 72.449,21.055C67.349,21.055 63.216,25.121 63.216,30.221C63.216,35.221 67.316,39.321 72.382,39.321ZM72.382,37.155C68.482,37.155 65.416,33.955 65.416,30.155C65.416,26.321 68.549,23.221 72.416,23.221C76.282,23.221 79.349,26.388 79.349,30.188C79.349,34.021 76.249,37.155 72.382,37.155Z" style="fill:black;fill-rule:nonzero;"/>
            <path d="M87.782,21.355L82.649,21.355L82.649,23.421L85.582,23.421L85.582,36.788L82.649,36.788L82.649,38.855L90.716,38.855L90.716,36.788L87.782,36.788L87.782,29.155C87.782,27.521 87.949,26.121 89.049,24.821C89.949,23.755 91.049,23.188 92.716,23.188C94.049,23.188 95.549,23.521 96.449,24.855C96.949,25.588 97.516,27.321 97.516,29.388L97.516,36.788L94.582,36.788L94.582,38.855L102.649,38.855L102.649,36.788L99.716,36.788L99.716,28.921C99.716,27.288 99.816,26.121 100.949,24.821C101.882,23.755 103.382,23.188 104.649,23.188C106.016,23.188 107.382,23.721 108.382,24.855C109.216,25.788 109.449,27.855 109.449,29.455L109.449,36.788L106.516,36.788L106.516,38.855L114.582,38.855L114.582,36.788L111.649,36.788L111.649,28.955C111.649,27.055 111.582,26.088 111.149,25.055C110.116,22.555 108.316,21.055 104.949,21.055C102.449,21.055 99.982,22.621 99.016,25.055L98.649,24.388C97.482,22.255 95.582,21.055 93.116,21.055C90.682,21.055 88.782,22.321 87.782,24.388L87.782,21.355Z" style="fill:black;fill-rule:nonzero;"/>
            <path d="M130.349,33.955C129.082,36.155 126.816,37.355 124.282,37.355C120.682,37.355 117.616,34.521 117.416,30.921L133.416,30.921L133.416,30.255C133.416,25.088 129.416,21.055 124.216,21.055C119.149,21.055 115.216,25.321 115.216,30.288C115.216,35.288 119.316,39.321 124.349,39.321C127.949,39.321 131.216,37.221 132.682,33.955L130.349,33.955ZM117.416,29.121C117.816,25.821 120.816,23.055 124.182,23.055C127.749,23.055 130.849,25.555 131.349,29.121L117.416,29.121Z" style="fill:black;fill-rule:nonzero;"/>
            <path d="M139.749,15.055L134.616,15.055L134.616,17.121L137.549,17.121L137.549,36.788L134.616,36.788L134.616,38.855L142.682,38.855L142.682,36.788L139.749,36.788L139.749,29.821C139.749,27.921 139.782,26.455 141.116,24.921C142.116,23.788 143.549,23.188 145.082,23.188C146.849,23.188 148.549,24.121 149.449,25.688C150.316,27.121 150.216,28.788 150.216,30.421L150.216,36.788L147.282,36.788L147.282,38.855L155.349,38.855L155.349,36.788L152.416,36.788L152.416,29.521C152.416,27.288 152.316,25.321 150.782,23.521C149.416,21.921 147.649,21.055 145.549,21.055C143.016,21.055 140.916,22.421 139.749,24.621L139.749,15.055Z" style="fill:black;fill-rule:nonzero;"/>
            <path d="M172.116,38.855L177.216,38.855L177.216,36.788L174.316,36.788L174.316,23.421L177.216,23.421L177.216,21.355L172.116,21.355L172.116,25.188C170.516,22.521 168.116,21.055 164.949,21.055C161.782,21.055 158.816,22.655 157.382,25.188C156.649,26.488 155.916,27.655 155.916,30.188C155.849,32.121 156.449,33.788 157.316,35.221C158.849,37.755 161.782,39.321 164.982,39.321C168.016,39.321 170.582,37.855 172.116,35.221L172.116,38.855ZM165.182,23.221C169.016,23.221 172.149,26.321 172.149,30.155C172.149,34.055 169.049,37.188 165.082,37.188C161.249,37.188 158.116,33.988 158.116,30.221C158.116,26.355 161.316,23.221 165.182,23.221Z" style="fill:black;fill-rule:nonzero;"/>
            <path d="M183.082,21.355L177.949,21.355L177.949,23.421L180.882,23.421L180.882,43.288L177.949,43.288L177.949,45.355L186.016,45.355L186.016,43.288L183.082,43.288L183.082,35.155C184.482,37.788 187.349,39.321 190.316,39.321C195.316,39.321 199.282,35.221 199.282,30.188C199.282,27.988 198.516,26.421 197.849,25.255C196.182,22.321 193.116,21.055 190.316,21.055C187.182,21.055 184.616,22.521 183.082,25.255L183.082,21.355ZM190.049,37.255C186.149,37.255 183.049,34.055 183.049,30.155C183.049,25.855 186.382,23.321 190.182,23.121C193.816,22.921 197.082,25.855 197.082,30.188C197.082,34.055 193.882,37.255 190.049,37.255Z" style="fill:black;fill-rule:nonzero;"/>
            <path d="M205.082,21.355L199.949,21.355L199.949,23.421L202.882,23.421L202.882,43.288L199.949,43.288L199.949,45.355L208.016,45.355L208.016,43.288L205.082,43.288L205.082,35.155C206.482,37.788 209.349,39.321 212.316,39.321C217.316,39.321 221.282,35.221 221.282,30.188C221.282,27.988 220.516,26.421 219.849,25.255C218.182,22.321 215.116,21.055 212.316,21.055C209.182,21.055 206.616,22.521 205.082,25.255L205.082,21.355ZM212.049,37.255C208.149,37.255 205.049,34.055 205.049,30.155C205.049,25.855 208.382,23.321 212.182,23.121C215.816,22.921 219.082,25.855 219.082,30.188C219.082,34.055 215.882,37.255 212.049,37.255Z" style="fill:black;fill-rule:nonzero;"/>
        </g>
        <g transform="matrix(1.27377,0,0,1.20894,-63.1013,34.8369)">
            <path d="M81.404,-4.167L69.57,-4.167L69.57,-12.8L72.637,-12.8L72.637,-15L64.137,-15L64.137,-12.8L67.17,-12.8L67.17,6.6L64.137,6.6L64.137,8.8L72.637,8.8L72.637,6.6L69.57,6.6L69.57,-2.3L81.404,-2.3L81.404,6.6L78.37,6.6L78.37,8.8L86.837,8.8L86.837,6.6L83.804,6.6L83.804,-12.8L86.837,-12.8L86.837,-15L78.37,-15L78.37,-12.8L81.404,-12.8L81.404,-4.167Z" style="fill:black;fill-rule:nonzero;"/>
        </g>
    </g>
</svg>
