<?xml version="1.0" standalone="no"?>
<!DOCTYPE svg PUBLIC "-//W3C//DTD SVG 1.1//EN" "http://www.w3.org/Graphics/SVG/1.1/DTD/svg11.dtd">
<svg width="100%" height="100%" viewBox="0 0 257 112" version="1.1" xmlns="http://www.w3.org/2000/svg" xmlns:xlink="http://www.w3.org/1999/xlink" xml:space="preserve" style="fill-rule:evenodd;clip-rule:evenodd;stroke-linejoin:round;stroke-miterlimit:1.41421;">
    <g id="Homehapp-front-minimal" transform="matrix(1,0,0,1,-612.08,-622)">
        <g>
            <g transform="matrix(1,0,0,1,622.592,684)">
                <path d="M17.057,-11.651C18.365,-5.485 20.26,-2.402 22.742,-2.402C23.703,-2.402 24.624,-2.756 25.505,-3.463C26.386,-4.171 27.207,-5.038 27.967,-6.066C28.728,-7.094 29.402,-8.181 29.989,-9.329C30.576,-10.477 31.057,-11.478 31.431,-12.332C31.698,-12.973 32.165,-13.293 32.832,-13.293C33.259,-13.293 33.619,-13.133 33.913,-12.813C34.207,-12.492 34.354,-12.145 34.354,-11.771C34.354,-11.558 34.313,-11.371 34.233,-11.211C34.047,-10.757 33.773,-10.15 33.413,-9.389C33.052,-8.628 32.612,-7.814 32.091,-6.947C31.571,-6.079 30.99,-5.192 30.35,-4.284C29.709,-3.377 29.002,-2.563 28.228,-1.842C27.453,-1.121 26.633,-0.527 25.765,-0.06C24.898,0.407 23.983,0.641 23.022,0.641C21.234,0.641 19.699,0.02 18.418,-1.221C17.137,-2.462 16.029,-4.511 15.095,-7.367C13.813,-4.645 12.519,-2.669 11.211,-1.441C9.903,-0.214 8.488,0.4 6.967,0.4C6.166,0.4 5.392,0.274 4.645,0.02C3.897,-0.234 3.243,-0.654 2.683,-1.241C2.122,-1.828 1.668,-2.583 1.321,-3.503C0.974,-4.424 0.801,-5.552 0.801,-6.887C0.801,-8.729 1.121,-10.424 1.762,-11.972C2.402,-13.52 3.23,-14.848 4.244,-15.956C5.258,-17.063 6.386,-17.924 7.627,-18.538C8.869,-19.152 10.103,-19.459 11.331,-19.459C11.731,-19.459 12.078,-19.319 12.372,-19.039C12.666,-18.758 12.813,-18.405 12.813,-17.978C12.813,-17.604 12.692,-17.27 12.452,-16.977C12.212,-16.683 11.892,-16.509 11.491,-16.456C10.69,-16.349 9.836,-16.096 8.929,-15.695C8.021,-15.295 7.187,-14.714 6.426,-13.954C5.666,-13.193 5.038,-12.225 4.544,-11.051C4.051,-9.876 3.804,-8.475 3.804,-6.847C3.804,-5.512 4.077,-4.471 4.625,-3.724C5.172,-2.976 5.966,-2.603 7.007,-2.603C7.434,-2.603 7.888,-2.716 8.368,-2.943C8.849,-3.17 9.362,-3.617 9.91,-4.284C10.457,-4.951 11.057,-5.899 11.711,-7.127C12.365,-8.355 13.093,-9.97 13.894,-11.972C13.44,-14.321 13.026,-17.03 12.652,-20.1C12.279,-23.169 12.092,-26.599 12.092,-30.39C12.092,-32.045 12.145,-33.773 12.252,-35.575C12.359,-37.376 12.532,-39.138 12.772,-40.86C13.013,-42.582 13.333,-44.216 13.733,-45.765C14.134,-47.313 14.621,-48.674 15.195,-49.849C15.769,-51.023 16.443,-51.951 17.217,-52.631C17.991,-53.312 18.872,-53.652 19.859,-53.652C20.74,-53.652 21.488,-53.412 22.102,-52.932C22.715,-52.451 23.216,-51.784 23.603,-50.93C23.99,-50.076 24.277,-49.048 24.464,-47.847C24.651,-46.646 24.744,-45.324 24.744,-43.883C24.744,-40.786 24.477,-37.69 23.943,-34.594C23.41,-31.497 22.749,-28.535 21.961,-25.705C21.174,-22.876 20.34,-20.26 19.459,-17.857C18.578,-15.455 17.777,-13.386 17.057,-11.651ZM21.741,-43.923C21.741,-44.59 21.721,-45.311 21.681,-46.085C21.641,-46.859 21.548,-47.586 21.401,-48.267C21.254,-48.948 21.061,-49.515 20.82,-49.969C20.58,-50.423 20.26,-50.649 19.859,-50.649C19.192,-50.649 18.571,-50.062 17.998,-48.888C17.424,-47.713 16.923,-46.172 16.496,-44.263C16.069,-42.355 15.729,-40.193 15.475,-37.777C15.222,-35.361 15.095,-32.925 15.095,-30.47C15.095,-28.121 15.188,-25.772 15.375,-23.423C15.562,-21.074 15.775,-18.979 16.016,-17.137C16.79,-19.192 17.524,-21.307 18.218,-23.483C18.912,-25.658 19.519,-27.881 20.04,-30.149C20.56,-32.418 20.974,-34.707 21.281,-37.016C21.588,-39.325 21.741,-41.627 21.741,-43.923Z" style="fill:rgb(167,245,243);fill-rule:nonzero;"/>
            </g>
            <g transform="matrix(1,0,0,1,622.592,684)">
                <path d="M37.997,-31.431C37.997,-30.416 37.643,-29.556 36.936,-28.848C36.229,-28.141 35.368,-27.787 34.354,-27.787C33.339,-27.787 32.478,-28.141 31.771,-28.848C31.064,-29.556 30.71,-30.416 30.71,-31.431C30.71,-31.938 30.803,-32.412 30.99,-32.852C31.177,-33.292 31.437,-33.68 31.771,-34.013C32.105,-34.347 32.492,-34.607 32.932,-34.794C33.373,-34.981 33.846,-35.074 34.354,-35.074C34.861,-35.074 35.334,-34.981 35.775,-34.794C36.215,-34.607 36.602,-34.347 36.936,-34.013C37.27,-33.68 37.53,-33.292 37.717,-32.852C37.904,-32.412 37.997,-31.938 37.997,-31.431ZM31.511,-7.968C31.511,-11.812 31.751,-15.642 32.231,-19.459C32.285,-19.833 32.452,-20.16 32.732,-20.44C33.012,-20.72 33.379,-20.86 33.833,-20.86C34.233,-20.86 34.567,-20.707 34.834,-20.4C35.101,-20.093 35.234,-19.739 35.234,-19.339C35.234,-19.179 35.201,-18.698 35.134,-17.897C35.068,-17.097 34.987,-16.142 34.894,-15.035C34.801,-13.927 34.721,-12.752 34.654,-11.511C34.587,-10.27 34.554,-9.129 34.554,-8.088C34.554,-6.673 34.694,-5.532 34.974,-4.665C35.254,-3.797 35.615,-3.123 36.055,-2.643C36.496,-2.162 36.963,-1.842 37.457,-1.682C37.95,-1.521 38.424,-1.441 38.878,-1.441C39.625,-1.441 40.399,-1.708 41.2,-2.242C42.001,-2.776 42.822,-3.523 43.663,-4.484C44.503,-5.445 45.351,-6.6 46.205,-7.948C47.059,-9.296 47.9,-10.797 48.728,-12.452C48.861,-12.719 49.048,-12.926 49.288,-13.073C49.528,-13.22 49.795,-13.293 50.089,-13.293C50.516,-13.293 50.87,-13.133 51.15,-12.813C51.43,-12.492 51.57,-12.145 51.57,-11.771C51.57,-11.505 51.517,-11.278 51.41,-11.091C51.09,-10.477 50.689,-9.729 50.209,-8.849C49.729,-7.968 49.181,-7.06 48.567,-6.126C47.953,-5.192 47.279,-4.264 46.545,-3.343C45.811,-2.422 45.031,-1.595 44.203,-0.861C43.376,-0.127 42.508,0.467 41.601,0.921C40.693,1.375 39.772,1.602 38.838,1.602C37.637,1.602 36.582,1.348 35.675,0.841C34.767,0.334 34,-0.347 33.373,-1.201C32.745,-2.055 32.278,-3.063 31.971,-4.224C31.664,-5.385 31.511,-6.633 31.511,-7.968ZM35.755,-31.431C35.755,-31.804 35.615,-32.131 35.334,-32.412C35.054,-32.692 34.727,-32.832 34.354,-32.832C33.98,-32.832 33.66,-32.692 33.393,-32.412C33.126,-32.131 32.992,-31.804 32.992,-31.431C32.992,-31.057 33.126,-30.737 33.393,-30.47C33.66,-30.203 33.98,-30.069 34.354,-30.069C34.727,-30.069 35.054,-30.203 35.334,-30.47C35.615,-30.737 35.755,-31.057 35.755,-31.431Z" style="fill:rgb(167,245,243);fill-rule:nonzero;"/>
            </g>
            <g transform="matrix(1,0,0,1,622.592,684)">
                <path d="M53.132,-14.814C52.972,-14.387 52.778,-13.907 52.551,-13.373C52.324,-12.839 52.064,-12.279 51.771,-11.691C51.53,-11.238 51.283,-10.884 51.03,-10.63C50.776,-10.377 50.449,-10.25 50.049,-10.25C49.595,-10.25 49.235,-10.39 48.968,-10.67C48.701,-10.951 48.567,-11.278 48.567,-11.651C48.567,-11.785 48.581,-11.898 48.607,-11.992C48.634,-12.085 48.701,-12.239 48.808,-12.452C49.502,-13.787 50.015,-14.955 50.349,-15.956C50.683,-16.957 50.956,-18.004 51.17,-19.099C50.983,-19.713 50.85,-20.233 50.77,-20.66C50.689,-21.087 50.649,-21.528 50.649,-21.981C50.649,-22.862 50.836,-23.576 51.21,-24.124C51.584,-24.671 52.104,-24.944 52.771,-24.944C53.385,-24.944 53.873,-24.677 54.233,-24.144C54.593,-23.61 54.773,-22.956 54.773,-22.182C54.773,-21.755 54.733,-21.327 54.653,-20.9C54.573,-20.473 54.466,-19.939 54.333,-19.299C54.947,-17.777 55.561,-16.429 56.175,-15.255C56.789,-14.08 57.336,-13.006 57.816,-12.032C58.297,-11.057 58.691,-10.143 58.998,-9.289C59.305,-8.435 59.458,-7.581 59.458,-6.727C59.458,-5.605 59.231,-4.538 58.777,-3.523C58.324,-2.509 57.576,-1.655 56.535,-0.961C56.669,-0.934 56.802,-0.921 56.936,-0.921C57.069,-0.921 57.202,-0.921 57.336,-0.921C58.857,-0.921 60.259,-1.268 61.54,-1.962C62.821,-2.656 63.976,-3.557 65.003,-4.665C66.031,-5.772 66.945,-7 67.746,-8.348C68.547,-9.696 69.241,-11.037 69.828,-12.372C70.095,-12.986 70.469,-13.293 70.949,-13.293C71.403,-13.293 71.757,-13.133 72.01,-12.813C72.264,-12.492 72.391,-12.145 72.391,-11.771C72.391,-11.558 72.351,-11.358 72.271,-11.171C71.977,-10.45 71.597,-9.629 71.129,-8.708C70.662,-7.788 70.102,-6.84 69.448,-5.866C68.794,-4.891 68.04,-3.937 67.186,-3.003C66.331,-2.069 65.377,-1.235 64.323,-0.5C63.268,0.234 62.114,0.821 60.859,1.261C59.605,1.702 58.23,1.922 56.735,1.922C54.947,1.922 53.285,1.608 51.75,0.981C50.216,0.354 48.968,-0.681 48.007,-2.122C47.847,-2.362 47.767,-2.616 47.767,-2.883C47.767,-3.283 47.92,-3.637 48.227,-3.944C48.534,-4.251 48.888,-4.404 49.288,-4.404C49.715,-4.404 50.076,-4.257 50.369,-3.964C50.396,-3.91 50.489,-3.824 50.649,-3.704C50.81,-3.583 51.003,-3.45 51.23,-3.303C51.457,-3.156 51.724,-3.03 52.031,-2.923C52.338,-2.816 52.651,-2.763 52.972,-2.763C53.612,-2.763 54.153,-2.896 54.593,-3.163C55.034,-3.43 55.387,-3.757 55.654,-4.144C55.921,-4.531 56.115,-4.945 56.235,-5.385C56.355,-5.826 56.415,-6.206 56.415,-6.526C56.415,-7.194 56.308,-7.861 56.095,-8.528C55.881,-9.196 55.608,-9.863 55.274,-10.53C54.94,-11.198 54.58,-11.885 54.193,-12.592C53.806,-13.3 53.452,-14.04 53.132,-14.814Z" style="fill:rgb(167,245,243);fill-rule:nonzero;"/>
            </g>
            <g transform="matrix(1,0,0,1,622.592,684)">
                <path d="M95.693,-11.091C95.533,-10.797 95.26,-10.263 94.873,-9.489C94.486,-8.715 93.965,-7.841 93.311,-6.867C92.657,-5.892 91.876,-4.885 90.969,-3.844C90.061,-2.803 89.02,-1.848 87.846,-0.981C86.671,-0.113 85.357,0.601 83.902,1.161C82.447,1.722 80.866,2.002 79.157,2.002C77.636,2.002 76.288,1.728 75.113,1.181C73.939,0.634 72.938,-0.14 72.11,-1.141C71.283,-2.142 70.656,-3.323 70.229,-4.685C69.801,-6.046 69.588,-7.554 69.588,-9.209C69.588,-10.811 69.815,-12.312 70.269,-13.713C70.722,-15.115 71.343,-16.336 72.13,-17.377C72.918,-18.418 73.832,-19.239 74.873,-19.839C75.914,-20.44 77.022,-20.74 78.196,-20.74C79.077,-20.74 79.878,-20.587 80.599,-20.28C81.319,-19.973 81.927,-19.566 82.42,-19.059C82.914,-18.551 83.301,-17.991 83.582,-17.377C83.862,-16.763 84.002,-16.149 84.002,-15.535C84.002,-14.948 83.929,-14.401 83.782,-13.894C83.635,-13.386 83.448,-12.939 83.221,-12.552C82.994,-12.165 82.734,-11.858 82.44,-11.631C82.147,-11.404 81.853,-11.291 81.56,-11.291C81.106,-11.291 80.739,-11.438 80.458,-11.731C80.178,-12.025 80.038,-12.385 80.038,-12.813C80.038,-13.026 80.085,-13.213 80.178,-13.373C80.272,-13.533 80.378,-13.7 80.499,-13.874C80.619,-14.047 80.725,-14.261 80.819,-14.514C80.912,-14.768 80.959,-15.095 80.959,-15.495C80.959,-16.056 80.699,-16.563 80.178,-17.017C79.658,-17.47 78.997,-17.697 78.196,-17.697C77.449,-17.697 76.735,-17.47 76.054,-17.017C75.374,-16.563 74.78,-15.956 74.272,-15.195C73.765,-14.434 73.358,-13.54 73.051,-12.512C72.744,-11.485 72.591,-10.397 72.591,-9.249C72.591,-8.155 72.724,-7.114 72.991,-6.126C73.258,-5.138 73.659,-4.264 74.192,-3.503C74.726,-2.743 75.4,-2.135 76.214,-1.682C77.028,-1.228 77.996,-1.001 79.117,-1.001C80.559,-1.001 81.893,-1.261 83.121,-1.782C84.349,-2.302 85.47,-2.963 86.484,-3.764C87.499,-4.564 88.393,-5.439 89.167,-6.386C89.941,-7.334 90.602,-8.228 91.149,-9.069C91.696,-9.91 92.123,-10.644 92.43,-11.271C92.737,-11.898 92.917,-12.292 92.971,-12.452C93.077,-12.719 93.258,-12.926 93.511,-13.073C93.765,-13.22 94.038,-13.293 94.332,-13.293C94.786,-13.293 95.153,-13.133 95.433,-12.813C95.713,-12.492 95.854,-12.132 95.854,-11.731C95.854,-11.571 95.8,-11.358 95.693,-11.091Z" style="fill:rgb(167,245,243);fill-rule:nonzero;"/>
            </g>
            <g transform="matrix(1,0,0,1,622.592,684)">
                <path d="M111.429,-4.404C110.761,-4.404 110.174,-4.458 109.667,-4.564C109.267,-3.764 108.786,-3.023 108.226,-2.342C107.665,-1.662 107.018,-1.068 106.284,-0.561C105.55,-0.053 104.729,0.347 103.821,0.641C102.914,0.934 101.926,1.081 100.858,1.081C99.604,1.081 98.456,0.861 97.415,0.42C96.374,-0.02 95.466,-0.634 94.692,-1.421C93.918,-2.209 93.318,-3.156 92.891,-4.264C92.464,-5.372 92.25,-6.593 92.25,-7.928C92.25,-9.636 92.557,-11.124 93.171,-12.392C93.785,-13.66 94.492,-14.714 95.293,-15.555C96.094,-16.396 96.895,-17.023 97.695,-17.437C98.496,-17.851 99.097,-18.058 99.497,-18.058C99.951,-18.058 100.291,-17.938 100.518,-17.697C100.745,-17.457 100.858,-17.137 100.858,-16.736C100.858,-16.283 100.718,-15.942 100.438,-15.715C100.158,-15.488 99.804,-15.268 99.377,-15.055C98.95,-14.841 98.496,-14.541 98.016,-14.154C97.535,-13.767 97.088,-13.28 96.674,-12.692C96.261,-12.105 95.92,-11.411 95.653,-10.61C95.386,-9.81 95.253,-8.915 95.253,-7.928C95.253,-7.047 95.386,-6.226 95.653,-5.465C95.92,-4.705 96.307,-4.051 96.814,-3.503C97.322,-2.956 97.922,-2.529 98.616,-2.222C99.31,-1.915 100.084,-1.762 100.938,-1.762C102.46,-1.762 103.721,-2.115 104.722,-2.823C105.723,-3.53 106.491,-4.431 107.024,-5.525C105.45,-6.353 104.155,-7.527 103.141,-9.049C102.126,-10.57 101.619,-12.279 101.619,-14.174C101.619,-15.695 101.986,-16.937 102.72,-17.897C103.454,-18.858 104.422,-19.339 105.623,-19.339C106.344,-19.339 107.024,-19.165 107.665,-18.818C108.306,-18.471 108.873,-17.924 109.367,-17.177C109.861,-16.429 110.254,-15.468 110.548,-14.294C110.841,-13.119 110.988,-11.718 110.988,-10.09C110.988,-9.236 110.882,-8.341 110.668,-7.407C110.828,-7.381 110.988,-7.367 111.148,-7.367C111.309,-7.367 111.482,-7.367 111.669,-7.367C112.576,-7.367 113.391,-7.474 114.111,-7.688C114.832,-7.901 115.486,-8.221 116.073,-8.648C116.66,-9.076 117.188,-9.623 117.655,-10.29C118.122,-10.957 118.569,-11.731 118.996,-12.612C119.076,-12.772 119.25,-12.926 119.517,-13.073C119.784,-13.22 120.05,-13.293 120.317,-13.293C120.664,-13.293 120.991,-13.153 121.298,-12.873C121.605,-12.592 121.759,-12.225 121.759,-11.771C121.759,-11.558 121.705,-11.324 121.599,-11.071C121.492,-10.817 121.385,-10.584 121.278,-10.37C120.825,-9.569 120.297,-8.802 119.697,-8.068C119.096,-7.334 118.389,-6.693 117.575,-6.146C116.761,-5.599 115.846,-5.165 114.832,-4.845C113.818,-4.524 112.683,-4.378 111.429,-4.404ZM104.582,-14.494C104.582,-13.987 104.649,-13.453 104.782,-12.893C104.916,-12.332 105.123,-11.778 105.403,-11.231C105.683,-10.684 106.03,-10.163 106.444,-9.669C106.858,-9.176 107.345,-8.755 107.905,-8.408C107.985,-8.969 108.025,-9.516 108.025,-10.05C108.025,-10.771 107.972,-11.505 107.865,-12.252C107.758,-12.999 107.605,-13.687 107.405,-14.314C107.205,-14.941 106.958,-15.448 106.664,-15.835C106.37,-16.222 106.023,-16.416 105.623,-16.416C105.463,-16.416 105.249,-16.296 104.982,-16.056C104.715,-15.815 104.582,-15.295 104.582,-14.494Z" style="fill:rgb(167,245,243);fill-rule:nonzero;"/>
            </g>
            <g transform="matrix(1,0,0,1,622.592,684)">
                <path d="M135.092,-12.612C134.691,-10.744 134.118,-9.002 133.37,-7.387C132.623,-5.772 131.829,-4.364 130.988,-3.163C130.147,-1.962 129.299,-1.014 128.445,-0.32C127.591,0.374 126.857,0.747 126.243,0.801C125.549,0.801 124.782,0.454 123.941,-0.24C123.1,-0.934 122.299,-1.902 121.539,-3.143C120.778,-4.384 120.144,-5.859 119.637,-7.567C119.13,-9.276 118.876,-11.131 118.876,-13.133C118.876,-14.895 119.029,-16.229 119.336,-17.137C119.643,-18.044 119.837,-18.565 119.917,-18.698C120.05,-18.938 120.231,-19.125 120.458,-19.259C120.684,-19.392 120.945,-19.459 121.238,-19.459C121.692,-19.459 122.052,-19.306 122.319,-18.999C122.586,-18.692 122.72,-18.351 122.72,-17.978C122.72,-17.711 122.666,-17.484 122.56,-17.297C122.533,-17.243 122.413,-16.883 122.199,-16.216C121.986,-15.549 121.879,-14.548 121.879,-13.213C121.879,-11.638 122.039,-10.183 122.359,-8.849C122.68,-7.514 123.067,-6.366 123.521,-5.405C123.974,-4.444 124.448,-3.69 124.942,-3.143C125.436,-2.596 125.843,-2.322 126.163,-2.322C126.377,-2.322 126.69,-2.522 127.104,-2.923C127.518,-3.323 127.958,-3.87 128.425,-4.564C128.892,-5.258 129.373,-6.086 129.867,-7.047C130.361,-8.008 130.814,-9.056 131.228,-10.19C131.642,-11.324 131.975,-12.526 132.229,-13.793C132.483,-15.061 132.609,-16.349 132.609,-17.657C132.609,-17.924 132.603,-18.184 132.589,-18.438C132.576,-18.692 132.569,-18.952 132.569,-19.219C132.569,-19.673 132.709,-20.053 132.99,-20.36C133.27,-20.667 133.637,-20.82 134.091,-20.82C134.438,-20.82 134.751,-20.714 135.032,-20.5C135.312,-20.286 135.492,-19.993 135.572,-19.619C135.572,-19.646 135.626,-19.432 135.732,-18.979C135.839,-18.525 136.019,-17.944 136.273,-17.237C136.527,-16.529 136.847,-15.762 137.234,-14.935C137.621,-14.107 138.088,-13.34 138.635,-12.632C139.182,-11.925 139.816,-11.331 140.537,-10.851C141.258,-10.37 142.085,-10.13 143.02,-10.13C143.527,-10.13 143.967,-10.237 144.341,-10.45C144.715,-10.664 145.021,-10.904 145.262,-11.171C145.502,-11.438 145.682,-11.691 145.802,-11.932C145.922,-12.172 145.982,-12.305 145.982,-12.332C146.089,-12.626 146.269,-12.859 146.523,-13.033C146.777,-13.206 147.063,-13.293 147.384,-13.293C147.811,-13.293 148.171,-13.139 148.465,-12.833C148.758,-12.526 148.905,-12.172 148.905,-11.771C148.905,-11.585 148.865,-11.398 148.785,-11.211C148.625,-10.837 148.391,-10.41 148.084,-9.93C147.778,-9.449 147.384,-8.995 146.903,-8.568C146.423,-8.141 145.856,-7.788 145.202,-7.507C144.548,-7.227 143.82,-7.087 143.02,-7.087C142.085,-7.087 141.218,-7.254 140.417,-7.587C139.616,-7.921 138.889,-8.348 138.235,-8.869C137.581,-9.389 136.987,-9.976 136.453,-10.63C135.919,-11.284 135.465,-11.945 135.092,-12.612Z" style="fill:rgb(167,245,243);fill-rule:nonzero;"/>
            </g>
            <g transform="matrix(1,0,0,1,622.592,684)">
                <path d="M150.827,-4.404C151.388,-3.63 152.108,-3.01 152.989,-2.542C153.87,-2.075 154.951,-1.842 156.232,-1.842C157.54,-1.842 158.728,-2.155 159.796,-2.783C160.864,-3.41 161.838,-4.231 162.719,-5.245C163.6,-6.259 164.387,-7.394 165.081,-8.648C165.775,-9.903 166.402,-11.158 166.963,-12.412C167.096,-12.706 167.283,-12.926 167.523,-13.073C167.764,-13.22 168.031,-13.293 168.324,-13.293C168.778,-13.293 169.145,-13.133 169.425,-12.813C169.706,-12.492 169.846,-12.145 169.846,-11.771C169.846,-11.638 169.832,-11.525 169.806,-11.431C169.779,-11.338 169.739,-11.238 169.686,-11.131C167.844,-7.074 165.835,-4.017 163.66,-1.962C161.484,0.093 159.022,1.148 156.272,1.201C154.511,1.201 152.989,0.861 151.708,0.18C150.427,-0.5 149.372,-1.381 148.545,-2.462C147.717,-3.543 147.104,-4.765 146.703,-6.126C146.303,-7.487 146.103,-8.849 146.103,-10.21C146.103,-11.571 146.269,-12.826 146.603,-13.974C146.937,-15.121 147.417,-16.122 148.044,-16.977C148.672,-17.831 149.419,-18.498 150.287,-18.979C151.154,-19.459 152.108,-19.699 153.149,-19.699C153.763,-19.699 154.371,-19.572 154.971,-19.319C155.572,-19.065 156.112,-18.705 156.593,-18.238C157.073,-17.771 157.46,-17.203 157.754,-16.536C158.048,-15.869 158.194,-15.108 158.194,-14.254C158.194,-13.16 158.007,-12.132 157.634,-11.171C157.26,-10.21 156.746,-9.316 156.092,-8.488C155.438,-7.661 154.658,-6.9 153.75,-6.206C152.842,-5.512 151.868,-4.911 150.827,-4.404ZM149.626,-7.007C150.453,-7.354 151.208,-7.794 151.888,-8.328C152.569,-8.862 153.149,-9.449 153.63,-10.09C154.11,-10.73 154.484,-11.404 154.751,-12.112C155.018,-12.819 155.151,-13.533 155.151,-14.254C155.151,-15.055 154.951,-15.662 154.551,-16.076C154.15,-16.489 153.683,-16.696 153.149,-16.696C152.429,-16.696 151.815,-16.496 151.308,-16.096C150.8,-15.695 150.387,-15.175 150.066,-14.534C149.746,-13.894 149.513,-13.18 149.366,-12.392C149.219,-11.605 149.146,-10.824 149.146,-10.05C149.146,-9.569 149.192,-9.062 149.286,-8.528C149.379,-7.994 149.493,-7.487 149.626,-7.007Z" style="fill:rgb(167,245,243);fill-rule:nonzero;"/>
            </g>
            <g transform="matrix(1,0,0,1,622.592,684)">
                <path d="M171.167,-16.456C171.06,-15.735 170.927,-15.061 170.767,-14.434C170.606,-13.807 170.453,-13.26 170.306,-12.792C170.159,-12.325 170.033,-11.945 169.926,-11.651C169.819,-11.358 169.752,-11.198 169.726,-11.171C169.459,-10.557 168.992,-10.25 168.324,-10.25C167.951,-10.25 167.604,-10.39 167.283,-10.67C166.963,-10.951 166.803,-11.304 166.803,-11.731C166.803,-11.892 166.829,-12.012 166.883,-12.092C166.936,-12.172 167.016,-12.332 167.123,-12.572C167.23,-12.813 167.363,-13.213 167.523,-13.773C167.684,-14.334 167.884,-15.201 168.124,-16.376C167.67,-16.376 167.203,-16.389 166.723,-16.416C166.242,-16.443 165.795,-16.536 165.381,-16.696C164.968,-16.856 164.627,-17.11 164.36,-17.457C164.093,-17.804 163.96,-18.285 163.96,-18.898C163.96,-19.352 164.087,-19.966 164.34,-20.74C164.594,-21.514 164.934,-22.275 165.361,-23.022C165.788,-23.77 166.269,-24.417 166.803,-24.964C167.337,-25.512 167.87,-25.785 168.404,-25.785C169.018,-25.785 169.519,-25.558 169.906,-25.104C170.293,-24.651 170.593,-24.097 170.807,-23.443C171.02,-22.789 171.174,-22.102 171.267,-21.381C171.361,-20.66 171.407,-20.033 171.407,-19.499C171.861,-19.499 172.308,-19.506 172.749,-19.519C173.189,-19.532 173.609,-19.539 174.01,-19.539C175.531,-19.539 176.692,-19.205 177.493,-18.538C178.294,-17.871 178.694,-16.776 178.694,-15.255C178.694,-14.641 178.654,-14 178.574,-13.333C178.494,-12.666 178.401,-11.978 178.294,-11.271C178.187,-10.564 178.094,-9.863 178.014,-9.169C177.934,-8.475 177.894,-7.794 177.894,-7.127C177.894,-6.166 178.027,-5.372 178.294,-4.745C178.561,-4.117 178.895,-3.617 179.295,-3.243C179.695,-2.869 180.122,-2.609 180.576,-2.462C181.03,-2.316 181.444,-2.242 181.817,-2.242C182.965,-2.242 184.046,-2.616 185.061,-3.363C186.075,-4.111 187.009,-5.012 187.863,-6.066C188.717,-7.12 189.485,-8.235 190.166,-9.409C190.846,-10.584 191.413,-11.611 191.867,-12.492C192.001,-12.732 192.188,-12.919 192.428,-13.053C192.668,-13.186 192.922,-13.253 193.188,-13.253C193.669,-13.253 194.043,-13.099 194.31,-12.792C194.576,-12.486 194.71,-12.145 194.71,-11.771C194.71,-11.505 194.657,-11.264 194.55,-11.051C193.936,-9.956 193.222,-8.722 192.408,-7.347C191.594,-5.972 190.666,-4.685 189.625,-3.483C188.584,-2.282 187.416,-1.268 186.122,-0.44C184.827,0.387 183.406,0.801 181.857,0.801C180.896,0.801 179.989,0.621 179.135,0.26C178.281,-0.1 177.54,-0.621 176.913,-1.301C176.285,-1.982 175.785,-2.823 175.411,-3.824C175.037,-4.825 174.851,-5.952 174.851,-7.207C174.851,-8.542 174.984,-9.87 175.251,-11.191C175.518,-12.512 175.651,-13.773 175.651,-14.975C175.651,-15.482 175.538,-15.862 175.311,-16.116C175.084,-16.369 174.584,-16.496 173.81,-16.496C173.436,-16.496 173.029,-16.496 172.588,-16.496C172.148,-16.496 171.674,-16.483 171.167,-16.456ZM168.484,-19.419C168.484,-19.606 168.478,-19.853 168.464,-20.16C168.451,-20.467 168.424,-20.767 168.384,-21.061C168.344,-21.354 168.291,-21.608 168.224,-21.821C168.157,-22.035 168.084,-22.142 168.004,-22.142C167.924,-22.142 167.824,-22.042 167.704,-21.841C167.583,-21.641 167.457,-21.401 167.323,-21.121C167.19,-20.84 167.07,-20.54 166.963,-20.22C166.856,-19.899 166.776,-19.632 166.723,-19.419L168.484,-19.419Z" style="fill:rgb(167,245,243);fill-rule:nonzero;"/>
            </g>
            <g transform="matrix(1,0,0,1,622.592,684)">
                <path d="M224.739,0.561C225.674,-0.374 226.621,-1.328 227.582,-2.302C228.543,-3.277 229.477,-4.298 230.385,-5.365C231.292,-6.433 232.14,-7.547 232.927,-8.708C233.715,-9.87 234.415,-11.104 235.029,-12.412C235.163,-12.706 235.35,-12.926 235.59,-13.073C235.83,-13.22 236.097,-13.293 236.391,-13.293C236.844,-13.293 237.211,-13.133 237.492,-12.813C237.772,-12.492 237.912,-12.132 237.912,-11.731C237.912,-11.518 237.872,-11.318 237.792,-11.131C236.965,-9.396 236.017,-7.808 234.949,-6.366C233.882,-4.925 232.76,-3.557 231.586,-2.262C230.411,-0.968 229.224,0.287 228.022,1.501C226.821,2.716 225.674,3.937 224.579,5.165C224.472,7.007 224.472,8.855 224.579,10.71C224.686,12.566 224.739,14.534 224.739,16.616C224.739,18.325 224.686,20.033 224.579,21.741C224.472,23.45 224.299,25.084 224.059,26.646C223.818,28.208 223.491,29.669 223.078,31.03C222.664,32.392 222.137,33.573 221.496,34.574C220.855,35.575 220.108,36.362 219.254,36.936C218.4,37.51 217.399,37.797 216.251,37.797C214.356,37.797 212.901,37.143 211.887,35.835C210.872,34.527 210.365,32.699 210.365,30.35C210.365,29.068 210.505,27.694 210.786,26.226C211.066,24.757 211.46,23.243 211.967,21.681C212.474,20.12 213.081,18.538 213.789,16.937C214.496,15.335 215.263,13.773 216.091,12.252C216.918,10.73 217.799,9.282 218.733,7.908C219.668,6.533 220.615,5.285 221.576,4.164C221.63,2.883 221.69,1.555 221.756,0.18C221.823,-1.194 221.896,-2.469 221.977,-3.644C221.283,-2.416 220.422,-1.428 219.394,-0.681C218.366,0.067 217.239,0.44 216.011,0.44C213.982,0.44 212.394,-0.24 211.246,-1.602C210.098,-2.963 209.524,-4.831 209.524,-7.207C209.524,-8.942 209.691,-10.524 210.025,-11.952C210.359,-13.38 210.719,-14.608 211.106,-15.635C211.493,-16.663 211.847,-17.45 212.167,-17.998C212.487,-18.545 212.647,-18.805 212.647,-18.778C212.941,-19.232 213.355,-19.459 213.889,-19.459C214.342,-19.459 214.709,-19.306 214.99,-18.999C215.27,-18.692 215.41,-18.338 215.41,-17.938C215.41,-17.644 215.33,-17.377 215.17,-17.137C215.197,-17.163 215.07,-16.943 214.79,-16.476C214.509,-16.009 214.202,-15.335 213.869,-14.454C213.535,-13.573 213.228,-12.519 212.948,-11.291C212.667,-10.063 212.527,-8.715 212.527,-7.247C212.527,-5.779 212.794,-4.631 213.328,-3.804C213.862,-2.976 214.729,-2.563 215.931,-2.563C217.452,-2.563 218.827,-3.69 220.055,-5.946C221.283,-8.201 222.324,-11.478 223.178,-15.775C223.231,-16.122 223.391,-16.409 223.658,-16.636C223.925,-16.863 224.245,-16.977 224.619,-16.977C225.046,-16.977 225.407,-16.83 225.7,-16.536C225.994,-16.243 226.141,-15.882 226.141,-15.455C226.141,-15.375 226.087,-14.901 225.98,-14.034C225.874,-13.166 225.747,-12.012 225.6,-10.57C225.453,-9.129 225.3,-7.454 225.14,-5.545C224.979,-3.637 224.846,-1.602 224.739,0.561ZM221.536,9.049C220.335,10.784 219.234,12.612 218.233,14.534C217.232,16.456 216.371,18.365 215.65,20.26C214.93,22.155 214.369,23.97 213.969,25.705C213.568,27.44 213.368,28.988 213.368,30.35C213.368,31.738 213.595,32.825 214.049,33.613C214.503,34.4 215.223,34.794 216.211,34.794C217.092,34.794 217.873,34.36 218.553,33.493C219.234,32.625 219.808,31.391 220.275,29.789C220.742,28.188 221.096,26.246 221.336,23.963C221.576,21.681 221.696,19.125 221.696,16.296C221.696,15.148 221.676,13.987 221.636,12.813C221.596,11.638 221.563,10.383 221.536,9.049Z" style="fill:rgb(167,245,243);fill-rule:nonzero;"/>
            </g>
        </g>
        <g>
            <g transform="matrix(1,0,0,1,622.592,684)">
                <path d="M17.057,-11.651C18.365,-5.485 20.26,-2.402 22.742,-2.402C23.703,-2.402 24.624,-2.756 25.505,-3.463C26.386,-4.171 27.207,-5.038 27.967,-6.066C28.728,-7.094 29.402,-8.181 29.989,-9.329C30.576,-10.477 31.057,-11.478 31.431,-12.332C31.698,-12.973 32.165,-13.293 32.832,-13.293C33.259,-13.293 33.619,-13.133 33.913,-12.813C34.207,-12.492 34.354,-12.145 34.354,-11.771C34.354,-11.558 34.313,-11.371 34.233,-11.211C34.047,-10.757 33.773,-10.15 33.413,-9.389C33.052,-8.628 32.612,-7.814 32.091,-6.947C31.571,-6.079 30.99,-5.192 30.35,-4.284C29.709,-3.377 29.002,-2.563 28.228,-1.842C27.453,-1.121 26.633,-0.527 25.765,-0.06C24.898,0.407 23.983,0.641 23.022,0.641C21.234,0.641 19.699,0.02 18.418,-1.221C17.137,-2.462 16.029,-4.511 15.095,-7.367C13.813,-4.645 12.519,-2.669 11.211,-1.441C9.903,-0.214 8.488,0.4 6.967,0.4C6.166,0.4 5.392,0.274 4.645,0.02C3.897,-0.234 3.243,-0.654 2.683,-1.241C2.122,-1.828 1.668,-2.583 1.321,-3.503C0.974,-4.424 0.801,-5.552 0.801,-6.887C0.801,-8.729 1.121,-10.424 1.762,-11.972C2.402,-13.52 3.23,-14.848 4.244,-15.956C5.258,-17.063 6.386,-17.924 7.627,-18.538C8.869,-19.152 10.103,-19.459 11.331,-19.459C11.731,-19.459 12.078,-19.319 12.372,-19.039C12.666,-18.758 12.813,-18.405 12.813,-17.978C12.813,-17.604 12.692,-17.27 12.452,-16.977C12.212,-16.683 11.892,-16.509 11.491,-16.456C10.69,-16.349 9.836,-16.096 8.929,-15.695C8.021,-15.295 7.187,-14.714 6.426,-13.954C5.666,-13.193 5.038,-12.225 4.544,-11.051C4.051,-9.876 3.804,-8.475 3.804,-6.847C3.804,-5.512 4.077,-4.471 4.625,-3.724C5.172,-2.976 5.966,-2.603 7.007,-2.603C7.434,-2.603 7.888,-2.716 8.368,-2.943C8.849,-3.17 9.362,-3.617 9.91,-4.284C10.457,-4.951 11.057,-5.899 11.711,-7.127C12.365,-8.355 13.093,-9.97 13.894,-11.972C13.44,-14.321 13.026,-17.03 12.652,-20.1C12.279,-23.169 12.092,-26.599 12.092,-30.39C12.092,-32.045 12.145,-33.773 12.252,-35.575C12.359,-37.376 12.532,-39.138 12.772,-40.86C13.013,-42.582 13.333,-44.216 13.733,-45.765C14.134,-47.313 14.621,-48.674 15.195,-49.849C15.769,-51.023 16.443,-51.951 17.217,-52.631C17.991,-53.312 18.872,-53.652 19.859,-53.652C20.74,-53.652 21.488,-53.412 22.102,-52.932C22.715,-52.451 23.216,-51.784 23.603,-50.93C23.99,-50.076 24.277,-49.048 24.464,-47.847C24.651,-46.646 24.744,-45.324 24.744,-43.883C24.744,-40.786 24.477,-37.69 23.943,-34.594C23.41,-31.497 22.749,-28.535 21.961,-25.705C21.174,-22.876 20.34,-20.26 19.459,-17.857C18.578,-15.455 17.777,-13.386 17.057,-11.651ZM21.741,-43.923C21.741,-44.59 21.721,-45.311 21.681,-46.085C21.641,-46.859 21.548,-47.586 21.401,-48.267C21.254,-48.948 21.061,-49.515 20.82,-49.969C20.58,-50.423 20.26,-50.649 19.859,-50.649C19.192,-50.649 18.571,-50.062 17.998,-48.888C17.424,-47.713 16.923,-46.172 16.496,-44.263C16.069,-42.355 15.729,-40.193 15.475,-37.777C15.222,-35.361 15.095,-32.925 15.095,-30.47C15.095,-28.121 15.188,-25.772 15.375,-23.423C15.562,-21.074 15.775,-18.979 16.016,-17.137C16.79,-19.192 17.524,-21.307 18.218,-23.483C18.912,-25.658 19.519,-27.881 20.04,-30.149C20.56,-32.418 20.974,-34.707 21.281,-37.016C21.588,-39.325 21.741,-41.627 21.741,-43.923Z" style="fill:rgb(167,245,243);fill-rule:nonzero;"/>
            </g>
            <g transform="matrix(1,0,0,1,622.592,684)">
                <path d="M37.997,-31.431C37.997,-30.416 37.643,-29.556 36.936,-28.848C36.229,-28.141 35.368,-27.787 34.354,-27.787C33.339,-27.787 32.478,-28.141 31.771,-28.848C31.064,-29.556 30.71,-30.416 30.71,-31.431C30.71,-31.938 30.803,-32.412 30.99,-32.852C31.177,-33.292 31.437,-33.68 31.771,-34.013C32.105,-34.347 32.492,-34.607 32.932,-34.794C33.373,-34.981 33.846,-35.074 34.354,-35.074C34.861,-35.074 35.334,-34.981 35.775,-34.794C36.215,-34.607 36.602,-34.347 36.936,-34.013C37.27,-33.68 37.53,-33.292 37.717,-32.852C37.904,-32.412 37.997,-31.938 37.997,-31.431ZM31.511,-7.968C31.511,-11.812 31.751,-15.642 32.231,-19.459C32.285,-19.833 32.452,-20.16 32.732,-20.44C33.012,-20.72 33.379,-20.86 33.833,-20.86C34.233,-20.86 34.567,-20.707 34.834,-20.4C35.101,-20.093 35.234,-19.739 35.234,-19.339C35.234,-19.179 35.201,-18.698 35.134,-17.897C35.068,-17.097 34.987,-16.142 34.894,-15.035C34.801,-13.927 34.721,-12.752 34.654,-11.511C34.587,-10.27 34.554,-9.129 34.554,-8.088C34.554,-6.673 34.694,-5.532 34.974,-4.665C35.254,-3.797 35.615,-3.123 36.055,-2.643C36.496,-2.162 36.963,-1.842 37.457,-1.682C37.95,-1.521 38.424,-1.441 38.878,-1.441C39.625,-1.441 40.399,-1.708 41.2,-2.242C42.001,-2.776 42.822,-3.523 43.663,-4.484C44.503,-5.445 45.351,-6.6 46.205,-7.948C47.059,-9.296 47.9,-10.797 48.728,-12.452C48.861,-12.719 49.048,-12.926 49.288,-13.073C49.528,-13.22 49.795,-13.293 50.089,-13.293C50.516,-13.293 50.87,-13.133 51.15,-12.813C51.43,-12.492 51.57,-12.145 51.57,-11.771C51.57,-11.505 51.517,-11.278 51.41,-11.091C51.09,-10.477 50.689,-9.729 50.209,-8.849C49.729,-7.968 49.181,-7.06 48.567,-6.126C47.953,-5.192 47.279,-4.264 46.545,-3.343C45.811,-2.422 45.031,-1.595 44.203,-0.861C43.376,-0.127 42.508,0.467 41.601,0.921C40.693,1.375 39.772,1.602 38.838,1.602C37.637,1.602 36.582,1.348 35.675,0.841C34.767,0.334 34,-0.347 33.373,-1.201C32.745,-2.055 32.278,-3.063 31.971,-4.224C31.664,-5.385 31.511,-6.633 31.511,-7.968ZM35.755,-31.431C35.755,-31.804 35.615,-32.131 35.334,-32.412C35.054,-32.692 34.727,-32.832 34.354,-32.832C33.98,-32.832 33.66,-32.692 33.393,-32.412C33.126,-32.131 32.992,-31.804 32.992,-31.431C32.992,-31.057 33.126,-30.737 33.393,-30.47C33.66,-30.203 33.98,-30.069 34.354,-30.069C34.727,-30.069 35.054,-30.203 35.334,-30.47C35.615,-30.737 35.755,-31.057 35.755,-31.431Z" style="fill:rgb(167,245,243);fill-rule:nonzero;"/>
            </g>
            <g transform="matrix(1,0,0,1,622.592,684)">
                <path d="M53.132,-14.814C52.972,-14.387 52.778,-13.907 52.551,-13.373C52.324,-12.839 52.064,-12.279 51.771,-11.691C51.53,-11.238 51.283,-10.884 51.03,-10.63C50.776,-10.377 50.449,-10.25 50.049,-10.25C49.595,-10.25 49.235,-10.39 48.968,-10.67C48.701,-10.951 48.567,-11.278 48.567,-11.651C48.567,-11.785 48.581,-11.898 48.607,-11.992C48.634,-12.085 48.701,-12.239 48.808,-12.452C49.502,-13.787 50.015,-14.955 50.349,-15.956C50.683,-16.957 50.956,-18.004 51.17,-19.099C50.983,-19.713 50.85,-20.233 50.77,-20.66C50.689,-21.087 50.649,-21.528 50.649,-21.981C50.649,-22.862 50.836,-23.576 51.21,-24.124C51.584,-24.671 52.104,-24.944 52.771,-24.944C53.385,-24.944 53.873,-24.677 54.233,-24.144C54.593,-23.61 54.773,-22.956 54.773,-22.182C54.773,-21.755 54.733,-21.327 54.653,-20.9C54.573,-20.473 54.466,-19.939 54.333,-19.299C54.947,-17.777 55.561,-16.429 56.175,-15.255C56.789,-14.08 57.336,-13.006 57.816,-12.032C58.297,-11.057 58.691,-10.143 58.998,-9.289C59.305,-8.435 59.458,-7.581 59.458,-6.727C59.458,-5.605 59.231,-4.538 58.777,-3.523C58.324,-2.509 57.576,-1.655 56.535,-0.961C56.669,-0.934 56.802,-0.921 56.936,-0.921C57.069,-0.921 57.202,-0.921 57.336,-0.921C58.857,-0.921 60.259,-1.268 61.54,-1.962C62.821,-2.656 63.976,-3.557 65.003,-4.665C66.031,-5.772 66.945,-7 67.746,-8.348C68.547,-9.696 69.241,-11.037 69.828,-12.372C70.095,-12.986 70.469,-13.293 70.949,-13.293C71.403,-13.293 71.757,-13.133 72.01,-12.813C72.264,-12.492 72.391,-12.145 72.391,-11.771C72.391,-11.558 72.351,-11.358 72.271,-11.171C71.977,-10.45 71.597,-9.629 71.129,-8.708C70.662,-7.788 70.102,-6.84 69.448,-5.866C68.794,-4.891 68.04,-3.937 67.186,-3.003C66.331,-2.069 65.377,-1.235 64.323,-0.5C63.268,0.234 62.114,0.821 60.859,1.261C59.605,1.702 58.23,1.922 56.735,1.922C54.947,1.922 53.285,1.608 51.75,0.981C50.216,0.354 48.968,-0.681 48.007,-2.122C47.847,-2.362 47.767,-2.616 47.767,-2.883C47.767,-3.283 47.92,-3.637 48.227,-3.944C48.534,-4.251 48.888,-4.404 49.288,-4.404C49.715,-4.404 50.076,-4.257 50.369,-3.964C50.396,-3.91 50.489,-3.824 50.649,-3.704C50.81,-3.583 51.003,-3.45 51.23,-3.303C51.457,-3.156 51.724,-3.03 52.031,-2.923C52.338,-2.816 52.651,-2.763 52.972,-2.763C53.612,-2.763 54.153,-2.896 54.593,-3.163C55.034,-3.43 55.387,-3.757 55.654,-4.144C55.921,-4.531 56.115,-4.945 56.235,-5.385C56.355,-5.826 56.415,-6.206 56.415,-6.526C56.415,-7.194 56.308,-7.861 56.095,-8.528C55.881,-9.196 55.608,-9.863 55.274,-10.53C54.94,-11.198 54.58,-11.885 54.193,-12.592C53.806,-13.3 53.452,-14.04 53.132,-14.814Z" style="fill:rgb(167,245,243);fill-rule:nonzero;"/>
            </g>
            <g transform="matrix(1,0,0,1,622.592,684)">
                <path d="M95.693,-11.091C95.533,-10.797 95.26,-10.263 94.873,-9.489C94.486,-8.715 93.965,-7.841 93.311,-6.867C92.657,-5.892 91.876,-4.885 90.969,-3.844C90.061,-2.803 89.02,-1.848 87.846,-0.981C86.671,-0.113 85.357,0.601 83.902,1.161C82.447,1.722 80.866,2.002 79.157,2.002C77.636,2.002 76.288,1.728 75.113,1.181C73.939,0.634 72.938,-0.14 72.11,-1.141C71.283,-2.142 70.656,-3.323 70.229,-4.685C69.801,-6.046 69.588,-7.554 69.588,-9.209C69.588,-10.811 69.815,-12.312 70.269,-13.713C70.722,-15.115 71.343,-16.336 72.13,-17.377C72.918,-18.418 73.832,-19.239 74.873,-19.839C75.914,-20.44 77.022,-20.74 78.196,-20.74C79.077,-20.74 79.878,-20.587 80.599,-20.28C81.319,-19.973 81.927,-19.566 82.42,-19.059C82.914,-18.551 83.301,-17.991 83.582,-17.377C83.862,-16.763 84.002,-16.149 84.002,-15.535C84.002,-14.948 83.929,-14.401 83.782,-13.894C83.635,-13.386 83.448,-12.939 83.221,-12.552C82.994,-12.165 82.734,-11.858 82.44,-11.631C82.147,-11.404 81.853,-11.291 81.56,-11.291C81.106,-11.291 80.739,-11.438 80.458,-11.731C80.178,-12.025 80.038,-12.385 80.038,-12.813C80.038,-13.026 80.085,-13.213 80.178,-13.373C80.272,-13.533 80.378,-13.7 80.499,-13.874C80.619,-14.047 80.725,-14.261 80.819,-14.514C80.912,-14.768 80.959,-15.095 80.959,-15.495C80.959,-16.056 80.699,-16.563 80.178,-17.017C79.658,-17.47 78.997,-17.697 78.196,-17.697C77.449,-17.697 76.735,-17.47 76.054,-17.017C75.374,-16.563 74.78,-15.956 74.272,-15.195C73.765,-14.434 73.358,-13.54 73.051,-12.512C72.744,-11.485 72.591,-10.397 72.591,-9.249C72.591,-8.155 72.724,-7.114 72.991,-6.126C73.258,-5.138 73.659,-4.264 74.192,-3.503C74.726,-2.743 75.4,-2.135 76.214,-1.682C77.028,-1.228 77.996,-1.001 79.117,-1.001C80.559,-1.001 81.893,-1.261 83.121,-1.782C84.349,-2.302 85.47,-2.963 86.484,-3.764C87.499,-4.564 88.393,-5.439 89.167,-6.386C89.941,-7.334 90.602,-8.228 91.149,-9.069C91.696,-9.91 92.123,-10.644 92.43,-11.271C92.737,-11.898 92.917,-12.292 92.971,-12.452C93.077,-12.719 93.258,-12.926 93.511,-13.073C93.765,-13.22 94.038,-13.293 94.332,-13.293C94.786,-13.293 95.153,-13.133 95.433,-12.813C95.713,-12.492 95.854,-12.132 95.854,-11.731C95.854,-11.571 95.8,-11.358 95.693,-11.091Z" style="fill:rgb(167,245,243);fill-rule:nonzero;"/>
            </g>
            <g transform="matrix(1,0,0,1,622.592,684)">
                <path d="M111.429,-4.404C110.761,-4.404 110.174,-4.458 109.667,-4.564C109.267,-3.764 108.786,-3.023 108.226,-2.342C107.665,-1.662 107.018,-1.068 106.284,-0.561C105.55,-0.053 104.729,0.347 103.821,0.641C102.914,0.934 101.926,1.081 100.858,1.081C99.604,1.081 98.456,0.861 97.415,0.42C96.374,-0.02 95.466,-0.634 94.692,-1.421C93.918,-2.209 93.318,-3.156 92.891,-4.264C92.464,-5.372 92.25,-6.593 92.25,-7.928C92.25,-9.636 92.557,-11.124 93.171,-12.392C93.785,-13.66 94.492,-14.714 95.293,-15.555C96.094,-16.396 96.895,-17.023 97.695,-17.437C98.496,-17.851 99.097,-18.058 99.497,-18.058C99.951,-18.058 100.291,-17.938 100.518,-17.697C100.745,-17.457 100.858,-17.137 100.858,-16.736C100.858,-16.283 100.718,-15.942 100.438,-15.715C100.158,-15.488 99.804,-15.268 99.377,-15.055C98.95,-14.841 98.496,-14.541 98.016,-14.154C97.535,-13.767 97.088,-13.28 96.674,-12.692C96.261,-12.105 95.92,-11.411 95.653,-10.61C95.386,-9.81 95.253,-8.915 95.253,-7.928C95.253,-7.047 95.386,-6.226 95.653,-5.465C95.92,-4.705 96.307,-4.051 96.814,-3.503C97.322,-2.956 97.922,-2.529 98.616,-2.222C99.31,-1.915 100.084,-1.762 100.938,-1.762C102.46,-1.762 103.721,-2.115 104.722,-2.823C105.723,-3.53 106.491,-4.431 107.024,-5.525C105.45,-6.353 104.155,-7.527 103.141,-9.049C102.126,-10.57 101.619,-12.279 101.619,-14.174C101.619,-15.695 101.986,-16.937 102.72,-17.897C103.454,-18.858 104.422,-19.339 105.623,-19.339C106.344,-19.339 107.024,-19.165 107.665,-18.818C108.306,-18.471 108.873,-17.924 109.367,-17.177C109.861,-16.429 110.254,-15.468 110.548,-14.294C110.841,-13.119 110.988,-11.718 110.988,-10.09C110.988,-9.236 110.882,-8.341 110.668,-7.407C110.828,-7.381 110.988,-7.367 111.148,-7.367C111.309,-7.367 111.482,-7.367 111.669,-7.367C112.576,-7.367 113.391,-7.474 114.111,-7.688C114.832,-7.901 115.486,-8.221 116.073,-8.648C116.66,-9.076 117.188,-9.623 117.655,-10.29C118.122,-10.957 118.569,-11.731 118.996,-12.612C119.076,-12.772 119.25,-12.926 119.517,-13.073C119.784,-13.22 120.05,-13.293 120.317,-13.293C120.664,-13.293 120.991,-13.153 121.298,-12.873C121.605,-12.592 121.759,-12.225 121.759,-11.771C121.759,-11.558 121.705,-11.324 121.599,-11.071C121.492,-10.817 121.385,-10.584 121.278,-10.37C120.825,-9.569 120.297,-8.802 119.697,-8.068C119.096,-7.334 118.389,-6.693 117.575,-6.146C116.761,-5.599 115.846,-5.165 114.832,-4.845C113.818,-4.524 112.683,-4.378 111.429,-4.404ZM104.582,-14.494C104.582,-13.987 104.649,-13.453 104.782,-12.893C104.916,-12.332 105.123,-11.778 105.403,-11.231C105.683,-10.684 106.03,-10.163 106.444,-9.669C106.858,-9.176 107.345,-8.755 107.905,-8.408C107.985,-8.969 108.025,-9.516 108.025,-10.05C108.025,-10.771 107.972,-11.505 107.865,-12.252C107.758,-12.999 107.605,-13.687 107.405,-14.314C107.205,-14.941 106.958,-15.448 106.664,-15.835C106.37,-16.222 106.023,-16.416 105.623,-16.416C105.463,-16.416 105.249,-16.296 104.982,-16.056C104.715,-15.815 104.582,-15.295 104.582,-14.494Z" style="fill:rgb(167,245,243);fill-rule:nonzero;"/>
            </g>
            <g transform="matrix(1,0,0,1,622.592,684)">
                <path d="M135.092,-12.612C134.691,-10.744 134.118,-9.002 133.37,-7.387C132.623,-5.772 131.829,-4.364 130.988,-3.163C130.147,-1.962 129.299,-1.014 128.445,-0.32C127.591,0.374 126.857,0.747 126.243,0.801C125.549,0.801 124.782,0.454 123.941,-0.24C123.1,-0.934 122.299,-1.902 121.539,-3.143C120.778,-4.384 120.144,-5.859 119.637,-7.567C119.13,-9.276 118.876,-11.131 118.876,-13.133C118.876,-14.895 119.029,-16.229 119.336,-17.137C119.643,-18.044 119.837,-18.565 119.917,-18.698C120.05,-18.938 120.231,-19.125 120.458,-19.259C120.684,-19.392 120.945,-19.459 121.238,-19.459C121.692,-19.459 122.052,-19.306 122.319,-18.999C122.586,-18.692 122.72,-18.351 122.72,-17.978C122.72,-17.711 122.666,-17.484 122.56,-17.297C122.533,-17.243 122.413,-16.883 122.199,-16.216C121.986,-15.549 121.879,-14.548 121.879,-13.213C121.879,-11.638 122.039,-10.183 122.359,-8.849C122.68,-7.514 123.067,-6.366 123.521,-5.405C123.974,-4.444 124.448,-3.69 124.942,-3.143C125.436,-2.596 125.843,-2.322 126.163,-2.322C126.377,-2.322 126.69,-2.522 127.104,-2.923C127.518,-3.323 127.958,-3.87 128.425,-4.564C128.892,-5.258 129.373,-6.086 129.867,-7.047C130.361,-8.008 130.814,-9.056 131.228,-10.19C131.642,-11.324 131.975,-12.526 132.229,-13.793C132.483,-15.061 132.609,-16.349 132.609,-17.657C132.609,-17.924 132.603,-18.184 132.589,-18.438C132.576,-18.692 132.569,-18.952 132.569,-19.219C132.569,-19.673 132.709,-20.053 132.99,-20.36C133.27,-20.667 133.637,-20.82 134.091,-20.82C134.438,-20.82 134.751,-20.714 135.032,-20.5C135.312,-20.286 135.492,-19.993 135.572,-19.619C135.572,-19.646 135.626,-19.432 135.732,-18.979C135.839,-18.525 136.019,-17.944 136.273,-17.237C136.527,-16.529 136.847,-15.762 137.234,-14.935C137.621,-14.107 138.088,-13.34 138.635,-12.632C139.182,-11.925 139.816,-11.331 140.537,-10.851C141.258,-10.37 142.085,-10.13 143.02,-10.13C143.527,-10.13 143.967,-10.237 144.341,-10.45C144.715,-10.664 145.021,-10.904 145.262,-11.171C145.502,-11.438 145.682,-11.691 145.802,-11.932C145.922,-12.172 145.982,-12.305 145.982,-12.332C146.089,-12.626 146.269,-12.859 146.523,-13.033C146.777,-13.206 147.063,-13.293 147.384,-13.293C147.811,-13.293 148.171,-13.139 148.465,-12.833C148.758,-12.526 148.905,-12.172 148.905,-11.771C148.905,-11.585 148.865,-11.398 148.785,-11.211C148.625,-10.837 148.391,-10.41 148.084,-9.93C147.778,-9.449 147.384,-8.995 146.903,-8.568C146.423,-8.141 145.856,-7.788 145.202,-7.507C144.548,-7.227 143.82,-7.087 143.02,-7.087C142.085,-7.087 141.218,-7.254 140.417,-7.587C139.616,-7.921 138.889,-8.348 138.235,-8.869C137.581,-9.389 136.987,-9.976 136.453,-10.63C135.919,-11.284 135.465,-11.945 135.092,-12.612Z" style="fill:rgb(167,245,243);fill-rule:nonzero;"/>
            </g>
            <g transform="matrix(1,0,0,1,622.592,684)">
                <path d="M150.827,-4.404C151.388,-3.63 152.108,-3.01 152.989,-2.542C153.87,-2.075 154.951,-1.842 156.232,-1.842C157.54,-1.842 158.728,-2.155 159.796,-2.783C160.864,-3.41 161.838,-4.231 162.719,-5.245C163.6,-6.259 164.387,-7.394 165.081,-8.648C165.775,-9.903 166.402,-11.158 166.963,-12.412C167.096,-12.706 167.283,-12.926 167.523,-13.073C167.764,-13.22 168.031,-13.293 168.324,-13.293C168.778,-13.293 169.145,-13.133 169.425,-12.813C169.706,-12.492 169.846,-12.145 169.846,-11.771C169.846,-11.638 169.832,-11.525 169.806,-11.431C169.779,-11.338 169.739,-11.238 169.686,-11.131C167.844,-7.074 165.835,-4.017 163.66,-1.962C161.484,0.093 159.022,1.148 156.272,1.201C154.511,1.201 152.989,0.861 151.708,0.18C150.427,-0.5 149.372,-1.381 148.545,-2.462C147.717,-3.543 147.104,-4.765 146.703,-6.126C146.303,-7.487 146.103,-8.849 146.103,-10.21C146.103,-11.571 146.269,-12.826 146.603,-13.974C146.937,-15.121 147.417,-16.122 148.044,-16.977C148.672,-17.831 149.419,-18.498 150.287,-18.979C151.154,-19.459 152.108,-19.699 153.149,-19.699C153.763,-19.699 154.371,-19.572 154.971,-19.319C155.572,-19.065 156.112,-18.705 156.593,-18.238C157.073,-17.771 157.46,-17.203 157.754,-16.536C158.048,-15.869 158.194,-15.108 158.194,-14.254C158.194,-13.16 158.007,-12.132 157.634,-11.171C157.26,-10.21 156.746,-9.316 156.092,-8.488C155.438,-7.661 154.658,-6.9 153.75,-6.206C152.842,-5.512 151.868,-4.911 150.827,-4.404ZM149.626,-7.007C150.453,-7.354 151.208,-7.794 151.888,-8.328C152.569,-8.862 153.149,-9.449 153.63,-10.09C154.11,-10.73 154.484,-11.404 154.751,-12.112C155.018,-12.819 155.151,-13.533 155.151,-14.254C155.151,-15.055 154.951,-15.662 154.551,-16.076C154.15,-16.489 153.683,-16.696 153.149,-16.696C152.429,-16.696 151.815,-16.496 151.308,-16.096C150.8,-15.695 150.387,-15.175 150.066,-14.534C149.746,-13.894 149.513,-13.18 149.366,-12.392C149.219,-11.605 149.146,-10.824 149.146,-10.05C149.146,-9.569 149.192,-9.062 149.286,-8.528C149.379,-7.994 149.493,-7.487 149.626,-7.007Z" style="fill:rgb(167,245,243);fill-rule:nonzero;"/>
            </g>
            <g transform="matrix(1,0,0,1,622.592,684)">
                <path d="M171.167,-16.456C171.06,-15.735 170.927,-15.061 170.767,-14.434C170.606,-13.807 170.453,-13.26 170.306,-12.792C170.159,-12.325 170.033,-11.945 169.926,-11.651C169.819,-11.358 169.752,-11.198 169.726,-11.171C169.459,-10.557 168.992,-10.25 168.324,-10.25C167.951,-10.25 167.604,-10.39 167.283,-10.67C166.963,-10.951 166.803,-11.304 166.803,-11.731C166.803,-11.892 166.829,-12.012 166.883,-12.092C166.936,-12.172 167.016,-12.332 167.123,-12.572C167.23,-12.813 167.363,-13.213 167.523,-13.773C167.684,-14.334 167.884,-15.201 168.124,-16.376C167.67,-16.376 167.203,-16.389 166.723,-16.416C166.242,-16.443 165.795,-16.536 165.381,-16.696C164.968,-16.856 164.627,-17.11 164.36,-17.457C164.093,-17.804 163.96,-18.285 163.96,-18.898C163.96,-19.352 164.087,-19.966 164.34,-20.74C164.594,-21.514 164.934,-22.275 165.361,-23.022C165.788,-23.77 166.269,-24.417 166.803,-24.964C167.337,-25.512 167.87,-25.785 168.404,-25.785C169.018,-25.785 169.519,-25.558 169.906,-25.104C170.293,-24.651 170.593,-24.097 170.807,-23.443C171.02,-22.789 171.174,-22.102 171.267,-21.381C171.361,-20.66 171.407,-20.033 171.407,-19.499C171.861,-19.499 172.308,-19.506 172.749,-19.519C173.189,-19.532 173.609,-19.539 174.01,-19.539C175.531,-19.539 176.692,-19.205 177.493,-18.538C178.294,-17.871 178.694,-16.776 178.694,-15.255C178.694,-14.641 178.654,-14 178.574,-13.333C178.494,-12.666 178.401,-11.978 178.294,-11.271C178.187,-10.564 178.094,-9.863 178.014,-9.169C177.934,-8.475 177.894,-7.794 177.894,-7.127C177.894,-6.166 178.027,-5.372 178.294,-4.745C178.561,-4.117 178.895,-3.617 179.295,-3.243C179.695,-2.869 180.122,-2.609 180.576,-2.462C181.03,-2.316 181.444,-2.242 181.817,-2.242C182.965,-2.242 184.046,-2.616 185.061,-3.363C186.075,-4.111 187.009,-5.012 187.863,-6.066C188.717,-7.12 189.485,-8.235 190.166,-9.409C190.846,-10.584 191.413,-11.611 191.867,-12.492C192.001,-12.732 192.188,-12.919 192.428,-13.053C192.668,-13.186 192.922,-13.253 193.188,-13.253C193.669,-13.253 194.043,-13.099 194.31,-12.792C194.576,-12.486 194.71,-12.145 194.71,-11.771C194.71,-11.505 194.657,-11.264 194.55,-11.051C193.936,-9.956 193.222,-8.722 192.408,-7.347C191.594,-5.972 190.666,-4.685 189.625,-3.483C188.584,-2.282 187.416,-1.268 186.122,-0.44C184.827,0.387 183.406,0.801 181.857,0.801C180.896,0.801 179.989,0.621 179.135,0.26C178.281,-0.1 177.54,-0.621 176.913,-1.301C176.285,-1.982 175.785,-2.823 175.411,-3.824C175.037,-4.825 174.851,-5.952 174.851,-7.207C174.851,-8.542 174.984,-9.87 175.251,-11.191C175.518,-12.512 175.651,-13.773 175.651,-14.975C175.651,-15.482 175.538,-15.862 175.311,-16.116C175.084,-16.369 174.584,-16.496 173.81,-16.496C173.436,-16.496 173.029,-16.496 172.588,-16.496C172.148,-16.496 171.674,-16.483 171.167,-16.456ZM168.484,-19.419C168.484,-19.606 168.478,-19.853 168.464,-20.16C168.451,-20.467 168.424,-20.767 168.384,-21.061C168.344,-21.354 168.291,-21.608 168.224,-21.821C168.157,-22.035 168.084,-22.142 168.004,-22.142C167.924,-22.142 167.824,-22.042 167.704,-21.841C167.583,-21.641 167.457,-21.401 167.323,-21.121C167.19,-20.84 167.07,-20.54 166.963,-20.22C166.856,-19.899 166.776,-19.632 166.723,-19.419L168.484,-19.419Z" style="fill:rgb(167,245,243);fill-rule:nonzero;"/>
            </g>
            <g transform="matrix(1,0,0,1,622.592,684)">
                <path d="M224.739,0.561C225.674,-0.374 226.621,-1.328 227.582,-2.302C228.543,-3.277 229.477,-4.298 230.385,-5.365C231.292,-6.433 232.14,-7.547 232.927,-8.708C233.715,-9.87 234.415,-11.104 235.029,-12.412C235.163,-12.706 235.35,-12.926 235.59,-13.073C235.83,-13.22 236.097,-13.293 236.391,-13.293C236.844,-13.293 237.211,-13.133 237.492,-12.813C237.772,-12.492 237.912,-12.132 237.912,-11.731C237.912,-11.518 237.872,-11.318 237.792,-11.131C236.965,-9.396 236.017,-7.808 234.949,-6.366C233.882,-4.925 232.76,-3.557 231.586,-2.262C230.411,-0.968 229.224,0.287 228.022,1.501C226.821,2.716 225.674,3.937 224.579,5.165C224.472,7.007 224.472,8.855 224.579,10.71C224.686,12.566 224.739,14.534 224.739,16.616C224.739,18.325 224.686,20.033 224.579,21.741C224.472,23.45 224.299,25.084 224.059,26.646C223.818,28.208 223.491,29.669 223.078,31.03C222.664,32.392 222.137,33.573 221.496,34.574C220.855,35.575 220.108,36.362 219.254,36.936C218.4,37.51 217.399,37.797 216.251,37.797C214.356,37.797 212.901,37.143 211.887,35.835C210.872,34.527 210.365,32.699 210.365,30.35C210.365,29.068 210.505,27.694 210.786,26.226C211.066,24.757 211.46,23.243 211.967,21.681C212.474,20.12 213.081,18.538 213.789,16.937C214.496,15.335 215.263,13.773 216.091,12.252C216.918,10.73 217.799,9.282 218.733,7.908C219.668,6.533 220.615,5.285 221.576,4.164C221.63,2.883 221.69,1.555 221.756,0.18C221.823,-1.194 221.896,-2.469 221.977,-3.644C221.283,-2.416 220.422,-1.428 219.394,-0.681C218.366,0.067 217.239,0.44 216.011,0.44C213.982,0.44 212.394,-0.24 211.246,-1.602C210.098,-2.963 209.524,-4.831 209.524,-7.207C209.524,-8.942 209.691,-10.524 210.025,-11.952C210.359,-13.38 210.719,-14.608 211.106,-15.635C211.493,-16.663 211.847,-17.45 212.167,-17.998C212.487,-18.545 212.647,-18.805 212.647,-18.778C212.941,-19.232 213.355,-19.459 213.889,-19.459C214.342,-19.459 214.709,-19.306 214.99,-18.999C215.27,-18.692 215.41,-18.338 215.41,-17.938C215.41,-17.644 215.33,-17.377 215.17,-17.137C215.197,-17.163 215.07,-16.943 214.79,-16.476C214.509,-16.009 214.202,-15.335 213.869,-14.454C213.535,-13.573 213.228,-12.519 212.948,-11.291C212.667,-10.063 212.527,-8.715 212.527,-7.247C212.527,-5.779 212.794,-4.631 213.328,-3.804C213.862,-2.976 214.729,-2.563 215.931,-2.563C217.452,-2.563 218.827,-3.69 220.055,-5.946C221.283,-8.201 222.324,-11.478 223.178,-15.775C223.231,-16.122 223.391,-16.409 223.658,-16.636C223.925,-16.863 224.245,-16.977 224.619,-16.977C225.046,-16.977 225.407,-16.83 225.7,-16.536C225.994,-16.243 226.141,-15.882 226.141,-15.455C226.141,-15.375 226.087,-14.901 225.98,-14.034C225.874,-13.166 225.747,-12.012 225.6,-10.57C225.453,-9.129 225.3,-7.454 225.14,-5.545C224.979,-3.637 224.846,-1.602 224.739,0.561ZM221.536,9.049C220.335,10.784 219.234,12.612 218.233,14.534C217.232,16.456 216.371,18.365 215.65,20.26C214.93,22.155 214.369,23.97 213.969,25.705C213.568,27.44 213.368,28.988 213.368,30.35C213.368,31.738 213.595,32.825 214.049,33.613C214.503,34.4 215.223,34.794 216.211,34.794C217.092,34.794 217.873,34.36 218.553,33.493C219.234,32.625 219.808,31.391 220.275,29.789C220.742,28.188 221.096,26.246 221.336,23.963C221.576,21.681 221.696,19.125 221.696,16.296C221.696,15.148 221.676,13.987 221.636,12.813C221.596,11.638 221.563,10.383 221.536,9.049Z" style="fill:rgb(167,245,243);fill-rule:nonzero;"/>
            </g>
        </g>
    </g>
</svg>
