<?xml version="1.0" standalone="no"?>
<!DOCTYPE svg PUBLIC "-//W3C//DTD SVG 1.1//EN" "http://www.w3.org/Graphics/SVG/1.1/DTD/svg11.dtd">
<svg width="100%" height="100%" viewBox="0 0 60 60" version="1.1" xmlns="http://www.w3.org/2000/svg" xmlns:xlink="http://www.w3.org/1999/xlink" xml:space="preserve" style="fill-rule:evenodd;clip-rule:evenodd;stroke-linejoin:round;stroke-miterlimit:1.41421;">
    <g transform="matrix(1,0,0,1,1.53592,1.46381)">
        <g id="Profile">
            <clipPath id="_clip1">
                <path d="M47.33,46.207C45.784,44.731 42.805,42.097 39.841,40.694C37.395,39.54 35.994,38.37 35.558,37.121C35.256,36.252 35.392,35.259 35.972,34.081C36.41,33.193 36.824,32.454 37.207,31.773C38.821,28.891 40.068,26.81 40.068,19.439C40.068,8.408 33.7,7.849 32.44,7.849C31.408,7.849 30.762,8.078 30.137,8.299C29.453,8.542 28.745,8.792 27.135,8.82C24.22,8.868 18.114,8.969 18.114,19.116C18.114,26.215 19.96,29.475 21.413,32.094C21.785,32.765 22.136,33.399 22.414,34.031C23.65,36.835 22.748,38.794 19.573,40.197C15.562,41.968 13.674,42.89 9.734,46.357C5.317,41.716 2.588,35.449 2.588,28.536C2.588,14.245 14.172,2.66 28.464,2.66C42.755,2.66 54.34,14.245 54.34,28.536C54.34,35.377 51.665,41.58 47.33,46.207ZM28.464,54.412C22.022,54.412 16.144,52.045 11.614,48.149C15.102,45.099 16.767,44.264 20.617,42.564C25.078,40.593 26.595,37.103 24.782,32.988C24.456,32.248 24.077,31.564 23.676,30.84C22.301,28.358 20.701,25.546 20.701,19.116C20.701,11.513 24.31,11.453 27.178,11.405C29.211,11.372 30.205,11.02 31.001,10.739C31.533,10.55 31.854,10.436 32.44,10.436C34.837,10.436 37.48,12.802 37.48,19.439C37.48,26.134 36.477,27.781 34.949,30.509C34.548,31.225 34.112,32.003 33.652,32.937C32.761,34.744 32.58,36.438 33.115,37.972C33.8,39.938 35.586,41.548 38.733,43.036C41.311,44.254 44.016,46.634 45.466,48.01C40.916,51.985 34.979,54.412 28.464,54.412ZM28.464,0.072C12.744,0.072 0,12.816 0,28.536C0,44.256 12.744,57 28.464,57C44.184,57 56.928,44.256 56.928,28.536C56.928,12.816 44.184,0.072 28.464,0.072Z"/>
            </clipPath>
            <g clip-path="url(#_clip1)">
                <rect x="0" y="0" width="57" height="57" style="fill:white;fill-rule:nonzero;"/>
            </g>
        </g>
    </g>
</svg>
