<?xml version="1.0" encoding="UTF-8" standalone="no"?>
<svg width="138px" height="161px" viewBox="0 0 138 161" version="1.1" xmlns="http://www.w3.org/2000/svg" xmlns:xlink="http://www.w3.org/1999/xlink" xmlns:sketch="http://www.bohemiancoding.com/sketch/ns">
    <!-- Generator: Sketch 3.3.2 (12043) - http://www.bohemiancoding.com/sketch -->
    <title>Polygon 1 Copy + Imported Layers Copy Copy + Imported Layers Copy Copy Copy</title>
    <desc>Created with Sketch.</desc>
    <defs></defs>
    <g id="Page-1" stroke="none" stroke-width="1" fill="none" fill-rule="evenodd" sketch:type="MSPage">
        <g id="Storified_Lancasters" sketch:type="MSArtboardGroup" transform="translate(-1099.000000, -1661.000000)">
            <g id="Polygon-1-Copy-+-Imported-Layers-Copy-Copy-+-Imported-Layers-Copy-Copy-Copy" sketch:type="MSLayerGroup" transform="translate(1099.000000, 1661.000000)">
                <g id="Polygon-1-Copy-+-Imported-Layers-Copy-Copy" fill="#2B3B3D" sketch:type="MSShapeGroup">
                    <polygon id="Polygon-1-Copy" points="69.0449733 -2.03160968 137.94739 39.1624202 137.94739 121.55048 69.0449733 162.74451 0.142556724 121.55048 0.142556724 39.1624202 "></polygon>
                </g>
                <g id="Imported-Layers" transform="translate(38.000000, 40.000000)" fill="#FFFFFF" sketch:type="MSShapeGroup">
                    <path d="M61.651,29.057 C62.069,27.355 61.621,25.707 60.316,24.162 C58.553,22.072 56.697,21.013 54.8,21.013 C51.866,21.013 49.12,23.451 46.443,28.449 C45.423,25.492 43.307,21.085 39.757,21.085 C39.237,21.085 38.707,21.183 38.18,21.377 C35.462,22.381 33.709,24.905 33.714,27.808 C33.718,30.599 35.243,33.121 37.924,34.952 C35.447,35.297 32.53,36.132 31.385,38.119 C30.583,39.511 30.734,41.178 31.833,43.074 C32.714,44.594 33.721,45.429 34.681,45.883 C31.753,48.461 31.494,52.48 31.929,55.766 C31.159,55.017 30.331,54.356 29.466,53.772 C29.499,53.668 29.526,53.559 29.522,53.442 C29.307,46.771 25.461,41.941 23.486,39.888 C23.716,39.919 23.945,39.95 24.17,39.95 C25.527,39.95 26.755,39.36 27.628,38.289 C28.704,36.97 29.142,35.029 28.771,33.224 C28.541,32.102 27.639,30.219 24.188,30.219 C23.708,30.219 23.234,30.256 22.794,30.31 C24.167,27.722 24.497,25.697 23.804,24.158 C23.137,22.674 21.607,21.777 19.129,21.416 C18.834,21.374 18.557,21.354 18.294,21.354 C17.039,21.354 15.981,21.828 15.237,22.724 C14.433,23.692 14.091,25.026 13.974,26.298 C12.889,25.304 11.562,24.727 10.185,24.727 C8.287,24.727 6.711,25.81 5.861,27.699 C5.429,28.66 5.426,29.663 5.852,30.598 C6.477,31.967 7.938,33.007 9.299,33.722 C7.15,34.504 5.898,35.592 5.566,36.971 C5.213,38.436 6.057,39.709 6.886,40.354 C7.789,41.057 8.831,41.413 9.984,41.413 C11.343,41.412 12.645,40.906 13.673,40.343 C13.635,41.283 13.784,42.325 14.379,43.192 C15.135,44.294 16.403,44.853 18.149,44.852 L18.413,44.849 C20.168,44.794 21.386,44.19 22.032,43.052 C22.265,42.642 22.396,42.194 22.457,41.735 C24.195,43.676 26.983,47.53 27.45,52.575 C21.537,49.488 14.851,49.366 13.825,49.366 L13.821,49.366 C13.495,49.37 13.192,49.533 13.008,49.803 C12.825,50.072 12.784,50.414 12.899,50.719 C13.941,53.481 15.019,55.884 16.113,57.983 C7.055,56.683 0.993,60.537 0.727,60.711 C0.473,60.876 0.309,61.147 0.278,61.447 C0.248,61.748 0.354,62.046 0.569,62.259 C9.152,70.757 17.845,72.532 23.612,72.532 C27.541,72.532 30.112,71.707 30.364,71.624 C30.396,71.613 30.418,71.588 30.448,71.575 C31.288,71.746 32.055,71.811 32.729,71.811 C34.463,71.811 35.632,71.406 36.013,71.254 C37.102,71.947 38.918,72.765 41.504,72.765 L41.506,72.765 C47.104,72.765 53.451,69.054 60.368,61.734 C60.592,61.498 60.687,61.166 60.621,60.847 C60.556,60.527 60.339,60.26 60.04,60.13 C59.845,60.045 55.205,58.056 49.781,58.056 C45.446,58.056 40.018,59.369 36.567,64.937 C36.295,63.189 35.789,61.573 35.058,60.089 C34.149,57.53 31.914,49.715 36.947,46.695 C37.097,46.605 37.202,46.476 37.284,46.334 C39.12,46.163 40.883,45.097 42.24,43.999 C41.858,46.241 41.684,49.092 42.683,51.04 C43.23,52.106 44.061,52.822 45.151,53.168 C46.279,53.526 47.299,53.707 48.183,53.707 C50.126,53.707 51.137,52.829 51.643,52.092 C52.627,50.657 52.705,48.38 51.867,45.18 C53.319,46.302 55.117,47.332 56.825,47.332 C57.955,47.332 59.519,46.881 60.559,44.73 C61.851,42.059 61.935,39.59 60.798,37.777 C59.897,36.34 58.307,35.434 56.245,35.156 C58.542,33.684 61.033,31.569 61.651,29.057 L61.651,29.057 Z M20.292,42.066 C20.014,42.555 19.36,42.818 18.35,42.85 L18.149,42.853 C17.104,42.853 16.391,42.587 16.03,42.063 C15.329,41.046 15.822,39.123 16.07,38.47 C16.237,38.037 16.084,37.546 15.701,37.284 C15.53,37.168 15.333,37.11 15.137,37.11 C14.894,37.11 14.651,37.199 14.461,37.373 C13.843,37.94 11.832,39.412 9.984,39.413 C9.277,39.413 8.665,39.204 8.114,38.775 C7.825,38.55 7.372,38.016 7.51,37.439 C7.603,37.056 8.243,35.74 12.597,34.911 C13.049,34.824 13.385,34.44 13.408,33.98 C13.432,33.52 13.138,33.103 12.697,32.97 C11.626,32.649 8.404,31.371 7.672,29.768 C7.483,29.355 7.488,28.958 7.685,28.52 C8.205,27.364 9.093,26.728 10.185,26.728 C11.584,26.728 13.365,27.816 14.19,30.249 C14.358,30.746 14.881,31.029 15.391,30.895 C15.898,30.762 16.217,30.26 16.12,29.744 C15.924,28.695 15.623,25.389 16.776,24.002 C17.237,23.446 17.896,23.258 18.841,23.396 C20.589,23.65 21.616,24.168 21.981,24.979 C22.358,25.819 22.311,27.58 19.938,31.198 C19.706,31.55 19.722,32.01 19.976,32.348 C20.229,32.684 20.667,32.827 21.071,32.701 C21.086,32.696 22.642,32.219 24.188,32.219 C26.523,32.219 26.733,33.242 26.812,33.626 C27.061,34.839 26.773,36.173 26.078,37.025 C25.734,37.447 25.123,37.95 24.17,37.95 C23.247,37.95 22.16,37.481 21.026,36.595 C20.651,36.302 20.123,36.314 19.762,36.622 C19.4,36.93 19.306,37.451 19.535,37.867 C19.937,38.596 20.939,40.932 20.292,42.066 L20.292,42.066 Z M2.956,61.776 C5.15,60.729 10.355,58.824 17.168,60.182 C17.223,60.193 17.275,60.179 17.33,60.181 C20.609,65.76 23.967,68.75 26.904,70.29 C22.264,70.875 12.577,70.691 2.956,61.776 L2.956,61.776 Z M49.781,60.056 C53.096,60.056 56.16,60.888 57.858,61.454 C50.28,69.115 44.81,70.766 41.506,70.766 L41.505,70.766 C39.065,70.765 37.506,69.902 36.77,69.367 C36.774,69.274 36.78,69.182 36.783,69.09 C38.97,63.098 43.336,60.056 49.781,60.056 L49.781,60.056 Z M34.583,69.329 C34.554,69.422 34.541,69.518 34.54,69.613 C31.864,70.223 22.946,70.527 15.318,51.424 C18.546,51.648 26.472,52.716 31.126,57.806 C31.935,58.691 32.596,59.672 33.14,60.725 C33.21,60.919 33.268,61.072 33.305,61.164 C33.426,61.473 33.555,61.8 33.739,62.051 C34.51,64.03 34.863,66.264 34.796,68.738 C34.727,68.938 34.649,69.122 34.583,69.329 L34.583,69.329 Z M51.246,35.541 C50.764,35.739 50.514,36.274 50.672,36.771 C50.831,37.268 51.345,37.562 51.852,37.44 C55.297,36.636 58.065,37.182 59.104,38.839 C59.862,40.048 59.739,41.831 58.758,43.859 C58.12,45.18 57.349,45.333 56.825,45.333 C54.598,45.333 51.464,42.281 50.444,41.106 C50.126,40.739 49.59,40.653 49.173,40.903 C48.756,41.154 48.58,41.667 48.755,42.12 C51.041,48.05 50.513,50.204 49.994,50.961 C49.867,51.145 49.481,51.708 48.183,51.708 C47.505,51.708 46.688,51.557 45.756,51.262 C45.185,51.081 44.762,50.71 44.463,50.128 C43.252,47.77 44.419,42.854 44.97,41.158 C45.12,40.699 44.92,40.199 44.496,39.969 C44.345,39.888 44.182,39.848 44.02,39.848 C43.725,39.848 43.436,39.978 43.24,40.221 C42.312,41.375 39.343,44.369 36.786,44.369 C35.514,44.369 34.459,43.617 33.563,42.071 C32.849,40.838 32.699,39.845 33.118,39.118 C34.074,37.458 37.962,36.715 41.391,36.715 L41.613,36.716 C42.062,36.748 42.528,36.384 42.62,35.903 C42.71,35.422 42.44,34.946 41.981,34.778 C38.061,33.344 35.718,30.737 35.714,27.805 C35.711,25.75 36.951,23.963 38.873,23.253 C39.181,23.14 39.471,23.084 39.757,23.084 C42.676,23.084 44.732,29.25 45.223,31.41 C45.317,31.828 45.667,32.139 46.093,32.184 C46.511,32.231 46.925,31.998 47.105,31.61 C49.711,25.985 52.372,23.013 54.8,23.013 C56.081,23.013 57.422,23.833 58.788,25.452 C59.668,26.495 59.969,27.518 59.709,28.578 C58.926,31.768 53.334,34.686 51.246,35.541 L51.246,35.541 Z" id="Fill-1"></path>
                    <path d="M24.741,17.632 C24.538,18.63 24.523,19.742 25.045,20.662 C25.46,21.392 26.381,22.277 28.411,22.34 L28.652,22.344 C30.27,22.344 31.448,21.823 32.153,20.795 C32.673,20.037 32.827,19.138 32.814,18.31 C33.736,18.797 34.878,19.218 36.069,19.218 C37.137,19.218 38.103,18.888 38.94,18.238 C39.715,17.635 40.502,16.444 40.172,15.071 C39.873,13.829 38.78,12.843 36.912,12.126 C38.109,11.473 39.356,10.546 39.905,9.342 C40.305,8.467 40.302,7.53 39.898,6.633 C39.122,4.908 37.623,3.879 35.886,3.879 C34.669,3.879 33.494,4.366 32.518,5.21 C32.394,4.094 32.074,2.941 31.369,2.092 C30.531,1.083 29.338,0.642 27.749,0.872 C25.464,1.205 24.052,2.037 23.432,3.416 C22.805,4.81 23.079,6.625 24.273,8.931 C23.918,8.893 23.545,8.868 23.168,8.868 C19.967,8.868 19.129,10.623 18.914,11.67 C18.572,13.336 18.977,15.128 19.971,16.348 C21.111,17.745 22.907,18.229 24.741,17.632 L24.741,17.632 Z M20.873,12.073 C20.941,11.743 21.121,10.868 23.168,10.868 C24.557,10.868 25.958,11.297 25.972,11.301 C26.375,11.426 26.813,11.284 27.067,10.947 C27.321,10.61 27.336,10.15 27.104,9.798 C25.44,7.261 24.784,5.286 25.256,4.236 C25.573,3.531 26.483,3.078 28.037,2.852 C28.859,2.733 29.431,2.892 29.829,3.368 C30.854,4.6 30.593,7.499 30.406,8.511 C30.31,9.027 30.629,9.529 31.137,9.662 C31.643,9.794 32.167,9.513 32.335,9.016 C33.07,6.849 34.648,5.879 35.886,5.879 C36.84,5.879 37.618,6.438 38.074,7.453 C38.244,7.83 38.248,8.156 38.086,8.51 C37.51,9.777 35.015,10.937 33.578,11.371 C33.137,11.504 32.844,11.92 32.868,12.38 C32.892,12.84 33.227,13.224 33.679,13.311 C37.58,14.054 38.146,15.204 38.227,15.539 C38.342,16.017 37.958,16.468 37.712,16.659 C37.228,17.035 36.69,17.218 36.069,17.218 C34.097,17.218 32.083,15.407 32.063,15.389 C31.721,15.076 31.208,15.041 30.824,15.302 C30.442,15.565 30.289,16.054 30.456,16.487 C30.664,17.026 31.119,18.767 30.504,19.664 C30.194,20.115 29.571,20.344 28.652,20.344 L28.473,20.341 C27.589,20.313 27.022,20.089 26.786,19.675 C26.261,18.756 27.023,16.769 27.474,15.95 C27.703,15.534 27.608,15.014 27.247,14.706 C27.06,14.547 26.829,14.467 26.598,14.467 C26.381,14.467 26.164,14.537 25.982,14.679 C24.144,16.116 22.494,16.277 21.521,15.084 C20.907,14.33 20.652,13.148 20.873,12.073 L20.873,12.073 Z" id="Fill-2"></path>
                </g>
            </g>
        </g>
    </g>
</svg>