<?xml version="1.0" encoding="utf-8"?>
<!-- Generator: Adobe Illustrator 18.1.0, SVG Export Plug-In . SVG Version: 6.00 Build 0)  -->
<svg version="1.1" id="Layer_1" xmlns="http://www.w3.org/2000/svg" xmlns:xlink="http://www.w3.org/1999/xlink" x="0px" y="0px"
	 viewBox="0 0 800 800" enable-background="new 0 0 800 800" xml:space="preserve">
<g sketch:type="MSPage">
	<path sketch:type="MSShapeGroup" fill="none" stroke="#010101" stroke-width="16" stroke-miterlimit="10" d="M578.7,349.8
		c0-17.1-6.6-33.1-18.7-45.2c-12.1-12.1-28.1-18.7-45.2-18.7c-4.5,0-9,0.5-13.3,1.4c4.3-20.4-1.4-42.6-17.2-58.4
		c-12.1-12.1-28.1-18.7-45.2-18.7c-16.4,0-31.8,6.1-43.7,17.3c-11.9-11.2-27.3-17.3-43.7-17.3c-17.1,0-33.1,6.6-45.2,18.7
		c-15.8,15.8-21.6,38-17.2,58.4c-4.3-0.9-8.8-1.4-13.3-1.4c-17.1,0-33.1,6.6-45.2,18.7c-24.4,24.4-24.9,63.8-1.4,88.8
		c-23.4,25-23,64.4,1.4,88.8c12.1,12.1,28.1,18.7,45.2,18.7c4.5,0,9-0.5,13.3-1.4c-4.3,20.4,1.4,42.6,17.2,58.4
		c12.1,12.1,28.1,18.7,45.2,18.7c16.4,0,31.8-6.1,43.7-17.3c11.9,11.1,27.3,17.3,43.7,17.3c17.1,0,33.1-6.6,45.2-18.7
		c15.8-15.8,21.6-38,17.2-58.4c4.3,0.9,8.8,1.4,13.3,1.4c17.1,0,33.1-6.6,45.2-18.7c24.4-24.4,24.9-63.8,1.4-88.8
		C572.6,381.5,578.7,366.1,578.7,349.8L578.7,349.8z M545.5,467.7c-9.1,9.1-21.6,13.6-34.6,12.5c-10.4-0.9-20.1-6-27.5-13.4
		l-18.6-18.6c-4-4-10.4-4-14.4,0l-0.1,0.1c-4,4-4,10.4,0,14.4l18.7,18.7c16.8,16.8,18,44.2,1.6,61.3c-8.8,9.2-20.9,14-33.7,13.3
		c-11-0.6-21.3-5.7-29.2-13.6l-12.1-12.1l-12.1,12.1c-7.8,7.8-18.1,13-29.1,13.6c-12.8,0.7-24.9-4.1-33.7-13.3
		c-16.4-17.1-15.2-44.5,1.6-61.3l18.7-18.7c4-4,4-10.4,0-14.4c0,0-0.1-0.1-0.1-0.1c-4-4-10.4-4-14.4,0l-18.6,18.6
		c-7.8,7.8-18.1,13-29.1,13.5c-12.8,0.7-24.9-4.1-33.7-13.3c-16.4-17.1-15.2-44.5,1.6-61.3l12.2-12.2l-13.1-13.1
		c-16.9-16.9-16.9-44.3,0-61.1c8.4-8.4,19.8-13,31.7-12.6c11.5,0.3,22.2,5.5,30.3,13.6l18.6,18.6c4,4,10.4,4,14.4,0l0.1-0.1
		c4-4,4-10.4,0-14.4l-18.7-18.7c-16.8-16.7-18-44.2-1.6-61.3c8.8-9.2,20.9-14,33.7-13.3c11,0.6,21.3,5.7,29.1,13.5l12.2,12.2
		l12.1-12.1c7.8-7.8,18.1-13,29.2-13.6c12.8-0.7,24.9,4.1,33.7,13.3c16.4,17.1,15.2,44.5-1.6,61.3l-18.7,18.7c-4,4-4,10.4,0,14.4
		l0.1,0.1c4,4,10.4,4,14.4,0l18.6-18.6c7.4-7.4,17-12.5,27.5-13.4c13-1.2,25.5,3.4,34.6,12.5c8.4,8.4,13,19.8,12.7,31.7
		c-0.3,11.5-5.5,22.2-13.6,30.3l-12.2,12.2l12.3,12.4c7.3,7.3,12.2,16.8,13.2,27C559.2,445.9,554.6,458.5,545.5,467.7L545.5,467.7z
		 M395.5,345.5c-26.4,0-47.9,21.5-47.9,47.9c0,26.4,21.5,47.9,47.9,47.9c26.4,0,47.9-21.5,47.9-47.9
		C443.4,367,421.9,345.5,395.5,345.5L395.5,345.5z"/>
</g>
</svg>
