<?xml version="1.0" encoding="utf-8"?>
<!-- Generator: Adobe Illustrator 18.1.0, SVG Export Plug-In . SVG Version: 6.00 Build 0)  -->
<svg version="1.1" id="Layer_1" xmlns="http://www.w3.org/2000/svg" xmlns:xlink="http://www.w3.org/1999/xlink" x="0px" y="0px"
	 viewBox="0 0 800 800" enable-background="new 0 0 800 800" xml:space="preserve">
<g>
	<g>
		<path fill="#9A4F50" stroke="#000000" stroke-width="2" stroke-miterlimit="10" d="M1332,225.5"/>
	</g>
	<g>
		<path fill="#9A4F50" stroke="#000000" stroke-width="2" stroke-miterlimit="10" d="M1255.4,162.1"/>
	</g>
</g>
<g>
	<path fill="none" stroke="#000000" stroke-width="18" stroke-miterlimit="10" d="M301.4,421.6c4.7-19.2,11.9-37.9,22.3-55.1
		c0.5-1,1-1.6,2.1-2.1l0,0l0,0c0.5-0.5,1.6-1,2.6-1.6c6.2-2.6,26-8.8,78.4-8.8c52.5,0.5,71.7,6.2,78.4,8.8c1,0.5,2.1,0.5,2.6,1.6
		l0,0l0,0c0.5,0.5,1.6,1.6,2.1,2.1c10.4,17.1,17.7,35.8,22.3,55.1c0,0,0,0,0,0c0.6,1.7-0.9,3.5-2.7,3.3
		c-34.3-2.9-68.5-4.4-102.8-4.4c-33.8,0-67.6,2-101.4,4.9C303.2,425.6,301.4,423.9,301.4,421.6L301.4,421.6z M307.1,504.7
		c-13,0-22.9-10.4-22.9-22.9c0-12.5,10.4-22.9,22.9-22.9s22.9,10.4,22.9,22.9C330,494.3,320.1,504.7,307.1,504.7z M506.6,504.7
		c-13,0-22.9-10.4-22.9-22.9c0-12.5,10.4-22.9,22.9-22.9c13,0,22.9,10.4,22.9,22.9C529.4,494.3,519,504.7,506.6,504.7z"/>
	<path fill="#FFFFFF" stroke="#000000" stroke-width="17" stroke-linecap="round" stroke-miterlimit="10" d="M303.7,541.8
		c0,0,35.3,7,103.2,7s103.2-6.6,103.2-6.6"/>
	<path d="M648,593h-13c-5.2,0-9.3-4.2-9.3-9.3V305.2c0-30.6-24.9-55.6-55.6-55.6H235.6c-30.6,0-55.6,24.9-55.6,55.6v278.4
		c0,5.2-4.2,9.3-9.3,9.3h-13c-5.2,0-9.3-4.2-9.3-9.3V305.2c0-48.3,39-87.3,87.3-87.3h334.5c48.3,0,87.3,39,87.3,87.3v278.4
		C657.3,588.8,653.2,593,648,593z"/>
</g>
<g>
	<path fill="none" d="M3341.2,560.7"/>
</g>
</svg>
