<?xml version="1.0" encoding="utf-8"?>
<!-- Generator: Adobe Illustrator 18.1.0, SVG Export Plug-In . SVG Version: 6.00 Build 0)  -->
<svg version="1.1" id="Layer_1" xmlns="http://www.w3.org/2000/svg" xmlns:xlink="http://www.w3.org/1999/xlink" x="0px" y="0px"
	 viewBox="0 0 800 800" enable-background="new 0 0 800 800" xml:space="preserve">
<g>
	<g>
		<path fill="#010101" d="M347,642.7H194.1c-7.4,0-13.5-6-13.5-13.5v-93.7c0-0.9,0.1-1.8,0.3-2.7l50.7-248.5V181.2
			c0-7.4,6-13.5,13.5-13.5H347c7.4,0,13.5,6,13.5,13.5c0,7.4-6,13.5-13.5,13.5h-88.5v90.9c0,0.9-0.1,1.8-0.3,2.7l-50.7,248.5v78.9
			H347c7.4,0,13.5,6,13.5,13.5S354.5,642.7,347,642.7z"/>
	</g>
	<g>
		<path fill="none" d="M347,572.7"/>
	</g>
	<g>
		<path fill="#010101" d="M347,642.7c-7.4,0-13.4-6-13.5-13.4c0-7.4,6-13.5,13.4-13.5l246.4-0.9v-79l-50.7-248.5
			c-0.2-0.9-0.3-1.8-0.3-2.7v-90.9l-195.3,0.9c-7.5,0-13.5-6-13.5-13.4s6-13.5,13.4-13.5l208.9-1c0,0,0,0,0.1,0c3.6,0,7,1.4,9.5,3.9
			c2.5,2.5,4,6,4,9.6v103.1l50.7,248.5c0.2,0.9,0.3,1.8,0.3,2.7v93.7c0,7.4-6,13.4-13.4,13.5L347,642.7
			C347.1,642.7,347.1,642.7,347,642.7z"/>
	</g>
	<g>
		<path fill="#010101" d="M375.3,312.6H245.1c-7.4,0-13.5-6-13.5-13.5c0-7.4,6-13.5,13.5-13.5h130.2c7.4,0,13.5,6,13.5,13.5
			C388.8,306.6,382.7,312.6,375.3,312.6z"/>
	</g>
	<g>
		<path fill="#010101" d="M281.2,302.9c-6.3,0-11.9-4.5-13.2-10.9c-0.5-2.3-4.1-22.4,7.5-36.6c4.5-5.5,13.1-12.1,28.2-12.1h41.5
			c18.7,0,38.7,12.1,38.7,46.1c0,7.4-6,13.5-13.5,13.5c-7.4,0-13.5-6-13.5-13.5c0-19.1-8.5-19.1-11.8-19.1h-41.5
			c-3.6,0-6.1,0.8-7.4,2.2c-2.6,3.1-2.7,10.4-1.9,14.3c1.5,7.3-3.3,14.4-10.6,15.8C283,302.8,282.1,302.9,281.2,302.9z"/>
	</g>
	<g>
		<path fill="#010101" d="M443.4,334.1c-8.4,0-15.9-3.2-21.8-9.3c-7.9-8.2-12.2-21.4-11.8-36.4c-0.4-5-1-22.4,10-34.8
			c4.8-5.4,13.6-11.9,28.5-11.9h41.5c38.7,0,42.4,23.4,42.9,47.4c0.2,10.3-1.6,24.8-11.4,34.8c-6.5,6.6-15.3,10.1-25.5,10.1
			c-14,0-24.5,0-33.5,0L443.4,334.1z M448.3,268.7c-5.9,0-7.7,2-8.3,2.7c-3.3,3.7-3.7,11.7-3.3,14.9c0.1,0.7,0.1,1.3,0.1,2
			c-0.3,8.8,1.9,15.2,4.3,17.7c0.8,0.9,1.5,1,2.4,1l18.7,0c9,0,19.5,0,33.6,0c4.4,0,5.8-1.4,6.3-2c2.5-2.6,3.9-8.3,3.8-15.4
			c-0.1-4.2-0.3-15.2-2.6-18.3c-1.2-1.7-6.2-2.7-13.3-2.7H448.3z"/>
	</g>
	<g>
		<path fill="#010101" d="M572,377.2c-0.3,0-0.5,0-0.8,0c-0.1,0-10.7-0.6-57-3c-49.9-2.6-66.8-18.8-84.6-35.9l-2.3-2.2
			c-17-16.2-33.5-23.4-53.7-23.4h-58.9c-7.4,0-13.5-6-13.5-13.5c0-7.4,6-13.5,13.5-13.5h58.9c27.3,0,50.3,9.8,72.3,30.9l2.4,2.3
			c15.9,15.3,27.4,26.3,67.3,28.4c46.5,2.4,57,3,57.1,3.1c7.4,0.4,13.1,6.8,12.7,14.2C585,371.7,579.1,377.2,572,377.2z"/>
	</g>
	<g>
		<path fill="#010101" d="M606.9,549H194.1c-7.4,0-13.5-6-13.5-13.5c0-7.4,6-13.5,13.5-13.5h412.7c7.4,0,13.5,6,13.5,13.5
			C620.3,543,614.3,549,606.9,549z"/>
	</g>
</g>
</svg>
