<?xml version="1.0" encoding="UTF-8" standalone="no"?>
<svg width="139px" height="161px" viewBox="0 0 139 161" version="1.1" xmlns="http://www.w3.org/2000/svg" xmlns:xlink="http://www.w3.org/1999/xlink" xmlns:sketch="http://www.bohemiancoding.com/sketch/ns">
    <!-- Generator: Sketch 3.3.2 (12043) - http://www.bohemiancoding.com/sketch -->
    <title>Polygon 1 Copy + Imported Layers Copy Copy + Imported Layers Copy Copy Copy Copy + Imported Layers Copy Copy Copy Copy + Imported Layers Copy 3</title>
    <desc>Created with Sketch.</desc>
    <defs></defs>
    <g id="Page-1" stroke="none" stroke-width="1" fill="none" fill-rule="evenodd" sketch:type="MSPage">
        <g id="Neighborhood" sketch:type="MSArtboardGroup" transform="translate(-694.000000, -5785.000000)">
            <g id="Group-Copy-2" sketch:type="MSLayerGroup" transform="translate(-0.555000, 5352.000000)">
                <g id="Polygon-1-Copy-+-Imported-Layers-Copy-Copy-+-Imported-Layers-Copy-Copy-Copy-Copy-+-Imported-Layers-Copy-Copy-Copy-Copy-+-Imported-Layers-Copy-3" transform="translate(695.000000, 433.000000)" sketch:type="MSShapeGroup">
                    <g id="Polygon-1-Copy-+-Imported-Layers-Copy-Copy-+-Imported-Layers-Copy-Copy-Copy-Copy-+-Imported-Layers-Copy-Copy-Copy-Copy" fill="#2B3B3D">
                        <g id="Polygon-1-Copy-+-Imported-Layers-Copy-Copy-+-Imported-Layers-Copy-Copy-Copy-Copy">
                            <g id="Polygon-1-Copy-+-Imported-Layers-Copy-Copy">
                                <polygon id="Polygon-1-Copy" points="69.0449733 -2.03160968 137.94739 39.1624202 137.94739 121.55048 69.0449733 162.74451 0.142556724 121.55048 0.142556724 39.1624202 "></polygon>
                            </g>
                        </g>
                    </g>
                    <path d="M79.47,90.04 L88.05,90.04 C88.841,90.04 89.48,89.401 89.48,88.61 L89.48,80.03 C89.48,79.241 88.841,78.6 88.05,78.6 L79.47,78.6 C78.68,78.6 78.04,79.241 78.04,80.03 L78.04,88.61 C78.04,89.401 78.68,90.04 79.47,90.04 L79.47,90.04 Z M80.9,81.46 L86.62,81.46 L86.62,87.18 L80.9,87.18 L80.9,81.46 Z M79.47,75.74 L88.05,75.74 C88.841,75.74 89.48,75.101 89.48,74.31 L89.48,65.731 C89.48,64.941 88.841,64.301 88.05,64.301 L79.47,64.301 C78.68,64.301 78.04,64.941 78.04,65.731 L78.04,74.31 C78.04,75.101 78.68,75.74 79.47,75.74 L79.47,75.74 Z M80.9,67.161 L86.62,67.161 L86.62,72.881 L80.9,72.881 L80.9,67.161 Z M99.49,55.72 L98.06,55.72 L98.06,51.43 C98.06,50.641 97.421,50 96.63,50 L42.29,50 C41.5,50 40.86,50.641 40.86,51.43 L40.86,55.72 L39.43,55.72 C38.64,55.72 38,56.361 38,57.15 C38,57.941 38.64,58.58 39.43,58.58 L40.86,58.58 L40.86,111.49 C40.86,112.281 41.5,112.92 42.29,112.92 L96.63,112.92 C97.421,112.92 98.06,112.281 98.06,111.49 L98.06,58.58 L99.49,58.58 C100.281,58.58 100.92,57.941 100.92,57.15 C100.92,56.361 100.281,55.72 99.49,55.72 L99.49,55.72 Z M66.6,95.761 L72.32,95.761 L72.32,110.061 L66.6,110.061 L66.6,95.761 Z M95.2,110.06 L75.18,110.06 L75.18,94.33 C75.18,93.541 74.541,92.9 73.75,92.9 L65.17,92.9 C64.38,92.9 63.74,93.541 63.74,94.33 L63.74,110.06 L43.72,110.06 L43.72,58.58 L95.2,58.58 L95.2,110.06 L95.2,110.06 Z M43.72,52.861 L95.2,52.861 L95.2,55.721 L43.72,55.721 L43.72,52.861 Z M79.47,104.341 L88.05,104.341 C88.841,104.341 89.48,103.701 89.48,102.91 L89.48,94.33 C89.48,93.541 88.841,92.9 88.05,92.9 L79.47,92.9 C78.68,92.9 78.04,93.541 78.04,94.33 L78.04,102.91 C78.04,103.701 78.68,104.341 79.47,104.341 L79.47,104.341 Z M80.9,95.761 L86.62,95.761 L86.62,101.482 L80.9,101.482 L80.9,95.761 Z M50.87,90.04 L59.45,90.04 C60.241,90.04 60.88,89.401 60.88,88.61 L60.88,80.03 C60.88,79.241 60.241,78.6 59.45,78.6 L50.87,78.6 C50.08,78.6 49.44,79.241 49.44,80.03 L49.44,88.61 C49.44,89.401 50.08,90.04 50.87,90.04 L50.87,90.04 Z M52.3,81.46 L58.02,81.46 L58.02,87.18 L52.3,87.18 L52.3,81.46 Z M65.17,90.04 L73.75,90.04 C74.541,90.04 75.18,89.401 75.18,88.61 L75.18,80.03 C75.18,79.241 74.541,78.6 73.75,78.6 L65.17,78.6 C64.38,78.6 63.74,79.241 63.74,80.03 L63.74,88.61 C63.74,89.401 64.38,90.04 65.17,90.04 L65.17,90.04 Z M66.6,81.46 L72.32,81.46 L72.32,87.18 L66.6,87.18 L66.6,81.46 Z M50.87,75.74 L59.45,75.74 C60.241,75.74 60.88,75.101 60.88,74.31 L60.88,65.731 C60.88,64.941 60.241,64.301 59.45,64.301 L50.87,64.301 C50.08,64.301 49.44,64.941 49.44,65.731 L49.44,74.31 C49.44,75.101 50.08,75.74 50.87,75.74 L50.87,75.74 Z M52.3,67.161 L58.02,67.161 L58.02,72.881 L52.3,72.881 L52.3,67.161 Z M50.87,104.341 L59.45,104.341 C60.241,104.341 60.88,103.701 60.88,102.91 L60.88,94.33 C60.88,93.541 60.241,92.9 59.45,92.9 L50.87,92.9 C50.08,92.9 49.44,93.541 49.44,94.33 L49.44,102.91 C49.44,103.701 50.08,104.341 50.87,104.341 L50.87,104.341 Z M52.3,95.761 L58.02,95.761 L58.02,101.482 L52.3,101.482 L52.3,95.761 Z M65.17,75.74 L73.75,75.74 C74.541,75.74 75.18,75.101 75.18,74.31 L75.18,65.731 C75.18,64.941 74.541,64.301 73.75,64.301 L65.17,64.301 C64.38,64.301 63.74,64.941 63.74,65.731 L63.74,74.31 C63.74,75.101 64.38,75.74 65.17,75.74 L65.17,75.74 Z M66.6,67.161 L72.32,67.161 L72.32,72.881 L66.6,72.881 L66.6,67.161 Z" id="Imported-Layers-Copy-3" fill="#FFFFFF"></path>
                </g>
            </g>
        </g>
    </g>
</svg>