<?xml version="1.0" encoding="utf-8"?>
<!-- Generator: Adobe Illustrator 18.1.0, SVG Export Plug-In . SVG Version: 6.00 Build 0)  -->
<svg version="1.1" id="Layer_1" xmlns="http://www.w3.org/2000/svg" xmlns:xlink="http://www.w3.org/1999/xlink" x="0px" y="0px"
	 viewBox="0 0 800 800" enable-background="new 0 0 800 800" xml:space="preserve">
<g>
	<path fill="#010101" d="M408.2,217.3l150.3,15.8c0,0,7.8,110.1,7.8,143.9s-5.9,83.2-38.1,114.6C496,523,407.9,592.3,407.9,592.3"/>
	<path fill="#010101" d="M409.3,217.3L259,233.1c0,0-7.8,110.1-7.8,143.9s5.9,83.2,38.1,114.6c32.2,31.4,120.3,100.7,120.3,100.7
		L409.3,217.3z M316.3,478.3c-31.8-31.8-38-77.5-38-103.2c0-25.7,4.9-120.5,4.9-120.5l124.4-12l0.2,312.4
		C407.9,555,340.5,502.5,316.3,478.3z"/>
</g>
</svg>
