<?xml version="1.0" encoding="utf-8"?>
<!-- Generator: Adobe Illustrator 18.1.0, SVG Export Plug-In . SVG Version: 6.00 Build 0)  -->
<svg version="1.1" id="Layer_1" xmlns="http://www.w3.org/2000/svg" xmlns:xlink="http://www.w3.org/1999/xlink" x="0px" y="0px"
	 viewBox="0 0 800 800" enable-background="new 0 0 800 800" xml:space="preserve">
<path fill="#010101" stroke="#000000" stroke-width="8" stroke-miterlimit="10" d="M634.6,459.2c-33.2,0-33.2-16.6-66.3-16.6
	s-33.2,16.6-66.3,16.6s-33.2-16.6-66.3-16.6s-33.2,16.6-66.3,16.6s-33.2-16.6-66.3-16.6s-33.2,16.6-66.3,16.6s-33.2-16.6-66.3-16.6
	v-16.6c33.2,0,33.2,16.6,66.3,16.6s33.2-16.6,66.3-16.6c6.7,0,20,2.7,24.6,3.8V257.5c0-27.5-22.3-30.3-49.7-30.3
	c-27.5,0-49.7,2.9-49.7,30.3c0,4.6-3.7,8.3-8.3,8.3s-8.3-3.7-8.3-8.3c0-36.6,29.7-46.9,66.3-46.9c36.6,0,66.3,10.3,66.3,46.9V310
	H502v-52.6c0-27.5-22.3-30.3-49.7-30.3c-27.5,0-49.7,2.9-49.7,30.3c0,4.6-3.7,8.3-8.3,8.3s-8.3-3.7-8.3-8.3
	c0-36.6,29.7-46.9,66.3-46.9c36.6,0,66.3,10.3,66.3,46.9V310v16.6v49.7v16.6v48c17.9-4.3,23.3-14.8,49.7-14.8
	c33.2,0,33.2,16.6,66.3,16.6 M634.6,525.6c-33.2,0-33.2-16.6-66.3-16.6s-33.2,16.6-66.3,16.6S468.8,509,435.7,509
	s-33.2,16.6-66.3,16.6S336.2,509,303,509s-33.2,16.6-66.3,16.6S203.5,509,170.4,509v-16.6c33.2,0,33.2,16.6,66.3,16.6
	s33.2-16.6,66.3-16.6s33.2,16.6,66.3,16.6s33.2-16.6,66.3-16.6S468.8,509,502,509s33.2-16.6,66.3-16.6s33.2,16.6,66.3,16.6
	 M502,442.7v-49.7H344.2v43.5c8.3,4.1,8.6,6.3,25.2,6.3c33.2,0,33.2-16.6,66.3-16.6S468.8,442.7,502,442.7L502,442.7z M502,376.3
	v-49.7H344.2v49.7H502L502,376.3z M634.6,591.9c-33.2,0-33.2-16.6-66.3-16.6s-33.2,16.6-66.3,16.6s-33.2-16.6-66.3-16.6
	s-33.2,16.6-66.3,16.6s-33.2-16.6-66.3-16.6s-33.2,16.6-66.3,16.6s-33.2-16.6-66.3-16.6v-16.6c33.2,0,33.2,16.6,66.3,16.6
	s33.2-16.6,66.3-16.6s33.2,16.6,66.3,16.6s33.2-16.6,66.3-16.6s33.2,16.6,66.3,16.6s33.2-16.6,66.3-16.6s33.2,16.6,66.3,16.6"/>
</svg>
