<?xml version="1.0" standalone="no"?>
<!DOCTYPE svg PUBLIC "-//W3C//DTD SVG 1.1//EN" "http://www.w3.org/Graphics/SVG/1.1/DTD/svg11.dtd">
<svg width="100%" height="100%" viewBox="0 0 85 64" version="1.1" xmlns="http://www.w3.org/2000/svg" xmlns:xlink="http://www.w3.org/1999/xlink" xml:space="preserve" style="fill-rule:evenodd;clip-rule:evenodd;stroke-linejoin:round;stroke-miterlimit:1.41421;">
    <g transform="matrix(1,0,0,1,-55.085,0.5)">
        <g id="Mail-Copy-+-Imported-Layers">
            <path id="Imported-Layers" d="M131.863,0L62.686,0C58.441,0 55,3.453 55,7.711L55,53.968C55,58.225 58.441,61.678 62.686,61.678L131.863,61.678C136.107,61.678 139.549,58.225 139.549,53.968L139.549,7.711C139.549,3.453 136.107,0 131.863,0ZM62.686,3.856L131.863,3.856C132.315,3.856 132.741,3.948 133.144,4.092L99.879,37.457C99.183,38.156 98.258,38.541 97.274,38.541C96.291,38.541 95.366,38.156 94.67,37.457L61.407,4.092C61.809,3.948 62.236,3.856 62.686,3.856ZM58.843,53.968L58.843,7.711C58.843,7.48 58.873,7.258 58.91,7.04L82.638,30.84L58.91,54.638C58.873,54.42 58.843,54.197 58.843,53.968ZM131.863,57.823L62.686,57.823C62.236,57.823 61.809,57.73 61.407,57.587L85.355,33.565L91.953,40.183C93.423,41.659 95.349,42.396 97.274,42.396C99.201,42.396 101.127,41.659 102.596,40.183L109.195,33.565L133.146,57.587C132.741,57.73 132.315,57.823 131.863,57.823ZM135.706,53.968C135.706,54.197 135.676,54.42 135.638,54.638L111.912,30.84L135.638,7.04C135.676,7.258 135.706,7.48 135.706,7.711L135.706,53.968Z" style="fill:black;"/>
        </g>
    </g>
</svg>
