<?xml version="1.0" encoding="UTF-8" standalone="no"?>
<svg width="65px" height="68px" viewBox="0 0 65 68" version="1.1" xmlns="http://www.w3.org/2000/svg" xmlns:xlink="http://www.w3.org/1999/xlink" xmlns:sketch="http://www.bohemiancoding.com/sketch/ns">
    <!-- Generator: Sketch 3.3.3 (12081) - http://www.bohemiancoding.com/sketch -->
    <title>Shape</title>
    <desc>Created with Sketch.</desc>
    <defs></defs>
    <g id="Page-1" stroke="none" stroke-width="1" fill="none" fill-rule="evenodd" sketch:type="MSPage">
        <g id="Storified_Lancasters" sketch:type="MSArtboardGroup" transform="translate(-399.000000, -8610.000000)" stroke="#000000" stroke-width="4.24">
            <g id="Group" sketch:type="MSLayerGroup" transform="translate(214.000000, 8278.000000)">
                <g id="Call-Copy" transform="translate(187.415000, 334.000000)" sketch:type="MSShapeGroup">
                    <path d="M44.5947358,63.0622126 C43.8031203,63.0139839 31.4477086,62.9130608 14.7726506,45.4212125 C1.35353401,31.3437801 0.505309245,17.0207385 0.523570273,14.3101048 C0.54091825,11.6691349 1.72514593,5.1153855 11.315838,0.769440453 C12.5046309,0.230886227 14.8009552,0.0995968887 15.3533513,0.71049422 C15.5989621,0.982004145 22.6020665,13.9903662 22.7810245,14.4190661 C22.9599826,14.8468728 23.0366789,15.2603896 23.0120266,15.6622957 C22.9755045,16.2347887 22.5135005,16.9260672 21.6251015,17.7352383 C20.7367024,18.5444093 19.7798246,19.2776647 18.7535548,19.9350045 C17.727285,20.5923443 16.7722332,21.2961266 15.8874864,22.0490308 C15.0027396,22.8001487 14.5434747,23.4342673 14.5115179,23.9504934 C14.4841264,25.2901805 15.3040465,30.1487792 23.3781602,37.9984527 C31.4540999,45.8481261 35.4359171,48.1622123 35.8221379,48.3301198 C36.2083586,48.4971341 36.5334049,48.5873397 36.7972768,48.603416 C37.3241074,48.6355685 38.0235048,48.2676011 38.8945559,47.5004069 C39.7656069,46.7332127 42.7531111,43.2035837 43.6825975,42.439962 C44.6129969,41.6772335 45.3708295,41.3128386 45.9570085,41.3476705 C46.3660556,41.3717848 46.7769287,41.4968223 47.189628,41.7227829 C47.6023272,41.9487434 59.976913,50.0681406 60.2070019,50.328933 C60.8324422,51.0362878 60.2316543,53.092261 59.6546058,54.2417125 C55.6216577,62.2744766 47.2891506,63.2247613 44.5947358,63.0622126 Z" id="Shape"></path>
                </g>
            </g>
        </g>
    </g>
</svg>