<?xml version="1.0" standalone="no"?>
<!DOCTYPE svg PUBLIC "-//W3C//DTD SVG 1.1//EN" "http://www.w3.org/Graphics/SVG/1.1/DTD/svg11.dtd">
<svg width="100%" height="100%" viewBox="0 0 46 63" version="1.1" xmlns="http://www.w3.org/2000/svg" xmlns:xlink="http://www.w3.org/1999/xlink" xml:space="preserve" style="fill-rule:evenodd;clip-rule:evenodd;stroke-linejoin:round;stroke-miterlimit:1.41421;">
    <g id="Layer1" transform="matrix(1,0,0,1,-0.325,0.04)">
        <g transform="matrix(1,0,0,1,0.325,0.96)">
            <path d="M24,60L17,54L7,39L2,27L4,13L14,2L28,1L39,8L44,19L44,32L37,44L24,60Z" style="fill:rgb(255,73,73);"/>
        </g>
        <path d="M23.325,0C10.689,0 0.445,10.244 0.445,22.88C0.445,41.47 23.325,62.92 23.325,62.92C23.325,62.92 46.205,41.47 46.205,22.88C46.205,10.244 35.961,0 23.325,0ZM23.325,58.63C23.325,58.63 3.305,40.039 3.305,22.88C3.305,11.822 12.268,2.859 23.325,2.859C34.382,2.859 43.345,11.822 43.345,22.88C43.345,40.039 23.325,58.63 23.325,58.63ZM23.325,11.44C17.007,11.44 11.885,16.562 11.885,22.88C11.885,29.197 17.007,34.32 23.325,34.32C29.644,34.32 34.765,29.197 34.765,22.88C34.765,16.562 29.644,11.44 23.325,11.44ZM23.325,31.459C18.587,31.459 14.745,27.618 14.745,22.88C14.745,18.141 18.587,14.3 23.325,14.3C28.064,14.3 31.905,18.141 31.905,22.88C31.905,27.618 28.064,31.459 23.325,31.459Z" style="fill:white;"/>
    </g>
</svg>
