<?xml version="1.0" encoding="utf-8"?>
<!-- Generator: Adobe Illustrator 18.1.0, SVG Export Plug-In . SVG Version: 6.00 Build 0)  -->
<svg version="1.1" id="Layer_1" xmlns="http://www.w3.org/2000/svg" xmlns:xlink="http://www.w3.org/1999/xlink" x="0px" y="0px"
	 viewBox="0 0 800 800" enable-background="new 0 0 800 800" xml:space="preserve">
<g>
	<g>
		<g>
			<g>
				<path d="M455.6,598.5L291,537.3V428.2l84.3-84.3l205.6-63.5L682.8,403v114.4L455.6,598.5z M303.9,528.4l151.8,56.4l214.2-76.4
					V407.7l-93.3-112.5l-194.3,60l-78.3,78.3V528.4z"/>
			</g>
		</g>
		<g>
			<g>
				<path fill="#9A4F50" stroke="#000000" stroke-width="2" stroke-miterlimit="10" d="M387.8,364"/>
			</g>
		</g>
		<g>
			<g>
				<path fill="#9A4F50" stroke="#000000" stroke-width="2" stroke-miterlimit="10" d="M302.9,293.7"/>
			</g>
		</g>
		<g>
			<g>
				<polygon points="458,479.5 373.4,353.1 384.1,345.9 463.4,464.4 674.4,399.2 678.2,411.5 				"/>
			</g>
		</g>
		<g>
			<g>
				<rect x="452.3" y="467" width="12.9" height="118"/>
			</g>
		</g>
	</g>
	<g>
		<g>
			<path fill="#FFFFFF" d="M201.5,541.5V428.1c0,0,20.1,8.5,47.8-19.2c27.7-27.7-9.6-71-9.6-71s40.4-19.3,32-59.9
				c-5.5-26.6-47.5-81-102.4-49.7s-57.8,97.3-22.3,129.7c23.8,21.7-6.1,34.5,14.2,56.8"/>
		</g>
		<g>
			<path d="M208,541.5h-12.9V418.4l9,3.8c0.6,0.2,16.9,6,40.8-17.8c23.1-23.1-9.6-61.9-10-62.2l-5.5-6.4l7.6-3.6
				c1.5-0.7,35.8-17.8,28.5-52.8c-2.8-13.6-17.9-38.6-41.4-49.2c-16.6-7.5-33.9-6.2-51.5,3.8c-23.9,13.6-39.2,35.9-42,61
				c-2.5,22.4,5.3,44.2,20.9,58.4c15,13.7,12.3,25.6,10.2,35.2c-1.8,8-3.1,13.7,4.5,22l-9.5,8.7c-12.1-13.3-9.5-24.5-7.5-33.5
				c1.9-8.5,3.2-14.1-6.3-22.8c-18.6-17-27.9-42.9-25-69.4c3.3-29.2,20.9-55,48.4-70.7c21.1-12,42.9-13.5,63.2-4.4
				c27.9,12.6,45.2,41.7,48.7,58.3c6.4,31.1-13.2,52.9-28.7,63.1c13.4,18.5,27.1,51.1,4.5,73.7c-19.6,19.6-36.2,22.6-46,22.2V541.5z
				"/>
		</g>
	</g>
</g>
</svg>
