<?xml version="1.0" encoding="utf-8"?>
<!-- Generator: Adobe Illustrator 18.1.0, SVG Export Plug-In . SVG Version: 6.00 Build 0)  -->
<svg version="1.1" id="Layer_1" xmlns="http://www.w3.org/2000/svg" xmlns:xlink="http://www.w3.org/1999/xlink" x="0px" y="0px"
	 viewBox="0 0 800 800" enable-background="new 0 0 800 800" xml:space="preserve">
<g>
	<g>
		<polyline fill="#FFFFFF" points="409.5,607.8 409.5,211.5 540.3,156.5 673.8,222.5 673.8,607.8 540.3,654.5 540.3,156.5 		"/>
		<path d="M532,666.2V168.9L417.8,217v390.7h-16.6V206l139.3-58.7l141.5,70v396.3L532,666.2z M548.6,169.8v473l116.9-40.9V227.7
			L548.6,169.8z"/>
	</g>
	<g>
		<polyline fill="#FFFFFF" points="125.7,681.7 125.7,127.8 308.5,50.8 495.2,143.2 495.2,681.7 308.5,747.1 308.5,50.8 		"/>
		<path d="M300.2,758.8V63.3l-166.2,70v548.5h-16.6V122.3l191.4-80.6L503.4,138v549.6L300.2,758.8z M316.8,64.2v671.2l170-59.5
			V148.3L316.8,64.2z"/>
	</g>
	<g>
		<line fill="#FFFFFF" x1="170" y1="229.8" x2="170" y2="265.7"/>
		<path d="M170,274c-4.6,0-8.3-3.7-8.3-8.3v-35.9c0-4.6,3.7-8.3,8.3-8.3s8.3,3.7,8.3,8.3v35.9C178.3,270.2,174.6,274,170,274z"/>
	</g>
	<g>
		<g>
			<line fill="#FFFFFF" x1="170" y1="165.8" x2="170" y2="201.6"/>
			<path d="M170,209.9c-4.6,0-8.3-3.7-8.3-8.3v-35.9c0-4.6,3.7-8.3,8.3-8.3s8.3,3.7,8.3,8.3v35.9C178.3,206.2,174.6,209.9,170,209.9
				z"/>
		</g>
		<g>
			<line fill="#FFFFFF" x1="170" y1="298.3" x2="170" y2="334.1"/>
			<path d="M170,342.4c-4.6,0-8.3-3.7-8.3-8.3v-35.9c0-4.6,3.7-8.3,8.3-8.3s8.3,3.7,8.3,8.3v35.9C178.3,338.7,174.6,342.4,170,342.4
				z"/>
		</g>
		<g>
			<line fill="#FFFFFF" x1="170" y1="441.6" x2="170" y2="477.4"/>
			<path d="M170,485.7c-4.6,0-8.3-3.7-8.3-8.3v-35.9c0-4.6,3.7-8.3,8.3-8.3s8.3,3.7,8.3,8.3v35.9C178.3,482,174.6,485.7,170,485.7z"
				/>
		</g>
		<g>
			<line fill="#FFFFFF" x1="170" y1="510.1" x2="170" y2="545.9"/>
			<path d="M170,554.2c-4.6,0-8.3-3.7-8.3-8.3v-35.9c0-4.6,3.7-8.3,8.3-8.3s8.3,3.7,8.3,8.3v35.9C178.3,550.5,174.6,554.2,170,554.2
				z"/>
		</g>
		<g>
			<line fill="#FFFFFF" x1="215.2" y1="147.9" x2="215.2" y2="183.7"/>
			<path d="M215.2,192c-4.6,0-8.3-3.7-8.3-8.3v-35.9c0-4.6,3.7-8.3,8.3-8.3c4.6,0,8.3,3.7,8.3,8.3v35.9
				C223.5,188.3,219.8,192,215.2,192z"/>
		</g>
		<g>
			<line fill="#FFFFFF" x1="215.2" y1="211.9" x2="215.2" y2="247.7"/>
			<path d="M215.2,256c-4.6,0-8.3-3.7-8.3-8.3v-35.9c0-4.6,3.7-8.3,8.3-8.3c4.6,0,8.3,3.7,8.3,8.3v35.9
				C223.5,252.3,219.8,256,215.2,256z"/>
		</g>
		<g>
			<line fill="#FFFFFF" x1="215.2" y1="352.5" x2="215.2" y2="388.3"/>
			<path d="M215.2,396.6c-4.6,0-8.3-3.7-8.3-8.3v-35.9c0-4.6,3.7-8.3,8.3-8.3c4.6,0,8.3,3.7,8.3,8.3v35.9
				C223.5,392.9,219.8,396.6,215.2,396.6z"/>
		</g>
		<g>
			<line fill="#FFFFFF" x1="215.2" y1="423.6" x2="215.2" y2="459.5"/>
			<path d="M215.2,467.8c-4.6,0-8.3-3.7-8.3-8.3v-35.9c0-4.6,3.7-8.3,8.3-8.3c4.6,0,8.3,3.7,8.3,8.3v35.9
				C223.5,464.1,219.8,467.8,215.2,467.8z"/>
		</g>
		<g>
			<line fill="#FFFFFF" x1="258.1" y1="126.4" x2="258.1" y2="162.3"/>
			<path d="M258.1,170.6c-4.6,0-8.3-3.7-8.3-8.3v-35.9c0-4.6,3.7-8.3,8.3-8.3c4.6,0,8.3,3.7,8.3,8.3v35.9
				C266.3,166.9,262.6,170.6,258.1,170.6z"/>
		</g>
		<g>
			<line fill="#FFFFFF" x1="258.1" y1="259" x2="258.1" y2="294.8"/>
			<path d="M258.1,303.1c-4.6,0-8.3-3.7-8.3-8.3V259c0-4.6,3.7-8.3,8.3-8.3c4.6,0,8.3,3.7,8.3,8.3v35.9
				C266.3,299.4,262.6,303.1,258.1,303.1z"/>
		</g>
		<g>
			<line fill="#FFFFFF" x1="258.1" y1="331.1" x2="258.1" y2="366.9"/>
			<path d="M258.1,375.2c-4.6,0-8.3-3.7-8.3-8.3v-35.9c0-4.6,3.7-8.3,8.3-8.3c4.6,0,8.3,3.7,8.3,8.3v35.9
				C266.3,371.5,262.6,375.2,258.1,375.2z"/>
		</g>
		<g>
			<line fill="#FFFFFF" x1="258.1" y1="470.7" x2="258.1" y2="506.6"/>
			<path d="M258.1,514.9c-4.6,0-8.3-3.7-8.3-8.3v-35.9c0-4.6,3.7-8.3,8.3-8.3c4.6,0,8.3,3.7,8.3,8.3v35.9
				C266.3,511.2,262.6,514.9,258.1,514.9z"/>
		</g>
	</g>
	<g>
		<g>
			<line fill="#FFFFFF" x1="646.2" y1="250.3" x2="646.2" y2="278.6"/>
			<path d="M646.2,286.9c-4.6,0-8.3-3.7-8.3-8.3v-28.3c0-4.6,3.7-8.3,8.3-8.3s8.3,3.7,8.3,8.3v28.3
				C654.5,283.1,650.8,286.9,646.2,286.9z"/>
		</g>
		<g>
			<line fill="#FFFFFF" x1="646.2" y1="354.9" x2="646.2" y2="383.2"/>
			<path d="M646.2,391.5c-4.6,0-8.3-3.7-8.3-8.3v-28.3c0-4.6,3.7-8.3,8.3-8.3s8.3,3.7,8.3,8.3v28.3
				C654.5,387.8,650.8,391.5,646.2,391.5z"/>
		</g>
		<g>
			<line fill="#FFFFFF" x1="646.2" y1="468" x2="646.2" y2="496.3"/>
			<path d="M646.2,504.6c-4.6,0-8.3-3.7-8.3-8.3V468c0-4.6,3.7-8.3,8.3-8.3s8.3,3.7,8.3,8.3v28.3
				C654.5,500.9,650.8,504.6,646.2,504.6z"/>
		</g>
		<g>
			<line fill="#FFFFFF" x1="646.2" y1="522.1" x2="646.2" y2="550.4"/>
			<path d="M646.2,558.7c-4.6,0-8.3-3.7-8.3-8.3v-28.3c0-4.6,3.7-8.3,8.3-8.3s8.3,3.7,8.3,8.3v28.3
				C654.5,555,650.8,558.7,646.2,558.7z"/>
		</g>
		<g>
			<line fill="#FFFFFF" x1="610.5" y1="236.1" x2="610.5" y2="264.4"/>
			<path d="M610.5,272.7c-4.6,0-8.3-3.7-8.3-8.3v-28.3c0-4.6,3.7-8.3,8.3-8.3c4.6,0,8.3,3.7,8.3,8.3v28.3
				C618.8,269,615.1,272.7,610.5,272.7z"/>
		</g>
		<g>
			<line fill="#FFFFFF" x1="610.5" y1="286.7" x2="610.5" y2="315"/>
			<path d="M610.5,323.3c-4.6,0-8.3-3.7-8.3-8.3v-28.3c0-4.6,3.7-8.3,8.3-8.3c4.6,0,8.3,3.7,8.3,8.3V315
				C618.8,319.6,615.1,323.3,610.5,323.3z"/>
		</g>
		<g>
			<line fill="#FFFFFF" x1="610.5" y1="397.7" x2="610.5" y2="426"/>
			<path d="M610.5,434.3c-4.6,0-8.3-3.7-8.3-8.3v-28.3c0-4.6,3.7-8.3,8.3-8.3c4.6,0,8.3,3.7,8.3,8.3V426
				C618.8,430.5,615.1,434.3,610.5,434.3z"/>
		</g>
		<g>
			<line fill="#FFFFFF" x1="610.5" y1="453.8" x2="610.5" y2="482.2"/>
			<path d="M610.5,490.4c-4.6,0-8.3-3.7-8.3-8.3v-28.3c0-4.6,3.7-8.3,8.3-8.3c4.6,0,8.3,3.7,8.3,8.3v28.3
				C618.8,486.7,615.1,490.4,610.5,490.4z"/>
		</g>
		<g>
			<line fill="#FFFFFF" x1="576.7" y1="219.2" x2="576.7" y2="247.5"/>
			<path d="M576.7,255.8c-4.6,0-8.3-3.7-8.3-8.3v-28.3c0-4.6,3.7-8.3,8.3-8.3c4.6,0,8.3,3.7,8.3,8.3v28.3
				C585,252.1,581.3,255.8,576.7,255.8z"/>
		</g>
		<g>
			<line fill="#FFFFFF" x1="576.7" y1="323.8" x2="576.7" y2="352.1"/>
			<path d="M576.7,360.4c-4.6,0-8.3-3.7-8.3-8.3v-28.3c0-4.6,3.7-8.3,8.3-8.3c4.6,0,8.3,3.7,8.3,8.3v28.3
				C585,356.7,581.3,360.4,576.7,360.4z"/>
		</g>
		<g>
			<line fill="#FFFFFF" x1="576.7" y1="380.8" x2="576.7" y2="409.1"/>
			<path d="M576.7,417.4c-4.6,0-8.3-3.7-8.3-8.3v-28.3c0-4.6,3.7-8.3,8.3-8.3c4.6,0,8.3,3.7,8.3,8.3v28.3
				C585,413.7,581.3,417.4,576.7,417.4z"/>
		</g>
		<g>
			<line fill="#FFFFFF" x1="576.7" y1="491" x2="576.7" y2="519.3"/>
			<path d="M576.7,527.6c-4.6,0-8.3-3.7-8.3-8.3V491c0-4.6,3.7-8.3,8.3-8.3c4.6,0,8.3,3.7,8.3,8.3v28.3
				C585,523.9,581.3,527.6,576.7,527.6z"/>
		</g>
	</g>
</g>
</svg>
