<?xml version="1.0" encoding="utf-8"?>
<!-- Generator: Adobe Illustrator 18.1.0, SVG Export Plug-In . SVG Version: 6.00 Build 0)  -->
<svg version="1.1" id="Layer_1" xmlns="http://www.w3.org/2000/svg" xmlns:xlink="http://www.w3.org/1999/xlink" x="0px" y="0px"
	 viewBox="0 0 800 800" enable-background="new 0 0 800 800" xml:space="preserve">
<g>
	<g>
		<circle fill="#010101" cx="261.8" cy="501" r="7.8"/>
	</g>
	<g>
		<g>
			<path fill="#010101" d="M159.8,587.3h282.4V304.9H159.8V587.3z M356,571.6H246.1l0-143.2c0-11.4,4.8-22.4,13.7-29.5
				c45.4-36,96.2-4.2,96.2,39.3V571.6z M175.5,320.6h251.1v251.1h-54.9l0-143.4c0-16.9-7.5-33.3-21.1-43.2
				c-57.4-41.9-120.1-1.5-120.1,53.2v133.4h-54.9V320.6z"/>
		</g>
		<g>
			<path d="M442.3,587.1c-2.5,0-5-1.2-6.4-3.5c-2.2-3.5-1.2-8.2,2.3-10.5L631,450.8v-223H408.5l-238.2,84.7
				c-3.9,1.4-8.3-0.7-9.7-4.6c-1.4-3.9,0.7-8.3,4.6-9.7l240.6-85.5h240.3v246.5L446.3,585.9C445.1,586.7,443.7,587.1,442.3,587.1z"
				/>
		</g>
		<g>
			<polygon points="436.5,321.3 430.4,307.4 635.6,217.7 641.6,231.6 			"/>
		</g>
	</g>
</g>
</svg>
