<?xml version="1.0" encoding="utf-8"?>
<!-- Generator: Adobe Illustrator 18.1.0, SVG Export Plug-In . SVG Version: 6.00 Build 0)  -->
<svg version="1.1" id="Layer_1" xmlns="http://www.w3.org/2000/svg" xmlns:xlink="http://www.w3.org/1999/xlink" x="0px" y="0px"
	 viewBox="0 0 800 800" enable-background="new 0 0 800 800" xml:space="preserve">
<g>
	<g>
		<g>
			<polygon fill="#FFFFFF" points="335.4,463 335.4,307.1 408.7,239.5 600.6,189.7 677,295.7 677,462.4 478,533.4 			"/>
			<path d="M477.6,539.7l-148.1-73.1V304.5l76.3-70.2L603,183.1l79.8,110.7v172.7L477.6,539.7z M341.2,459.3l137.2,67.7l192.8-68.8
				V297.5l-73-101.2l-186.7,48.5l-70.4,64.8V459.3z"/>
		</g>
		<g>
			<path fill="#9A4F50" stroke="#000000" stroke-width="2" stroke-miterlimit="10" d="M416.9,246.8"/>
		</g>
		<g>
			<path fill="#9A4F50" stroke="#000000" stroke-width="2" stroke-miterlimit="10" d="M340.2,183.4"/>
		</g>
		<g>
			<polygon points="480.1,362.6 403.8,248.6 413.5,242.1 485,348.9 675.3,290.1 678.7,301.2 			"/>
		</g>
		<g>
			<rect x="475" y="357.1" width="11.6" height="170.3"/>
		</g>
	</g>
	<g>
		<g>
			<polygon fill="#FFFFFF" points="123,538.6 123,376.8 196.3,303.5 388.3,247.9 464.6,359.7 464.6,538 265.7,609 			"/>
			<path d="M265.3,615.3l-148.1-73.1V374.4l76.1-76.1l197.4-57.3l79.8,116.8v184.2L265.3,615.3z M128.8,535L266,602.7l192.8-68.8
				V361.5l-73-106.8l-186.5,54.1l-70.6,70.6V535z"/>
		</g>
		<g>
			<path fill="#9A4F50" stroke="#000000" stroke-width="2" stroke-miterlimit="10" d="M204.5,322.4"/>
		</g>
		<g>
			<path fill="#9A4F50" stroke="#000000" stroke-width="2" stroke-miterlimit="10" d="M127.9,259"/>
		</g>
		<g>
			<polygon points="267.6,426.6 191.4,300.7 201.3,294.7 272.8,412.8 462.9,354.1 466.4,365.2 			"/>
		</g>
		<g>
			<rect x="262.7" y="415.3" width="11.6" height="187.8"/>
		</g>
	</g>
	<g>
		<path fill="#FFFFFF" d="M186.4,642.9v-56.5c0,0,10,4.3,23.8-9.6c13.8-13.8-4.8-35.4-4.8-35.4s20.2-9.6,16-29.9
			c-2.7-13.3-23.7-40.4-51-24.8s-28.8,48.5-11.1,64.7c11.8,10.8-3,17.2,7.1,28.3"/>
		<path d="M192.2,642.8h-11.6v-65.3l8.1,3.4c0.1,0,7,2.2,17.5-8.3c9.8-9.8-5-27.3-5.1-27.5l-4.9-5.8l6.8-3.3c0.6-0.3,16-8,12.8-23.4
			c-1.3-6.5-8.7-18-19.1-22.7c-7.5-3.4-15.3-2.8-23.3,1.8c-11.2,6.4-18.3,16.7-19.6,28.4c-1.2,10.3,2.4,20.4,9.6,26.9
			c8.6,7.9,6.9,15.2,5.8,20c-0.9,3.8-1.2,5.5,1.6,8.7l-8.6,7.8c-6.9-7.6-5.4-14.5-4.3-19c0.9-4.1,1.3-5.6-2.3-8.9
			c-9.9-9-14.8-22.8-13.3-36.8c1.7-15.4,11-29,25.4-37.2c11.2-6.4,23-7.2,33.9-2.3c13.9,6.3,23.6,20.6,25.7,30.9
			c3.2,15.4-5.4,26.6-13.3,32.6c6.6,10.2,12.1,26.3,0.5,37.9c-8.8,8.8-16.7,11.4-22.1,11.8V642.8z"/>
	</g>
</g>
</svg>
